<svg version="1.1" xmlns="http://www.w3.org/2000/svg" viewBox="0 0 561.7165287250187 198.30097750451614" width="561.7165287250187" height="198.30097750451614" class="excalidraw-svg"><!-- svg-source:excalidraw --><metadata></metadata><defs><style class="style-fonts">
      </style></defs><rect x="0" y="0" width="561.7165287250187" height="198.30097750451614" fill="#ffffff"></rect><g stroke-linecap="round"><g transform="translate(11.342668219795428 140.2118051412349) rotate(0 269.51559614271395 -43.50700364685946)"><path d="M0.08 0.25 C20.31 0.49, 98.86 19.33, 121.62 0.4 C144.38 -18.52, 94.7 -94.69, 136.65 -113.29 C178.6 -131.9, 331.57 -134.62, 373.32 -111.24 C415.08 -87.87, 359.36 1.44, 387.2 26.97 C415.04 52.5, 515.06 39.67, 540.37 41.94 M-1.34 -0.66 C18.68 -0.66, 97.48 17.82, 120.43 -1.28 C143.38 -20.39, 94.69 -96.6, 136.37 -115.27 C178.04 -133.95, 328.91 -137.08, 370.49 -113.33 C412.07 -89.57, 357.84 1.45, 385.85 27.23 C413.85 53.01, 512.93 38.77, 538.53 41.33" stroke="#1e1e1e" stroke-width="2" fill="none"></path></g></g><mask></mask><g transform="translate(143.11999671100637 37.32441500451614) rotate(0 124.7412109375 75.48828125)" stroke="none"><path fill="#1e1e1e" d="M 1.04,-3.10 Q 1.04,-3.10 4.88,-1.77 8.72,-0.44 12.40,1.20 16.09,2.85 19.67,4.37 23.25,5.88 26.97,7.66 30.70,9.44 34.44,11.30 38.17,13.17 42.13,15.08 46.10,17.00 50.01,18.95 53.92,20.89 57.97,22.82 62.02,24.75 65.76,26.66 69.49,28.57 75.07,31.52 80.65,34.46 85.15,36.79 89.65,39.11 93.51,41.18 97.37,43.26 102.76,46.02 108.16,48.78 112.14,50.80 116.12,52.82 119.54,54.43 122.96,56.04 125.82,57.49 128.68,58.95 131.46,60.59 134.23,62.24 136.56,63.73 138.88,65.22 140.99,66.64 143.09,68.07 146.57,70.22 150.05,72.36 152.88,74.28 155.71,76.20 157.67,77.28 159.62,78.36 161.61,79.25 163.61,80.14 165.88,81.05 168.15,81.96 170.36,83.81 172.58,85.66 174.46,87.15 176.34,88.65 178.95,90.59 181.55,92.53 184.56,95.45 187.57,98.37 190.49,101.32 193.41,104.27 195.23,106.21 197.06,108.16 199.41,110.44 201.77,112.71 203.99,114.37 206.22,116.03 209.02,116.71 211.83,117.40 214.16,118.43 216.50,119.45 218.63,120.60 220.76,121.75 223.06,122.63 225.37,123.52 228.32,124.17 231.27,124.83 235.25,125.99 239.23,127.16 241.34,129.10 243.44,131.04 245.49,133.15 247.53,135.26 249.58,137.94 251.62,140.61 253.46,143.49 255.29,146.36 254.50,145.59 253.71,144.81 254.34,145.42 254.97,146.02 255.43,146.76 255.90,147.50 256.18,148.33 256.45,149.16 256.52,150.03 256.59,150.90 256.45,151.77 256.31,152.63 255.97,153.43 255.63,154.24 255.10,154.94 254.58,155.64 253.90,156.19 253.22,156.74 252.43,157.12 251.64,157.49 250.78,157.66 249.93,157.84 249.05,157.80 248.18,157.77 247.34,157.52 246.50,157.28 245.74,156.84 244.99,156.41 243.46,154.20 241.93,151.99 240.79,146.96 239.65,141.94 239.72,140.76 239.79,139.58 240.23,138.49 240.68,137.40 241.44,136.51 242.21,135.61 243.22,135.01 244.23,134.41 245.38,134.16 246.54,133.91 247.71,134.04 248.88,134.18 249.94,134.68 251.01,135.18 251.86,135.99 252.71,136.80 253.26,137.85 253.81,138.89 253.99,140.05 254.18,141.22 253.98,142.38 253.78,143.54 253.23,144.58 252.67,145.62 251.81,146.42 250.95,147.23 249.88,147.72 248.81,148.21 247.64,148.33 246.47,148.45 245.32,148.19 244.17,147.93 243.16,147.32 242.16,146.71 241.40,145.81 240.64,144.91 240.21,143.81 239.78,142.71 239.72,141.54 239.66,140.36 239.98,139.23 240.30,138.09 240.97,137.12 241.63,136.15 242.58,135.44 243.52,134.73 244.64,134.36 245.75,133.99 246.93,134.00 248.11,134.00 249.22,134.39 250.34,134.77 251.27,135.48 252.21,136.20 252.86,137.18 253.52,138.16 253.83,139.30 254.14,140.43 254.14,140.43 254.14,140.43 253.92,142.62 253.71,144.81 254.34,145.42 254.97,146.02 255.43,146.76 255.90,147.50 256.18,148.33 256.45,149.16 256.52,150.03 256.59,150.90 256.45,151.77 256.31,152.63 255.97,153.43 255.63,154.24 255.10,154.94 254.58,155.63 253.90,156.19 253.22,156.74 252.43,157.11 251.64,157.49 250.78,157.66 249.93,157.84 249.05,157.80 248.18,157.77 247.34,157.52 246.50,157.28 245.74,156.84 244.99,156.41 244.70,155.88 244.42,155.36 242.47,152.61 240.52,149.87 238.96,147.64 237.39,145.41 235.31,143.41 233.22,141.41 231.19,140.16 229.15,138.91 227.13,138.19 225.11,137.47 222.40,136.60 219.68,135.74 217.24,134.78 214.79,133.82 212.76,132.36 210.74,130.91 207.28,129.55 203.83,128.18 201.62,126.91 199.41,125.64 196.93,123.52 194.44,121.40 191.41,119.13 188.37,116.86 184.96,113.61 181.55,110.35 178.67,107.58 175.80,104.80 173.44,102.65 171.09,100.49 168.60,98.56 166.11,96.63 164.55,94.57 162.99,92.52 160.96,91.63 158.93,90.74 156.46,89.18 154.00,87.62 151.84,85.99 149.68,84.35 147.30,82.21 144.93,80.07 141.52,77.32 138.10,74.58 136.26,72.98 134.41,71.38 132.41,69.73 130.40,68.08 127.93,66.29 125.46,64.50 122.93,62.83 120.39,61.15 117.05,59.36 113.72,57.57 109.72,55.56 105.73,53.54 100.28,50.77 94.83,48.01 91.00,45.98 87.18,43.95 82.64,41.64 78.10,39.34 72.52,36.44 66.93,33.55 63.30,31.68 59.66,29.80 55.54,27.91 51.42,26.02 47.52,24.17 43.61,22.32 39.55,20.49 35.50,18.66 31.77,16.90 28.04,15.13 24.39,13.47 20.75,11.80 17.09,10.26 13.43,8.71 10.06,7.16 6.68,5.61 2.82,4.36 -1.04,3.10 -1.40,2.93 -1.75,2.76 -2.06,2.51 -2.36,2.26 -2.60,1.95 -2.84,1.63 -2.99,1.27 -3.15,0.90 -3.21,0.51 -3.27,0.12 -3.24,-0.26 -3.21,-0.66 -3.08,-1.03 -2.96,-1.41 -2.74,-1.74 -2.53,-2.07 -2.25,-2.35 -1.96,-2.62 -1.62,-2.82 -1.28,-3.01 -0.90,-3.12 -0.52,-3.23 -0.12,-3.25 0.26,-3.26 0.65,-3.18 1.04,-3.10 1.04,-3.10 L 1.04,-3.10 Z"></path></g><g transform="translate(401.0040909492876 40.120649135375515) rotate(0 -130.14972686767578 42.92805480957031)" stroke="none"><path fill="#1e1e1e" d="M 2.47,4.05 Q 2.47,4.05 0.03,5.56 -2.39,7.06 -4.46,8.38 -6.52,9.71 -8.61,10.83 -10.70,11.96 -12.76,13.04 -14.82,14.13 -17.55,15.26 -20.28,16.40 -22.72,17.34 -25.16,18.27 -27.85,19.25 -30.54,20.23 -33.38,21.25 -36.22,22.27 -39.67,23.27 -43.11,24.28 -46.60,25.41 -50.10,26.54 -53.83,27.63 -57.56,28.72 -61.19,29.93 -64.81,31.14 -68.88,32.26 -72.95,33.38 -77.32,34.64 -81.70,35.91 -85.80,37.08 -89.90,38.25 -93.41,39.60 -96.93,40.96 -100.91,42.18 -104.88,43.40 -108.69,44.56 -112.50,45.72 -116.05,46.72 -119.60,47.72 -123.16,48.76 -126.71,49.80 -131.67,50.99 -136.62,52.18 -140.39,53.16 -144.16,54.14 -147.42,55.08 -150.69,56.01 -153.74,56.89 -156.79,57.78 -159.39,58.81 -161.98,59.83 -164.66,60.79 -167.34,61.75 -169.94,62.62 -172.54,63.50 -175.11,64.34 -177.68,65.17 -180.15,65.83 -182.62,66.48 -185.00,67.17 -187.39,67.86 -189.80,68.45 -192.21,69.03 -196.42,69.99 -200.62,70.95 -204.20,71.55 -207.78,72.15 -210.55,72.76 -213.32,73.37 -215.96,73.87 -218.59,74.36 -222.11,75.20 -225.63,76.05 -228.34,76.86 -231.05,77.68 -233.61,78.47 -236.17,79.27 -238.17,80.24 -240.17,81.22 -242.95,82.62 -245.74,84.02 -247.80,85.09 -249.87,86.16 -251.81,87.39 -253.76,88.62 -255.41,90.29 -257.06,91.96 -258.12,92.32 -259.18,92.67 -260.30,92.67 -261.42,92.67 -262.48,92.31 -263.54,91.95 -264.43,91.28 -265.32,90.60 -265.94,89.67 -266.57,88.75 -266.87,87.67 -267.17,86.59 -267.10,85.47 -267.04,84.36 -266.63,83.32 -266.21,82.28 -265.49,81.43 -264.76,80.58 -263.80,80.00 -262.85,79.43 -261.75,79.19 -260.66,78.95 -259.55,79.07 -258.44,79.19 -257.42,79.66 -256.41,80.14 -255.60,80.91 -254.79,81.67 -254.27,82.66 -253.74,83.65 -253.56,84.76 -253.38,85.86 -253.57,86.96 -253.75,88.07 -254.27,89.05 -254.80,90.04 -255.61,90.81 -256.42,91.58 -257.44,92.04 -258.45,92.51 -259.57,92.63 -260.68,92.75 -261.77,92.51 -262.86,92.27 -263.82,91.69 -264.77,91.11 -265.50,90.26 -266.22,89.41 -266.63,88.37 -267.05,87.33 -267.10,86.21 -267.16,85.10 -266.86,84.02 -266.56,82.94 -265.93,82.02 -265.31,81.09 -264.41,80.42 -263.52,79.74 -263.52,79.74 -263.53,79.74 -262.07,78.24 -260.61,76.74 -258.58,75.60 -256.55,74.46 -253.32,72.97 -250.08,71.47 -246.54,70.02 -242.99,68.57 -239.93,67.51 -236.88,66.45 -234.14,65.76 -231.40,65.07 -228.09,64.30 -224.78,63.54 -222.33,63.01 -219.87,62.49 -217.32,62.22 -214.78,61.94 -212.13,61.61 -209.48,61.28 -205.98,60.99 -202.48,60.70 -198.36,60.05 -194.23,59.40 -192.01,59.02 -189.79,58.63 -187.22,58.03 -184.65,57.42 -182.41,57.02 -180.16,56.62 -177.57,55.95 -174.98,55.29 -172.37,54.62 -169.77,53.95 -167.13,53.25 -164.50,52.55 -161.53,51.65 -158.56,50.76 -155.45,50.10 -152.35,49.44 -149.04,48.71 -145.74,47.98 -141.97,47.03 -138.21,46.09 -133.37,44.72 -128.54,43.36 -124.90,42.36 -121.26,41.36 -117.80,40.53 -114.34,39.69 -110.57,38.53 -106.79,37.37 -103.01,36.14 -99.23,34.91 -95.52,33.51 -91.81,32.11 -87.81,30.76 -83.82,29.41 -79.48,27.84 -75.15,26.28 -71.37,24.96 -67.59,23.63 -63.91,22.13 -60.23,20.64 -56.73,19.35 -53.24,18.06 -49.68,16.58 -46.12,15.09 -42.95,13.93 -39.78,12.77 -36.97,11.67 -34.15,10.57 -31.47,9.54 -28.79,8.52 -26.52,7.70 -24.25,6.88 -21.84,5.87 -19.43,4.86 -15.52,3.08 -11.61,1.29 -9.49,0.09 -7.37,-1.11 -4.92,-2.58 -2.47,-4.05 -1.94,-4.29 -1.42,-4.52 -0.86,-4.63 -0.30,-4.73 0.26,-4.70 0.84,-4.67 1.38,-4.50 1.93,-4.33 2.42,-4.04 2.91,-3.74 3.32,-3.34 3.72,-2.94 4.02,-2.45 4.32,-1.96 4.49,-1.41 4.66,-0.87 4.70,-0.29 4.74,0.27 4.63,0.83 4.53,1.39 4.30,1.92 4.07,2.44 3.72,2.89 3.36,3.34 2.91,3.70 2.46,4.05 2.46,4.05 L 2.47,4.05 Z"></path></g></svg>