<svg version="1.1" xmlns="http://www.w3.org/2000/svg" viewBox="0 0 1021.23603511924 298.78690817839924" width="1021.23603511924" height="298.78690817839924" class="excalidraw-svg"><!-- svg-source:excalidraw --><metadata></metadata><defs><style class="style-fonts">
      </style></defs><rect x="0" y="0" width="1021.23603511924" height="298.78690817839924" fill="#ffffff"></rect><g stroke-linecap="round"><g stroke-opacity="0.9" fill-opacity="0.9" transform="translate(170.88339716419574 50.69359902407044) rotate(0 30.65167394424789 -0.1502939035214581)"><path d="M0.92 0.36 C10.89 0.56, 49.35 0.83, 59.12 0.74 M-0.06 -0.49 C10.35 -0.6, 51.61 -1.25, 61.36 -1" stroke="#000000" stroke-width="2" fill="none"></path></g></g><mask></mask><g stroke-linecap="round"><g stroke-opacity="0.9" fill-opacity="0.9" transform="translate(10.883397164195777 30.693599024070437) rotate(0 39.307340977340935 0.48736114616040993)"><path d="M-0.88 0.74 C12.21 0.64, 66.1 -0.14, 79.5 -0.22 M0.85 0.08 C13.67 0.13, 65.36 0.93, 78.29 1.2" stroke="#000000" stroke-width="2" fill="none"></path></g></g><mask></mask><g stroke-linecap="round"><g stroke-opacity="0.9" fill-opacity="0.9" transform="translate(10.883397164195777 70.69359902407044) rotate(0 39.48873677030206 -0.7894910538781517)"><path d="M-0.5 -0.22 C12.89 -0.3, 66.21 0.39, 79.48 0.25 M1.44 -1.39 C14.7 -1.91, 64.9 -1.92, 78.26 -1.74" stroke="#000000" stroke-width="2" fill="none"></path></g></g><mask></mask><g stroke-linecap="round"><g stroke-opacity="0.9" fill-opacity="0.9" transform="translate(90.88339716419577 10.693599024070437) rotate(0 0.3937848870706375 39.60524116237647)"><path d="M-0.52 0.25 C-0.58 13.44, -0.96 65.48, -0.86 78.91 M1.41 -0.67 C1.77 12.65, 1.74 66.61, 1.4 79.88" stroke="#000000" stroke-width="2" fill="none"></path></g></g><mask></mask><g stroke-linecap="round"><g stroke-opacity="0.9" fill-opacity="0.9" transform="translate(90.88339716419577 10.693599024070437) rotate(0 19.823585533071324 -0.03226897496847414)"><path d="M-0.39 -0.5 C6.32 -0.45, 33.34 0.29, 40.04 0.39 M0.4 0.43 C7.07 0.32, 33.14 -0.42, 39.63 -0.37" stroke="#000000" stroke-width="2" fill="none"></path></g></g><mask></mask><g stroke-linecap="round"><g stroke-opacity="0.9" fill-opacity="0.9" transform="translate(90.88339716419577 90.69359902407044) rotate(0 19.598637696934162 -0.1951071527936108)"><path d="M0.04 0.39 C6.74 0.49, 33.23 0.22, 39.8 0.11 M-0.6 0.12 C6.04 0.09, 32.41 -0.81, 39.26 -0.81" stroke="#000000" stroke-width="2" fill="none"></path></g></g><mask></mask><g stroke-linecap="round"><g stroke-opacity="0.9" fill-opacity="0.9" transform="translate(130.88339716419574 10.693599024070437) rotate(0 18.817413504378536 40.05510348950513)"><path d="M-0.44 0.23 C4.18 1.29, 21.38 0.52, 27.8 7.23 C34.22 13.94, 38.39 29.41, 38.06 40.5 C37.72 51.59, 32 67.15, 25.8 73.78 C19.59 80.41, 5.19 79.22, 0.83 80.27 M1.53 -0.69 C6.49 0.44, 23.96 1.42, 29.91 8.42 C35.86 15.43, 37.94 30.76, 37.21 41.31 C36.48 51.86, 31.77 65.13, 25.53 71.72 C19.3 78.3, 3.9 79.57, -0.21 80.8" stroke="#000000" stroke-width="2" fill="none"></path></g></g><mask></mask><g stroke-linecap="round"><g stroke-opacity="0.9" fill-opacity="0.9" transform="translate(178.1347981059365 228.2495559383614) rotate(0 30.23421467717273 0.10683388810619476)"><path d="M0.57 -1.03 C10.68 -0.94, 51.07 -0.37, 61.05 -0.25 M-0.58 1.04 C9.42 1.39, 50.56 1.2, 60.66 1.16" stroke="#000000" stroke-width="2" fill="none"></path></g></g><mask></mask><g stroke-linecap="round"><g stroke-opacity="0.9" fill-opacity="0.9" transform="translate(18.134798105936518 208.2495559383614) rotate(0 40.32181561912875 -0.1821999964769816)"><path d="M1.05 -0.25 C14.37 -0.13, 67.23 -0.38, 80.5 -0.31 M0.15 -1.42 C13.3 -1.03, 66.47 0.56, 79.81 1.06" stroke="#000000" stroke-width="2" fill="none"></path></g></g><mask></mask><g stroke-linecap="round"><g stroke-opacity="0.9" fill-opacity="0.9" transform="translate(18.134798105936518 248.2495559383614) rotate(0 39.9652458667336 0.13717610442080286)"><path d="M0.5 -0.31 C13.76 -0.25, 67.55 0.13, 80.63 0.17 M-0.7 -1.53 C12.37 -1.22, 66.34 1.34, 80.02 1.8" stroke="#000000" stroke-width="2" fill="none"></path></g></g><mask></mask><g stroke-linecap="round"><g stroke-opacity="0.9" fill-opacity="0.9" transform="translate(98.13479810593651 188.2495559383614) rotate(0 0.08462996770001041 40.346864876979964)"><path d="M0.63 0.17 C0.38 13.55, -1.04 66.85, -1.01 79.96 M-0.49 -0.78 C-0.42 12.82, 1.01 68.1, 1.18 81.48" stroke="#000000" stroke-width="2" fill="none"></path></g></g><mask></mask><g stroke-linecap="round"><g stroke-opacity="0.9" fill-opacity="0.9" transform="translate(98.13479810593651 188.2495559383614) rotate(0 19.961334272753447 -0.2886050619270861)"><path d="M-0.46 -0.02 C6.22 -0.12, 33.65 -0.64, 40.38 -0.55 M0.3 -0.5 C6.92 -0.57, 33.61 -0.17, 40.15 -0.13" stroke="#000000" stroke-width="2" fill="none"></path></g></g><mask></mask><g stroke-linecap="round"><g stroke-opacity="0.9" fill-opacity="0.9" transform="translate(98.13479810593651 268.24955593836137) rotate(0 19.930971994312713 -0.012204487156111554)"><path d="M0.38 -0.55 C7.12 -0.46, 33.36 0.39, 39.94 0.52 M-0.08 0.36 C6.61 0.31, 32.88 0, 39.48 -0.17" stroke="#000000" stroke-width="2" fill="none"></path></g></g><mask></mask><g stroke-linecap="round"><g stroke-opacity="0.9" fill-opacity="0.9" transform="translate(138.1347981059365 188.2495559383614) rotate(0 18.20880357994173 40.580986212873825)"><path d="M-0.12 1.14 C4.53 2.75, 22.39 1.68, 28.75 8.46 C35.11 15.24, 38.47 31.05, 38.02 41.81 C37.58 52.57, 32.37 66.65, 26.07 73.03 C19.78 79.4, 4.62 79.07, 0.26 80.05 M-1.64 0.7 C2.76 2.06, 21.23 0.15, 27.7 6.64 C34.17 13.13, 37.45 28.38, 37.15 39.65 C36.86 50.91, 32.33 67.43, 25.95 74.23 C19.58 81.04, 3.04 79.35, -1.07 80.46" stroke="#000000" stroke-width="2" fill="none"></path></g></g><mask></mask><g stroke-linecap="round"><g stroke-opacity="0.9" fill-opacity="0.9" transform="translate(451.6323144495068 136.23150145763069) rotate(0 30.422407695329753 0.3618138975218983)"><path d="M-0.97 1.13 C8.78 1.19, 49.29 -0.4, 59.41 -0.41 M0.71 0.68 C10.8 0.98, 52.12 1.14, 61.82 0.91" stroke="#000000" stroke-width="2" fill="none"></path></g></g><mask></mask><g stroke-linecap="round"><g stroke-opacity="0.9" fill-opacity="0.9" transform="translate(291.6323144495068 116.23150145763069) rotate(0 46.11594367381741 -0.39044284873099855)"><path d="M-0.59 -0.41 C15.05 -0.45, 77.28 0.89, 92.82 0.89 M1.31 -1.67 C16.85 -1.51, 76.69 -1.08, 91.75 -0.67" stroke="#000000" stroke-width="2" fill="none"></path></g></g><mask></mask><g stroke-linecap="round"><g stroke-opacity="0.9" fill-opacity="0.9" transform="translate(291.6323144495068 156.23150145763069) rotate(0 45.615087604937514 0.33238633796722183)"><path d="M-0.22 1.07 C15.38 1.07, 77.58 -0.05, 93.03 -0.41 M-1.8 0.59 C13.66 0.81, 75.76 1.15, 91.88 1.01" stroke="#000000" stroke-width="2" fill="none"></path></g></g><mask></mask><g stroke-linecap="round"><g stroke-opacity="0.9" fill-opacity="0.9" transform="translate(371.6323144495068 96.23150145763069) rotate(0 10.454510512247992 39.66998049204237)"><path d="M-0.38 -0.23 C2.84 6.11, 18.99 25.79, 19.09 39.1 C19.19 52.41, 3.23 72.97, 0.23 79.62 M1.62 -1.39 C5.23 5.59, 21.66 26.48, 21.32 40.16 C20.98 53.85, 3.43 74.17, -0.42 80.73" stroke="#000000" stroke-width="2" fill="none"></path></g></g><mask></mask><g stroke-linecap="round"><g stroke-opacity="0.9" fill-opacity="0.9" transform="translate(371.6323144495068 96.23150145763069) rotate(0 40.0845275975764 19.40341907072215)"><path d="M-0.91 -0.9 C6.11 -0.25, 28.08 -2.99, 41.74 3.66 C55.41 10.3, 74.81 33.08, 81.08 38.96 M0.81 1.24 C7.73 2.08, 27.57 -1.43, 40.92 4.99 C54.26 11.41, 74.5 33.98, 80.88 39.74" stroke="#000000" stroke-width="2" fill="none"></path></g></g><mask></mask><g stroke-linecap="round"><g stroke-opacity="0.9" fill-opacity="0.9" transform="translate(371.6323144495068 176.23150145763069) rotate(0 39.11627124471124 -20.696920225769276)"><path d="M0.23 -0.38 C7.14 -1.25, 27.39 0.68, 40.58 -6.09 C53.76 -12.86, 72.63 -35.5, 79.34 -41.01 M-1.11 -1.63 C5.82 -2.3, 26.97 1.34, 40.2 -5.09 C53.42 -11.52, 71.34 -34.2, 78.23 -40.22" stroke="#000000" stroke-width="2" fill="none"></path></g></g><mask></mask><g stroke-linecap="round"><g transform="translate(230.49751379858236 54.16637608174236) rotate(0 35.90583735223393 32.235841270321984)"><path d="M-0.21 0.45 C11.88 11.05, 61.5 53.29, 73.59 63.84 M-1.78 -0.36 C10.14 10.34, 60.92 54.03, 73.11 64.83" stroke="#e03131" stroke-width="2" fill="none"></path></g><g transform="translate(230.49751379858236 54.16637608174236) rotate(0 35.90583735223393 32.235841270321984)"><path d="M49.79 55.84 C59.61 60.87, 66.18 62.27, 73.11 64.83 M49.79 55.84 C55.12 57.45, 58.37 59.01, 73.11 64.83" stroke="#e03131" stroke-width="2" fill="none"></path></g><g transform="translate(230.49751379858236 54.16637608174236) rotate(0 35.90583735223393 32.235841270321984)"><path d="M61.02 42.95 C66.51 52.96, 68.72 59.37, 73.11 64.83 M61.02 42.95 C64 47.11, 64.94 51.32, 73.11 64.83" stroke="#e03131" stroke-width="2" fill="none"></path></g></g><mask></mask><g stroke-linecap="round"><g transform="translate(237.6687174118636 226.8063296950236) rotate(0 29.157088818401093 -35.046337955361224)"><path d="M-0.28 -0.54 C9.48 -12.38, 48.99 -58.38, 58.6 -69.9 M1.77 1.79 C11.42 -9.92, 48.25 -59.63, 57.93 -71.88" stroke="#e03131" stroke-width="2" fill="none"></path></g><g transform="translate(237.6687174118636 226.8063296950236) rotate(0 29.157088818401093 -35.046337955361224)"><path d="M50.48 -48.02 C51.6 -54.28, 55.18 -63.54, 57.93 -71.88 M50.48 -48.02 C52.45 -57.09, 56.21 -65.02, 57.93 -71.88" stroke="#e03131" stroke-width="2" fill="none"></path></g><g transform="translate(237.6687174118636 226.8063296950236) rotate(0 29.157088818401093 -35.046337955361224)"><path d="M36.88 -58.39 C42.19 -61.5, 49.87 -67.63, 57.93 -71.88 M36.88 -58.39 C43.47 -63.83, 51.87 -68.21, 57.93 -71.88" stroke="#e03131" stroke-width="2" fill="none"></path></g></g><mask></mask><g stroke-linecap="round"><g stroke-opacity="0.9" fill-opacity="0.9" transform="translate(707.7057250291114 248.05853765271135) rotate(0 29.601223323494196 0.018759445147594533)"><path d="M-0.62 -0.38 C9.54 -0.46, 49.58 0.15, 59.83 0.08 M1.25 -1.62 C11.34 -1.55, 48.9 1.37, 58.79 1.66" stroke="#000000" stroke-width="2" fill="none"></path></g></g><mask></mask><g stroke-linecap="round"><g stroke-opacity="0.9" fill-opacity="0.9" transform="translate(547.7057250291115 228.05853765271135) rotate(0 39.58184397233185 -0.3141299251746261)"><path d="M-0.17 0.08 C13.41 0.01, 67.48 -0.77, 80.89 -0.81 M-1.72 -0.93 C11.84 -0.83, 66.85 -0.03, 80.4 0.3" stroke="#000000" stroke-width="2" fill="none"></path></g></g><mask></mask><g stroke-linecap="round"><g stroke-opacity="0.9" fill-opacity="0.9" transform="translate(547.7057250291115 268.0585376527114) rotate(0 40.07437984926162 0.3523135794546306)"><path d="M0.89 -0.81 C14.29 -0.86, 66.88 -0.45, 80.26 -0.2 M-0.11 1.38 C13.18 1.51, 65.93 1.67, 79.44 1.24" stroke="#000000" stroke-width="2" fill="none"></path></g></g><mask></mask><g stroke-linecap="round"><g stroke-opacity="0.9" fill-opacity="0.9" transform="translate(627.7057250291114 208.05853765271135) rotate(0 0.05073106389852455 39.69176692912819)"><path d="M0.26 -0.2 C0.3 13.39, 1.33 67.52, 1.15 80.73 M-1.07 -1.34 C-1.16 11.97, 0.36 65.45, 0.81 78.99" stroke="#000000" stroke-width="2" fill="none"></path></g></g><mask></mask><g stroke-linecap="round"><g stroke-opacity="0.9" fill-opacity="0.9" transform="translate(627.7057250291114 208.05853765271135) rotate(0 20.39802986046533 -0.05283611761404927)"><path d="M0.53 0.33 C7.11 0.28, 33.01 -0.36, 39.62 -0.44 M0.14 0.03 C6.88 0.03, 34.03 -0.02, 40.66 0.03" stroke="#000000" stroke-width="2" fill="none"></path></g></g><mask></mask><g stroke-linecap="round"><g stroke-opacity="0.9" fill-opacity="0.9" transform="translate(627.7057250291114 288.0585376527114) rotate(0 19.897766651678808 0.04061412127092012)"><path d="M-0.38 -0.44 C6.23 -0.52, 33.37 -0.3, 40.17 -0.17 M0.43 0.52 C6.93 0.49, 33.18 0.62, 39.83 0.44" stroke="#000000" stroke-width="2" fill="none"></path></g></g><mask></mask><g stroke-linecap="round"><g stroke-opacity="0.9" fill-opacity="0.9" transform="translate(667.7057250291114 208.05853765271135) rotate(0 18.95406116350688 39.36808144603856)"><path d="M0.38 -0.38 C5.5 1.21, 23.52 1.44, 29.92 8.56 C36.31 15.69, 39.12 31.76, 38.76 42.35 C38.4 52.94, 34.13 65.84, 27.76 72.11 C21.4 78.38, 5.2 78.63, 0.56 79.98 M-0.88 -1.62 C4.24 -0.29, 22.95 -0.21, 29.48 6.8 C36 13.82, 38.43 29.47, 38.27 40.48 C38.12 51.48, 35.01 66.18, 28.53 72.83 C22.04 79.48, 3.92 79.29, -0.61 80.36" stroke="#000000" stroke-width="2" fill="none"></path></g></g><mask></mask><g stroke-linecap="round"><g transform="translate(514.4623500607494 139.6285953200236) rotate(0 15.688157099103535 44.654912981027735)"><path d="M-0.16 -0.18 C4.95 14.87, 25.45 74.26, 31 89.46 M-1.71 -1.32 C3.73 13.94, 27.33 75.56, 33.08 90.63" stroke="#e03131" stroke-width="2" fill="none"></path></g><g transform="translate(514.4623500607494 139.6285953200236) rotate(0 15.688157099103535 44.654912981027735)"><path d="M16.71 71.74 C21.62 75.93, 26.1 85.6, 33.08 90.63 M16.71 71.74 C22.45 78.9, 28.75 85.89, 33.08 90.63" stroke="#e03131" stroke-width="2" fill="none"></path></g><g transform="translate(514.4623500607494 139.6285953200236) rotate(0 15.688157099103535 44.654912981027735)"><path d="M32.69 65.63 C32.35 71.79, 31.62 83.45, 33.08 90.63 M32.69 65.63 C32.55 75.12, 32.94 84.36, 33.08 90.63" stroke="#e03131" stroke-width="2" fill="none"></path></g></g><mask></mask><g stroke-linecap="round"><g stroke-opacity="0.9" fill-opacity="0.9" transform="translate(950.8223838100777 157.86092596406868) rotate(0 29.768393895775034 0.41767190916093)"><path d="M-0.88 -0.68 C9.21 -0.84, 50.31 -0.66, 60.41 -0.64 M0.86 1.58 C10.83 1.54, 50.02 0.75, 59.68 0.57" stroke="#000000" stroke-width="2" fill="none"></path></g></g><mask></mask><g stroke-linecap="round"><g stroke-opacity="0.9" fill-opacity="0.9" transform="translate(790.8223838100777 137.86092596406868) rotate(0 45.973138782327 0.46758408086890313)"><path d="M0.41 -0.64 C16.02 -0.65, 77.42 -0.74, 92.77 -0.73 M-0.83 1.64 C14.68 1.85, 76.29 0.71, 91.69 0.52" stroke="#000000" stroke-width="2" fill="none"></path></g></g><mask></mask><g stroke-linecap="round"><g stroke-opacity="0.9" fill-opacity="0.9" transform="translate(790.8223838100777 177.86092596406868) rotate(0 46.33168733402192 0.5804168566298245)"><path d="M-0.26 -0.55 C15.15 -0.54, 77.26 -0.77, 92.93 -0.6 M1.8 1.78 C16.98 2.01, 76.5 1.27, 91.73 0.72" stroke="#000000" stroke-width="2" fill="none"></path></g></g><mask></mask><g stroke-linecap="round"><g stroke-opacity="0.9" fill-opacity="0.9" transform="translate(870.8223838100777 117.86092596406868) rotate(0 9.725487444584928 39.517184494780395)"><path d="M-0.48 -0.41 C2.96 6.45, 20.3 27.32, 20.37 40.66 C20.43 54, 3.49 73.23, -0.1 79.6 M1.47 -1.68 C4.81 4.89, 20.01 25.15, 19.61 38.89 C19.21 52.62, 2.6 73.96, -0.92 80.71" stroke="#000000" stroke-width="2" fill="none"></path></g></g><mask></mask><g stroke-linecap="round"><g stroke-opacity="0.9" fill-opacity="0.9" transform="translate(870.8223838100777 117.86092596406868) rotate(0 40.130902238888666 19.791973394798106)"><path d="M0.37 0.66 C7.35 1.34, 28.33 -2.73, 41.42 3.64 C54.5 10.01, 72.44 32.95, 78.86 38.89 M-0.9 -0.04 C5.96 0.84, 26.74 -1.64, 40.42 4.97 C54.09 11.58, 74.53 33.78, 81.16 39.62" stroke="#000000" stroke-width="2" fill="none"></path></g></g><mask></mask><g stroke-linecap="round"><g stroke-opacity="0.9" fill-opacity="0.9" transform="translate(870.8223838100777 197.86092596406868) rotate(0 39.18438627434426 -20.56303686872124)"><path d="M-0.1 -0.4 C6.23 -1.53, 25.01 0.56, 38.36 -6.16 C51.7 -12.88, 73.1 -35.04, 79.98 -40.73 M-1.61 -1.65 C5.04 -2.74, 27.01 1.15, 40.47 -5.21 C53.94 -11.57, 72.67 -34.11, 79.2 -39.79" stroke="#000000" stroke-width="2" fill="none"></path></g></g><mask></mask><g stroke-linecap="round"><g stroke-opacity="0.9" fill-opacity="0.9" transform="translate(693.7476001781932 70.5268593709047) rotate(0 30.138468358665705 0.25527591009624473)"><path d="M-0.74 -0.7 C9.49 -0.54, 51.05 0.59, 61.02 0.72 M1.07 1.54 C11.26 1.38, 50.54 -1, 60.6 -1.03" stroke="#000000" stroke-width="2" fill="none"></path></g></g><mask></mask><g stroke-linecap="round"><g stroke-opacity="0.9" fill-opacity="0.9" transform="translate(533.7476001781932 50.5268593709047) rotate(0 40.68673603977078 0.807154993933807)"><path d="M1.02 0.72 C14.32 0.84, 66.09 0.31, 79.06 0.03 M0.09 0.05 C13.83 0.44, 67.78 1.62, 81.28 1.58" stroke="#000000" stroke-width="2" fill="none"></path></g></g><mask></mask><g stroke-linecap="round"><g stroke-opacity="0.9" fill-opacity="0.9" transform="translate(533.7476001781932 90.5268593709047) rotate(0 39.99312164900357 -0.4784022385615856)"><path d="M-0.94 0.03 C12.03 -0.25, 65.49 -1.03, 78.83 -0.97 M0.77 -1 C14 -1.22, 67.46 0.18, 80.92 0.06" stroke="#000000" stroke-width="2" fill="none"></path></g></g><mask></mask><g stroke-linecap="round"><g stroke-opacity="0.9" fill-opacity="0.9" transform="translate(613.7476001781932 30.526859370904702) rotate(0 0.09293401328648088 39.72440227493645)"><path d="M-1.17 -0.97 C-1.16 12.43, -1.18 66.84, -0.89 80.42 M0.41 1.14 C0.88 14.16, 1.41 65.63, 1.35 78.51" stroke="#000000" stroke-width="2" fill="none"></path></g></g><mask></mask><g stroke-linecap="round"><g stroke-opacity="0.9" fill-opacity="0.9" transform="translate(613.7476001781932 30.526859370904702) rotate(0 19.918514501023992 -0.18454175365225467)"><path d="M-0.41 0.19 C6.39 0.3, 33.54 0.18, 40.25 0.24 M0.38 -0.19 C7.18 -0.2, 33.44 -0.6, 39.94 -0.61" stroke="#000000" stroke-width="2" fill="none"></path></g></g><mask></mask><g stroke-linecap="round"><g stroke-opacity="0.9" fill-opacity="0.9" transform="translate(613.7476001781932 110.5268593709047) rotate(0 19.772607361805854 0.1654597761840364)"><path d="M0.25 0.24 C6.95 0.3, 33.23 0.57, 39.84 0.55 M-0.29 -0.12 C6.36 -0.21, 32.69 -0.28, 39.32 -0.13" stroke="#000000" stroke-width="2" fill="none"></path></g></g><mask></mask><g stroke-linecap="round"><g stroke-opacity="0.9" fill-opacity="0.9" transform="translate(653.7476001781932 30.526859370904702) rotate(0 18.50233964575807 40.49798854743132)"><path d="M-0.35 1.2 C4.34 2.46, 22.24 1.27, 28.71 8.1 C35.19 14.94, 38.77 31.55, 38.5 42.21 C38.22 52.87, 33.5 65.81, 27.08 72.09 C20.66 78.37, 4.61 78.58, -0.02 79.88 M1.66 0.78 C6.13 1.61, 21.61 -0.48, 27.64 6.1 C33.68 12.68, 37.9 29.14, 37.88 40.26 C37.85 51.38, 34.05 66.15, 27.49 72.8 C20.92 79.46, 3.02 79.2, -1.51 80.21" stroke="#000000" stroke-width="2" fill="none"></path></g></g><mask></mask><g stroke-linecap="round"><g transform="translate(750.357546061795 65.9469546950236) rotate(0 21.481372791654394 40.34785683567169)"><path d="M0.95 -1.11 C8.06 12.23, 35.76 66.87, 42.97 80.43 M-0.01 0.92 C6.91 14.41, 34.64 68.4, 41.99 81.81" stroke="#e03131" stroke-width="2" fill="none"></path></g><g transform="translate(750.357546061795 65.9469546950236) rotate(0 21.481372791654394 40.34785683567169)"><path d="M23.45 65.03 C27.68 70.22, 35.04 77.76, 41.99 81.81 M23.45 65.03 C28.84 69.73, 32.8 73.86, 41.99 81.81" stroke="#e03131" stroke-width="2" fill="none"></path></g><g transform="translate(750.357546061795 65.9469546950236) rotate(0 21.481372791654394 40.34785683567169)"><path d="M38.58 57.04 C37.91 64.95, 40.35 75.09, 41.99 81.81 M38.58 57.04 C39.98 63.95, 40.01 70.17, 41.99 81.81" stroke="#e03131" stroke-width="2" fill="none"></path></g></g><mask></mask><g stroke-linecap="round"><g transform="translate(767.2780782883575 250.15920445088298) rotate(0 13.245699437474798 -37.6435520671308)"><path d="M-0.12 1.14 C4.09 -11.55, 21.42 -63.47, 26.02 -76.42 M-1.63 0.69 C2.85 -11.79, 23.37 -62.3, 28.13 -75" stroke="#e03131" stroke-width="2" fill="none"></path></g><g transform="translate(767.2780782883575 250.15920445088298) rotate(0 13.245699437474798 -37.6435520671308)"><path d="M27.51 -50 C29.7 -61.1, 27.68 -67.82, 28.13 -75 M27.51 -50 C27 -56.42, 26.98 -63.87, 28.13 -75" stroke="#e03131" stroke-width="2" fill="none"></path></g><g transform="translate(767.2780782883575 250.15920445088298) rotate(0 13.245699437474798 -37.6435520671308)"><path d="M11.59 -56.25 C19.61 -65.03, 23.44 -69.46, 28.13 -75 M11.59 -56.25 C15.38 -60.88, 19.64 -66.66, 28.13 -75" stroke="#e03131" stroke-width="2" fill="none"></path></g></g><mask></mask></svg>