<svg version="1.1" xmlns="http://www.w3.org/2000/svg" viewBox="0 0 526.26953125 451.99026307605516" width="526.26953125" height="451.99026307605516" class="excalidraw-svg"><!-- svg-source:excalidraw --><metadata></metadata><defs><style class="style-fonts">
      </style></defs><rect x="0" y="0" width="526.26953125" height="451.99026307605516" fill="#ffffff"></rect><g stroke-linecap="round"><g transform="translate(47.50521269298784 209.52279673650796) rotate(0 199.50977143787154 0)"><path d="M0 0 C84.57 0, 169.15 0, 399.02 0 M0 0 C81.6 0, 163.2 0, 399.02 0" stroke="#000000" stroke-width="4" fill="none"></path></g><g transform="translate(47.50521269298784 209.52279673650796) rotate(0 199.50977143787154 0)"><path d="M375.53 8.55 C380.51 6.74, 385.49 4.93, 399.02 0 M375.53 8.55 C380.33 6.8, 385.14 5.05, 399.02 0" stroke="#000000" stroke-width="4" fill="none"></path></g><g transform="translate(47.50521269298784 209.52279673650796) rotate(0 199.50977143787154 0)"><path d="M375.53 -8.55 C380.51 -6.74, 385.49 -4.93, 399.02 0 M375.53 -8.55 C380.33 -6.8, 385.14 -5.05, 399.02 0" stroke="#000000" stroke-width="4" fill="none"></path></g></g><mask></mask><g stroke-linecap="round"><g transform="translate(46.687950932091695 209.50977143787154) rotate(270 199.50977143787154 0)"><path d="M0 0 C111.83 0, 223.65 0, 399.02 0 M0 0 C155.4 0, 310.8 0, 399.02 0" stroke="#000000" stroke-width="4" fill="none"></path></g><g transform="translate(46.687950932091695 209.50977143787154) rotate(270 199.50977143787154 0)"><path d="M375.53 8.55 C382.11 6.15, 388.69 3.76, 399.02 0 M375.53 8.55 C384.68 5.22, 393.83 1.89, 399.02 0" stroke="#000000" stroke-width="4" fill="none"></path></g><g transform="translate(46.687950932091695 209.50977143787154) rotate(270 199.50977143787154 0)"><path d="M375.53 -8.55 C382.11 -6.15, 388.69 -3.76, 399.02 0 M375.53 -8.55 C384.68 -5.22, 393.83 -1.89, 399.02 0" stroke="#000000" stroke-width="4" fill="none"></path></g></g><mask></mask><g stroke-linecap="round"><g transform="translate(243.71417236328125 207.9602948143364) rotate(0 -98.49141434493009 98.39966957847122)"><path d="M0.87 -0.13 C-32.1 32.97, -164.02 165, -196.78 198.05 M-0.12 -1.25 C-33.37 31.58, -165.21 163.47, -197.86 196.4" stroke="#1e1e1e" stroke-width="2" fill="none"></path></g><g transform="translate(243.71417236328125 207.9602948143364) rotate(0 -98.49141434493009 98.39966957847122)"><path d="M-187.33 173.72 C-191.76 182.23, -194.13 192.86, -197.86 196.4 M-187.33 173.72 C-191.82 182.94, -194.55 191.43, -197.86 196.4" stroke="#1e1e1e" stroke-width="2" fill="none"></path></g><g transform="translate(243.71417236328125 207.9602948143364) rotate(0 -98.49141434493009 98.39966957847122)"><path d="M-175.22 185.79 C-184.31 189.69, -191.4 195.62, -197.86 196.4 M-175.22 185.79 C-184.4 190.47, -191.76 194.34, -197.86 196.4" stroke="#1e1e1e" stroke-width="2" fill="none"></path></g></g><mask></mask><g transform="translate(10 94.40563783191453) rotate(0 224.48077392578125 12.021469116210938)" stroke="none"><path fill="#da77f2" d="M 3.73,-3.73 Q 3.73,-3.73 5.87,-1.49 8.02,0.75 9.62,2.27 11.22,3.79 14.02,6.11 16.81,8.42 19.42,10.06 22.03,11.69 24.45,13.09 26.86,14.48 29.05,15.65 31.24,16.81 34.04,18.26 36.84,19.71 38.72,20.93 40.60,22.16 42.49,23.57 44.38,24.99 47.02,27.11 49.66,29.24 51.33,30.82 52.99,32.41 54.67,33.76 56.35,35.10 58.93,37.27 61.50,39.43 63.76,41.28 66.03,43.13 67.87,44.39 69.70,45.66 72.20,47.22 74.69,48.79 76.76,49.66 78.83,50.53 80.90,51.55 82.97,52.57 85.55,53.62 88.14,54.68 90.42,55.71 92.70,56.74 94.68,58.00 96.66,59.27 99.81,61.21 102.96,63.15 104.92,64.53 106.88,65.90 109.56,67.95 112.25,70.00 114.24,71.21 116.24,72.42 119.31,73.92 122.38,75.43 124.34,76.40 126.29,77.38 128.63,78.40 130.96,79.42 133.87,80.68 136.77,81.94 138.93,82.83 141.08,83.73 143.23,84.47 145.38,85.22 148.16,86.30 150.94,87.38 153.07,87.80 155.20,88.22 157.48,88.18 159.75,88.14 162.26,88.11 164.77,88.09 167.13,88.07 169.50,88.04 172.25,88.02 174.99,88.00 177.97,88.00 180.95,88.01 183.60,88.34 186.25,88.67 189.19,89.46 192.12,90.24 194.58,90.90 197.05,91.57 199.82,91.94 202.59,92.31 204.90,92.37 207.20,92.44 209.63,92.44 212.06,92.44 214.24,92.44 216.42,92.43 218.83,92.42 221.23,92.40 223.74,92.39 226.24,92.38 228.89,92.36 231.54,92.34 233.84,92.33 236.13,92.31 238.40,92.29 240.66,92.27 242.76,91.90 244.87,91.52 247.19,91.51 249.51,91.50 251.92,91.50 254.32,91.50 257.05,91.51 259.77,91.52 262.27,90.27 264.76,89.02 267.79,88.06 270.81,87.09 274.00,85.58 277.19,84.07 280.37,82.70 283.55,81.33 286.47,79.90 289.38,78.47 291.98,77.30 294.58,76.12 296.80,75.11 299.03,74.10 301.48,72.65 303.93,71.19 306.23,69.07 308.53,66.94 310.37,64.88 312.20,62.82 313.84,60.72 315.47,58.63 317.42,56.62 319.38,54.62 321.68,52.26 323.97,49.90 326.30,47.87 328.62,45.83 330.55,44.24 332.47,42.65 334.50,40.90 336.53,39.16 338.78,36.99 341.04,34.82 342.94,32.76 344.85,30.71 347.21,28.24 349.57,25.77 351.65,23.58 353.73,21.39 355.10,19.75 356.48,18.12 358.48,16.35 360.48,14.59 362.43,12.04 364.38,9.48 366.03,7.71 367.68,5.93 369.82,3.46 371.96,0.99 374.27,-1.75 376.59,-4.51 378.38,-6.84 380.17,-9.16 382.17,-11.72 384.18,-14.27 386.14,-16.37 388.11,-18.47 390.17,-20.35 392.23,-22.22 393.87,-23.80 395.51,-25.37 397.06,-27.09 398.61,-28.81 400.47,-30.73 402.34,-32.66 404.46,-35.17 406.59,-37.67 408.65,-40.46 410.71,-43.24 412.62,-45.89 414.53,-48.55 416.22,-50.85 417.91,-53.16 419.88,-55.67 421.85,-58.18 423.78,-59.88 425.72,-61.57 427.55,-63.12 429.38,-64.66 431.12,-66.37 432.87,-68.09 434.69,-70.04 436.50,-72.00 438.89,-74.67 441.29,-77.35 442.80,-79.27 444.32,-81.19 445.30,-81.79 446.27,-82.39 447.39,-82.65 448.50,-82.90 449.64,-82.79 450.78,-82.68 451.82,-82.21 452.87,-81.74 453.71,-80.96 454.55,-80.18 455.09,-79.17 455.64,-78.17 455.84,-77.04 456.03,-75.91 455.86,-74.78 455.69,-73.65 455.16,-72.63 454.63,-71.62 453.81,-70.82 452.99,-70.02 451.95,-69.53 450.92,-69.04 449.78,-68.91 448.64,-68.77 447.52,-69.01 446.40,-69.24 445.42,-69.82 444.43,-70.40 443.68,-71.27 442.93,-72.13 442.49,-73.19 442.06,-74.25 441.99,-75.39 441.91,-76.54 442.21,-77.64 442.50,-78.75 443.14,-79.70 443.77,-80.66 444.68,-81.36 445.58,-82.06 446.66,-82.44 447.74,-82.81 448.89,-82.82 450.03,-82.84 451.12,-82.48 452.21,-82.13 453.13,-81.44 454.05,-80.76 454.70,-79.82 455.35,-78.88 455.67,-77.78 455.98,-76.68 455.93,-75.53 455.88,-74.39 455.47,-73.32 455.06,-72.25 454.32,-71.37 453.59,-70.49 453.59,-70.49 453.59,-70.49 453.06,-69.81 452.52,-69.13 450.45,-66.75 448.38,-64.38 446.69,-62.39 445.01,-60.41 443.06,-58.48 441.12,-56.55 438.88,-54.72 436.64,-52.90 434.81,-51.25 432.98,-49.61 431.40,-48.18 429.83,-46.76 428.48,-45.01 427.13,-43.26 425.40,-40.78 423.67,-38.31 421.67,-35.48 419.68,-32.66 417.32,-29.60 414.97,-26.55 412.70,-23.81 410.44,-21.08 408.74,-19.30 407.04,-17.53 405.07,-15.64 403.11,-13.76 400.45,-11.42 397.79,-9.09 396.08,-7.34 394.37,-5.59 392.66,-3.43 390.95,-1.27 388.77,1.55 386.59,4.38 384.51,6.92 382.43,9.47 380.20,12.11 377.97,14.75 375.90,17.29 373.82,19.82 371.81,22.34 369.80,24.85 367.53,26.88 365.26,28.92 363.44,30.75 361.63,32.59 359.49,35.03 357.36,37.47 355.12,40.05 352.88,42.63 350.82,44.67 348.76,46.71 346.85,48.41 344.95,50.11 343.29,51.50 341.64,52.88 339.76,54.38 337.89,55.89 335.82,57.68 333.74,59.48 331.61,61.71 329.48,63.95 327.25,66.76 325.01,69.56 323.09,71.87 321.17,74.17 318.78,76.81 316.39,79.46 314.02,81.50 311.65,83.54 309.74,84.67 307.83,85.80 305.55,87.01 303.27,88.22 301.21,89.27 299.16,90.32 296.54,91.38 293.91,92.45 291.59,93.68 289.26,94.90 286.93,96.03 284.59,97.16 282.20,98.17 279.81,99.19 276.47,100.46 273.13,101.72 269.91,103.19 266.70,104.65 263.32,105.72 259.94,106.78 257.77,106.80 255.59,106.81 253.10,106.81 250.60,106.81 248.23,106.46 245.85,106.10 241.78,106.79 237.71,107.47 235.50,107.46 233.28,107.44 230.91,107.42 228.55,107.40 225.99,107.39 223.44,107.38 221.21,107.37 218.97,107.35 216.78,107.35 214.58,107.34 212.42,107.33 210.26,107.32 207.85,107.31 205.44,107.29 203.25,107.19 201.06,107.08 198.71,106.73 196.37,106.37 194.09,105.96 191.82,105.55 188.87,104.68 185.92,103.82 183.44,103.40 180.95,102.98 178.48,102.99 176.01,102.99 173.55,102.98 171.08,102.97 168.85,102.94 166.62,102.92 164.37,102.89 162.11,102.87 159.78,102.84 157.44,102.81 155.02,102.64 152.59,102.48 150.31,101.96 148.04,101.45 145.36,100.44 142.68,99.44 140.05,98.66 137.42,97.88 135.40,97.06 133.39,96.25 130.69,95.17 127.98,94.09 124.56,92.70 121.14,91.31 118.68,89.90 116.23,88.49 113.81,87.57 111.39,86.64 109.51,85.48 107.63,84.32 105.27,82.69 102.90,81.05 101.03,79.57 99.16,78.09 97.37,76.83 95.58,75.58 93.22,74.22 90.85,72.87 88.76,71.43 86.67,70.00 83.84,68.67 81.02,67.35 78.80,66.46 76.59,65.58 74.38,64.44 72.17,63.31 70.09,62.34 68.00,61.36 65.92,59.97 63.83,58.58 61.83,57.29 59.82,55.99 57.90,54.42 55.98,52.84 53.53,50.74 51.07,48.63 49.16,46.98 47.24,45.33 45.34,43.71 43.45,42.08 41.92,40.54 40.39,38.99 38.09,37.00 35.78,35.01 33.77,33.28 31.77,31.55 29.69,30.11 27.62,28.68 25.33,27.36 23.03,26.05 20.44,24.47 17.84,22.89 15.27,20.95 12.69,19.00 9.85,16.59 7.01,14.18 5.40,12.70 3.79,11.22 2.27,9.62 0.75,8.02 -1.49,5.87 -3.73,3.73 -4.12,3.23 -4.51,2.72 -4.77,2.14 -5.03,1.56 -5.15,0.94 -5.26,0.31 -5.22,-0.31 -5.18,-0.95 -5.00,-1.55 -4.81,-2.16 -4.48,-2.70 -4.15,-3.25 -3.70,-3.70 -3.25,-4.15 -2.70,-4.48 -2.16,-4.81 -1.55,-5.00 -0.95,-5.18 -0.31,-5.22 0.31,-5.26 0.94,-5.15 1.57,-5.03 2.15,-4.77 2.72,-4.51 3.23,-4.12 3.73,-3.73 3.73,-3.73 L 3.73,-3.73 Z"></path></g><g transform="translate(30.70635986328125 291.4368573143364) rotate(0 7.59442138671875 -4.098297119140625)" stroke="none"><path fill="#da77f2" d="M -2.65,-4.46 Q -2.65,-4.46 -0.83,-5.60 0.97,-6.74 3.13,-8.11 5.30,-9.47 7.67,-11.08 10.05,-12.69 12.20,-13.41 14.35,-14.12 15.31,-14.10 16.28,-14.08 17.19,-13.75 18.10,-13.42 18.86,-12.81 19.62,-12.21 20.14,-11.40 20.67,-10.59 20.91,-9.65 21.15,-8.71 21.07,-7.74 21.00,-6.78 20.62,-5.89 20.24,-4.99 19.60,-4.27 18.96,-3.55 18.12,-3.06 17.28,-2.58 16.33,-2.40 15.38,-2.21 14.42,-2.33 13.46,-2.46 12.59,-2.89 11.72,-3.31 11.03,-3.99 10.34,-4.68 9.91,-5.54 9.47,-6.41 9.33,-7.36 9.20,-8.32 9.38,-9.28 9.55,-10.23 10.03,-11.07 10.50,-11.92 11.22,-12.57 11.93,-13.22 12.82,-13.61 13.71,-13.99 14.68,-14.08 15.64,-14.16 16.58,-13.93 17.52,-13.70 18.34,-13.18 19.16,-12.67 19.77,-11.92 20.38,-11.16 20.72,-10.26 21.06,-9.35 21.09,-8.38 21.12,-7.41 20.84,-6.49 20.56,-5.56 20.00,-4.77 19.44,-3.98 18.65,-3.41 17.87,-2.84 16.95,-2.55 16.02,-2.26 16.02,-2.26 16.02,-2.26 15.18,-1.94 14.33,-1.62 12.47,-0.60 10.60,0.41 8.49,1.39 6.39,2.37 4.52,3.41 2.65,4.46 2.07,4.71 1.50,4.96 0.88,5.07 0.27,5.18 -0.35,5.14 -0.97,5.09 -1.57,4.90 -2.16,4.71 -2.70,4.38 -3.23,4.06 -3.67,3.61 -4.11,3.16 -4.43,2.63 -4.75,2.09 -4.93,1.49 -5.11,0.89 -5.14,0.27 -5.17,-0.35 -5.06,-0.96 -4.94,-1.58 -4.68,-2.15 -4.42,-2.72 -4.03,-3.21 -3.64,-3.69 -3.14,-4.08 -2.64,-4.46 -2.64,-4.46 L -2.65,-4.46 Z"></path></g><g transform="translate(85.70965576171875 274.97524842761766) rotate(0 12.2998046875 -7.369781494140625)" stroke="none"><path fill="#da77f2" d="M -2.44,-4.66 Q -2.44,-4.66 0.02,-5.93 2.49,-7.21 5.19,-8.91 7.88,-10.60 10.02,-12.12 12.16,-13.64 14.39,-15.35 16.63,-17.07 19.03,-18.65 21.43,-20.23 22.39,-20.59 23.35,-20.96 24.38,-20.99 25.41,-21.03 26.39,-20.73 27.37,-20.44 28.21,-19.84 29.05,-19.25 29.65,-18.42 30.26,-17.59 30.57,-16.61 30.87,-15.64 30.85,-14.61 30.83,-13.58 30.49,-12.62 30.14,-11.65 29.50,-10.85 28.86,-10.04 28.00,-9.48 27.14,-8.93 26.15,-8.67 25.15,-8.42 24.13,-8.49 23.11,-8.57 22.16,-8.97 21.22,-9.37 20.45,-10.05 19.68,-10.73 19.17,-11.62 18.66,-12.51 18.46,-13.51 18.25,-14.52 18.39,-15.54 18.52,-16.55 18.97,-17.48 19.42,-18.40 20.14,-19.13 20.86,-19.86 21.77,-20.32 22.69,-20.79 23.71,-20.93 24.72,-21.08 25.73,-20.89 26.74,-20.70 27.64,-20.21 28.53,-19.71 29.22,-18.95 29.92,-18.19 30.33,-17.25 30.74,-16.31 30.83,-15.29 30.92,-14.26 30.68,-13.27 30.44,-12.27 29.89,-11.40 29.35,-10.53 28.55,-9.88 27.75,-9.23 27.76,-9.23 27.76,-9.24 25.06,-7.74 22.37,-6.24 19.89,-4.63 17.40,-3.02 15.30,-1.97 13.20,-0.92 10.27,0.56 7.35,2.05 4.89,3.35 2.44,4.66 1.85,4.88 1.25,5.11 0.62,5.18 -0.00,5.26 -0.63,5.18 -1.26,5.11 -1.85,4.88 -2.44,4.65 -2.97,4.29 -3.49,3.93 -3.91,3.46 -4.33,2.98 -4.62,2.42 -4.92,1.86 -5.07,1.24 -5.22,0.63 -5.22,-0.00 -5.22,-0.63 -5.07,-1.25 -4.92,-1.86 -4.62,-2.43 -4.33,-2.99 -3.90,-3.46 -3.48,-3.94 -2.96,-4.30 -2.44,-4.66 -2.44,-4.66 L -2.44,-4.66 Z"></path></g><g transform="translate(157.26239013671875 247.78777894519578) rotate(0 8.107086181640625 -3.0940704345703125)" stroke="none"><path fill="#da77f2" d="M -2.20,-4.70 Q -2.20,-4.70 -0.69,-5.50 0.81,-6.30 3.39,-7.77 5.98,-9.23 8.04,-10.28 10.10,-11.32 13.07,-11.79 16.04,-12.26 17.02,-12.13 17.99,-12.00 18.87,-11.56 19.76,-11.12 20.45,-10.43 21.15,-9.73 21.59,-8.85 22.02,-7.97 22.16,-7.00 22.29,-6.02 22.10,-5.05 21.92,-4.09 21.43,-3.23 20.95,-2.37 20.22,-1.72 19.49,-1.06 18.58,-0.67 17.68,-0.28 16.70,-0.20 15.72,-0.12 14.76,-0.36 13.81,-0.60 12.98,-1.13 12.15,-1.65 11.53,-2.42 10.92,-3.19 10.58,-4.11 10.24,-5.04 10.21,-6.02 10.18,-7.00 10.47,-7.94 10.76,-8.88 11.33,-9.68 11.91,-10.48 12.71,-11.06 13.51,-11.63 14.45,-11.92 15.39,-12.21 16.37,-12.18 17.35,-12.16 18.28,-11.82 19.20,-11.48 19.97,-10.86 20.74,-10.25 21.27,-9.42 21.80,-8.59 22.03,-7.63 22.27,-6.68 22.19,-5.70 22.11,-4.72 21.72,-3.81 21.33,-2.91 20.68,-2.18 20.02,-1.44 19.16,-0.96 18.31,-0.47 17.34,-0.29 16.37,-0.10 16.38,-0.10 16.38,-0.10 15.62,-0.16 14.87,-0.22 12.43,0.66 9.98,1.55 7.67,2.47 5.37,3.40 3.79,4.05 2.20,4.70 1.61,4.90 1.01,5.10 0.39,5.14 -0.23,5.19 -0.85,5.09 -1.46,4.98 -2.04,4.74 -2.62,4.49 -3.11,4.11 -3.61,3.73 -4.01,3.24 -4.40,2.76 -4.67,2.19 -4.94,1.62 -5.06,1.01 -5.18,0.39 -5.15,-0.23 -5.13,-0.85 -4.95,-1.45 -4.77,-2.05 -4.45,-2.60 -4.14,-3.14 -3.70,-3.59 -3.27,-4.04 -2.74,-4.37 -2.20,-4.70 -2.20,-4.70 L -2.20,-4.70 Z"></path></g><g transform="translate(214.53125 223.3704510643364) rotate(0 12.565093994140625 -4.873046875)" stroke="none"><path fill="#da77f2" d="M -2.67,-4.39 Q -2.67,-4.39 -0.87,-5.56 0.93,-6.73 3.33,-8.27 5.74,-9.81 7.78,-11.02 9.82,-12.23 11.93,-12.92 14.05,-13.61 16.82,-14.44 19.59,-15.27 22.20,-15.78 24.81,-16.29 25.86,-16.17 26.92,-16.05 27.88,-15.60 28.84,-15.15 29.60,-14.42 30.37,-13.68 30.86,-12.74 31.35,-11.80 31.52,-10.75 31.69,-9.70 31.51,-8.66 31.33,-7.61 30.83,-6.68 30.33,-5.74 29.55,-5.02 28.78,-4.29 27.81,-3.85 26.84,-3.41 25.79,-3.30 24.73,-3.19 23.70,-3.43 22.66,-3.66 21.76,-4.21 20.85,-4.76 20.17,-5.58 19.48,-6.39 19.10,-7.38 18.71,-8.37 18.66,-9.43 18.61,-10.49 18.90,-11.51 19.19,-12.53 19.79,-13.41 20.39,-14.28 21.24,-14.92 22.09,-15.56 23.09,-15.89 24.10,-16.22 25.16,-16.22 26.22,-16.21 27.23,-15.86 28.23,-15.52 29.07,-14.87 29.91,-14.23 30.50,-13.34 31.10,-12.46 31.37,-11.44 31.65,-10.41 31.59,-9.35 31.52,-8.29 31.13,-7.31 30.73,-6.33 30.04,-5.52 29.34,-4.72 28.43,-4.17 27.52,-3.63 26.48,-3.41 25.44,-3.19 25.44,-3.19 25.44,-3.19 23.95,-3.11 22.45,-3.02 18.85,-2.51 15.25,-2.00 12.87,-0.88 10.49,0.23 8.45,1.24 6.41,2.26 4.54,3.32 2.67,4.39 2.11,4.65 1.54,4.90 0.93,5.02 0.32,5.13 -0.29,5.10 -0.91,5.06 -1.50,4.88 -2.09,4.70 -2.62,4.38 -3.16,4.06 -3.60,3.62 -4.04,3.18 -4.36,2.65 -4.68,2.12 -4.87,1.53 -5.06,0.94 -5.10,0.32 -5.13,-0.29 -5.02,-0.90 -4.91,-1.51 -4.66,-2.08 -4.41,-2.64 -4.03,-3.13 -3.65,-3.62 -3.16,-4.01 -2.67,-4.39 -2.67,-4.39 L -2.67,-4.39 Z"></path></g><g transform="translate(293.10870361328125 200.5677166893364) rotate(0 23.173828125 -8.121734619140625)" stroke="none"><path fill="#da77f2" d="M -2.39,-4.78 Q -2.39,-4.78 -0.21,-5.88 1.95,-6.99 5.55,-8.69 9.14,-10.39 12.17,-11.71 15.20,-13.03 18.16,-14.21 21.12,-15.40 23.50,-16.27 25.88,-17.15 28.09,-17.96 30.30,-18.78 32.49,-19.57 34.68,-20.37 37.64,-21.13 40.59,-21.89 43.12,-22.40 45.65,-22.91 46.73,-22.85 47.82,-22.79 48.82,-22.38 49.83,-21.97 50.65,-21.27 51.48,-20.56 52.03,-19.63 52.59,-18.69 52.82,-17.63 53.05,-16.57 52.92,-15.49 52.80,-14.41 52.34,-13.43 51.88,-12.45 51.13,-11.66 50.38,-10.88 49.42,-10.37 48.46,-9.87 47.38,-9.70 46.31,-9.53 45.24,-9.71 44.17,-9.89 43.21,-10.40 42.26,-10.92 41.51,-11.71 40.77,-12.50 40.32,-13.49 39.87,-14.47 39.76,-15.55 39.64,-16.63 39.88,-17.69 40.12,-18.75 40.68,-19.68 41.25,-20.61 42.08,-21.31 42.91,-22.01 43.92,-22.40 44.93,-22.80 46.02,-22.85 47.10,-22.91 48.14,-22.61 49.19,-22.32 50.09,-21.70 50.98,-21.09 51.63,-20.22 52.29,-19.35 52.63,-18.32 52.97,-17.29 52.97,-16.21 52.96,-15.12 52.61,-14.09 52.26,-13.07 51.60,-12.21 50.93,-11.34 50.03,-10.74 49.13,-10.13 48.08,-9.85 47.04,-9.56 47.04,-9.56 47.04,-9.56 45.19,-9.18 43.35,-8.79 41.05,-8.44 38.75,-8.09 36.53,-7.42 34.31,-6.75 32.04,-6.08 29.77,-5.40 27.28,-4.68 24.80,-3.95 21.72,-2.91 18.64,-1.87 15.84,-0.86 13.03,0.14 9.90,1.38 6.77,2.63 4.58,3.70 2.39,4.78 1.78,4.99 1.17,5.21 0.53,5.27 -0.10,5.34 -0.74,5.25 -1.38,5.16 -1.97,4.92 -2.57,4.68 -3.09,4.30 -3.62,3.92 -4.03,3.43 -4.45,2.94 -4.74,2.37 -5.03,1.79 -5.17,1.16 -5.31,0.53 -5.30,-0.10 -5.29,-0.74 -5.12,-1.37 -4.95,-1.99 -4.64,-2.55 -4.33,-3.12 -3.90,-3.59 -3.46,-4.06 -2.92,-4.42 -2.38,-4.78 -2.38,-4.78 L -2.39,-4.78 Z"></path></g><g transform="translate(392.470703125 156.24807557605516) rotate(0 28.678375244140625 -5.8365936279296875)" stroke="none"><path fill="#da77f2" d="M -0.43,-5.25 Q -0.43,-5.25 1.98,-5.48 4.39,-5.70 8.16,-6.41 11.92,-7.11 14.04,-7.33 16.16,-7.56 19.10,-8.48 22.05,-9.40 24.17,-9.84 26.29,-10.27 29.73,-11.19 33.17,-12.11 36.75,-13.08 40.33,-14.06 43.03,-14.86 45.72,-15.67 48.14,-16.34 50.55,-17.00 53.87,-17.57 57.19,-18.14 58.22,-17.99 59.26,-17.85 60.20,-17.39 61.13,-16.92 61.87,-16.18 62.61,-15.44 63.08,-14.50 63.54,-13.56 63.68,-12.52 63.82,-11.48 63.62,-10.46 63.42,-9.43 62.91,-8.52 62.39,-7.61 61.61,-6.91 60.83,-6.21 59.87,-5.80 58.90,-5.39 57.86,-5.30 56.82,-5.22 55.80,-5.47 54.79,-5.73 53.90,-6.29 53.02,-6.86 52.37,-7.67 51.71,-8.49 51.35,-9.47 50.99,-10.46 50.97,-11.50 50.94,-12.55 51.25,-13.55 51.56,-14.55 52.17,-15.40 52.78,-16.25 53.63,-16.86 54.49,-17.47 55.49,-17.78 56.49,-18.08 57.53,-18.05 58.58,-18.02 59.56,-17.66 60.55,-17.30 61.36,-16.64 62.18,-15.98 62.74,-15.10 63.30,-14.22 63.55,-13.20 63.80,-12.18 63.72,-11.14 63.63,-10.10 63.21,-9.14 62.80,-8.17 62.10,-7.40 61.40,-6.62 60.49,-6.10 59.57,-5.59 58.55,-5.39 57.52,-5.20 57.52,-5.20 57.52,-5.20 56.35,-5.16 55.18,-5.12 52.03,-4.38 48.88,-3.63 45.98,-2.93 43.07,-2.22 39.89,-1.47 36.71,-0.73 32.61,0.25 28.52,1.24 25.01,1.92 21.51,2.60 19.29,3.13 17.07,3.67 13.41,4.03 9.75,4.38 7.51,4.65 5.27,4.91 2.85,5.08 0.43,5.25 -0.20,5.23 -0.83,5.21 -1.45,5.03 -2.06,4.85 -2.61,4.54 -3.16,4.22 -3.62,3.78 -4.08,3.34 -4.42,2.80 -4.76,2.26 -4.96,1.66 -5.16,1.06 -5.22,0.42 -5.27,-0.20 -5.17,-0.83 -5.07,-1.46 -4.82,-2.04 -4.57,-2.63 -4.19,-3.14 -3.81,-3.65 -3.31,-4.05 -2.82,-4.45 -2.25,-4.73 -1.67,-5.00 -1.05,-5.13 -0.43,-5.25 -0.43,-5.25 L -0.43,-5.25 Z"></path></g><g transform="translate(496.282470703125 118.36071595691453) rotate(0 9.9935302734375 -2.1500701904296875)" stroke="none"><path fill="#da77f2" d="M -0.48,-5.14 Q -0.48,-5.14 1.71,-5.41 3.92,-5.67 6.00,-6.37 8.07,-7.08 10.96,-7.86 13.84,-8.65 15.59,-9.27 17.33,-9.89 18.30,-10.17 19.26,-10.45 20.26,-10.40 21.26,-10.36 22.20,-9.99 23.13,-9.63 23.90,-8.99 24.67,-8.35 25.19,-7.49 25.72,-6.64 25.94,-5.66 26.16,-4.68 26.07,-3.69 25.97,-2.69 25.55,-1.78 25.14,-0.86 24.46,-0.13 23.77,0.59 22.89,1.07 22.01,1.55 21.02,1.72 20.04,1.89 19.04,1.74 18.05,1.58 17.16,1.12 16.28,0.66 15.58,-0.05 14.88,-0.77 14.46,-1.68 14.03,-2.59 13.91,-3.58 13.79,-4.58 14.00,-5.56 14.21,-6.54 14.72,-7.40 15.23,-8.27 15.98,-8.92 16.74,-9.58 17.67,-9.95 18.60,-10.33 19.60,-10.40 20.60,-10.46 21.57,-10.20 22.54,-9.94 23.37,-9.38 24.20,-8.83 24.82,-8.04 25.43,-7.24 25.76,-6.30 26.09,-5.35 26.10,-4.35 26.10,-3.34 25.79,-2.39 25.48,-1.44 24.88,-0.64 24.28,0.16 23.46,0.73 22.63,1.30 22.63,1.29 22.63,1.29 19.29,2.15 15.96,3.00 13.51,3.34 11.07,3.68 8.00,4.26 4.93,4.83 2.71,4.99 0.48,5.14 -0.13,5.13 -0.75,5.11 -1.35,4.95 -1.95,4.78 -2.50,4.48 -3.04,4.17 -3.50,3.75 -3.95,3.32 -4.30,2.80 -4.64,2.28 -4.84,1.69 -5.05,1.10 -5.11,0.48 -5.17,-0.13 -5.07,-0.75 -4.98,-1.36 -4.75,-1.94 -4.51,-2.52 -4.14,-3.02 -3.78,-3.52 -3.30,-3.93 -2.82,-4.33 -2.26,-4.60 -1.70,-4.88 -1.09,-5.01 -0.48,-5.14 -0.48,-5.14 L -0.48,-5.14 Z"></path></g><g transform="translate(149.95440673828125 49.54559144519578) rotate(0 8.7646484375 7.9410858154296875)" stroke="none"><path fill="#da77f2" d="M 3.86,-3.44 Q 3.86,-3.44 5.25,-1.98 6.64,-0.53 8.31,1.02 9.98,2.57 11.67,4.05 13.35,5.53 15.38,6.74 17.41,7.96 18.95,9.04 20.49,10.12 21.33,10.75 22.17,11.37 22.77,12.23 23.37,13.09 23.66,14.09 23.95,15.10 23.91,16.15 23.86,17.19 23.49,18.17 23.11,19.15 22.44,19.95 21.77,20.76 20.88,21.31 19.99,21.86 18.97,22.10 17.95,22.34 16.91,22.24 15.87,22.13 14.91,21.71 13.96,21.28 13.19,20.57 12.42,19.86 11.92,18.94 11.42,18.02 11.23,16.99 11.05,15.95 11.21,14.92 11.37,13.88 11.85,12.95 12.32,12.02 13.08,11.29 13.83,10.56 14.77,10.11 15.72,9.66 16.76,9.54 17.80,9.41 18.82,9.62 19.85,9.84 20.75,10.36 21.66,10.89 22.34,11.68 23.03,12.47 23.43,13.44 23.83,14.41 23.90,15.46 23.97,16.50 23.70,17.51 23.43,18.53 22.85,19.40 22.28,20.27 21.45,20.92 20.62,21.56 19.64,21.91 18.65,22.25 17.60,22.26 16.55,22.28 15.56,21.95 14.56,21.63 14.56,21.63 14.56,21.63 11.96,19.05 9.36,16.47 7.16,15.19 4.96,13.90 3.41,12.11 1.87,10.32 0.29,8.43 -1.28,6.54 -2.57,4.99 -3.86,3.44 -4.21,2.93 -4.57,2.42 -4.79,1.83 -5.02,1.25 -5.10,0.63 -5.17,0.01 -5.10,-0.60 -5.03,-1.22 -4.81,-1.80 -4.59,-2.39 -4.24,-2.90 -3.88,-3.41 -3.42,-3.83 -2.95,-4.25 -2.40,-4.54 -1.85,-4.83 -1.24,-4.98 -0.64,-5.13 -0.01,-5.13 0.60,-5.14 1.21,-4.99 1.81,-4.84 2.37,-4.55 2.92,-4.27 3.39,-3.85 3.86,-3.44 3.86,-3.44 L 3.86,-3.44 Z"></path></g><g transform="translate(201.85870361328125 115.11199769519578) rotate(0 5.45086669921875 7.083343505859375)" stroke="none"><path fill="#da77f2" d="M 3.85,-3.41 Q 3.85,-3.41 5.53,-1.56 7.21,0.28 9.31,2.53 11.40,4.78 13.97,8.78 16.54,12.79 16.61,13.72 16.68,14.66 16.45,15.57 16.22,16.48 15.71,17.27 15.20,18.06 14.47,18.64 13.73,19.23 12.85,19.55 11.97,19.87 11.03,19.89 10.09,19.91 9.19,19.63 8.30,19.35 7.54,18.80 6.77,18.25 6.23,17.48 5.69,16.72 5.41,15.82 5.14,14.92 5.17,13.98 5.20,13.04 5.53,12.16 5.86,11.28 6.45,10.55 7.04,9.82 7.83,9.32 8.63,8.82 9.54,8.60 10.45,8.37 11.39,8.46 12.32,8.54 13.18,8.91 14.04,9.29 14.74,9.92 15.44,10.55 15.90,11.37 16.35,12.18 16.53,13.11 16.70,14.03 16.57,14.96 16.44,15.89 16.02,16.73 15.60,17.57 14.93,18.23 14.26,18.89 13.42,19.30 12.58,19.72 11.64,19.84 10.71,19.96 9.79,19.78 8.87,19.60 8.06,19.13 7.24,18.67 6.62,17.97 5.99,17.27 5.63,16.40 5.26,15.54 5.26,15.54 5.26,15.54 3.88,13.43 2.50,11.32 0.96,9.26 -0.57,7.19 -2.21,5.30 -3.85,3.41 -4.20,2.90 -4.55,2.39 -4.77,1.81 -4.99,1.23 -5.07,0.62 -5.14,0.00 -5.07,-0.61 -5.00,-1.22 -4.78,-1.80 -4.56,-2.38 -4.20,-2.90 -3.85,-3.41 -3.39,-3.82 -2.92,-4.23 -2.37,-4.52 -1.82,-4.81 -1.22,-4.96 -0.62,-5.11 -0.00,-5.11 0.61,-5.11 1.21,-4.96 1.82,-4.81 2.37,-4.52 2.92,-4.24 3.38,-3.82 3.85,-3.41 3.85,-3.41 L 3.85,-3.41 Z"></path></g><g transform="translate(249.45635986328125 178.8099041893364) rotate(0 4.04296875 11.19140625)" stroke="none"><path fill="#da77f2" d="M 4.87,-1.62 Q 4.87,-1.62 5.66,0.63 6.46,2.90 7.50,5.02 8.53,7.15 9.49,9.60 10.44,12.04 11.50,14.28 12.56,16.51 13.29,18.33 14.02,20.14 14.23,21.15 14.43,22.16 14.30,23.17 14.17,24.19 13.72,25.12 13.27,26.04 12.55,26.77 11.83,27.51 10.91,27.97 9.99,28.43 8.98,28.58 7.96,28.73 6.95,28.54 5.94,28.36 5.04,27.86 4.14,27.36 3.45,26.60 2.76,25.84 2.34,24.90 1.93,23.96 1.84,22.94 1.75,21.91 1.99,20.91 2.23,19.91 2.77,19.04 3.32,18.17 4.12,17.52 4.91,16.87 5.87,16.51 6.84,16.15 7.86,16.11 8.89,16.08 9.87,16.37 10.86,16.67 11.70,17.26 12.54,17.85 13.14,18.68 13.75,19.51 14.06,20.49 14.37,21.47 14.35,22.50 14.33,23.53 13.98,24.49 13.63,25.46 13.00,26.27 12.36,27.07 11.50,27.63 10.64,28.19 9.64,28.45 8.65,28.70 7.62,28.63 6.60,28.55 5.65,28.15 4.70,27.75 3.93,27.07 3.16,26.39 2.65,25.50 2.14,24.61 2.14,24.61 2.14,24.62 1.67,23.25 1.21,21.88 0.66,19.38 0.10,16.88 -0.75,14.21 -1.62,11.54 -2.52,8.87 -3.42,6.20 -4.14,3.91 -4.87,1.62 -4.99,1.01 -5.11,0.41 -5.09,-0.20 -5.06,-0.82 -4.89,-1.41 -4.72,-2.01 -4.41,-2.54 -4.10,-3.08 -3.67,-3.53 -3.24,-3.97 -2.72,-4.30 -2.19,-4.63 -1.61,-4.83 -1.02,-5.03 -0.40,-5.08 0.20,-5.12 0.81,-5.03 1.43,-4.93 1.99,-4.68 2.56,-4.44 3.06,-4.07 3.55,-3.70 3.94,-3.22 4.34,-2.74 4.60,-2.18 4.87,-1.62 4.87,-1.62 L 4.87,-1.62 Z"></path></g><g transform="translate(252.86785888671875 222.16604432605516) rotate(0 9.365234375 7.511383056640625)" stroke="none"><path fill="#da77f2" d="M 3.36,-3.91 Q 3.36,-3.91 5.67,-1.85 7.98,0.20 10.83,2.33 13.69,4.45 16.05,6.09 18.41,7.72 19.66,8.63 20.91,9.54 21.73,10.03 22.55,10.53 23.17,11.26 23.78,11.98 24.13,12.87 24.49,13.76 24.54,14.71 24.59,15.66 24.33,16.58 24.07,17.50 23.54,18.29 23.00,19.08 22.24,19.66 21.48,20.23 20.58,20.54 19.67,20.84 18.72,20.84 17.76,20.84 16.86,20.53 15.96,20.22 15.20,19.65 14.44,19.07 13.90,18.28 13.37,17.49 13.12,16.57 12.86,15.65 12.91,14.69 12.97,13.74 13.32,12.86 13.68,11.97 14.30,11.24 14.91,10.52 15.73,10.03 16.55,9.54 17.48,9.33 18.41,9.13 19.36,9.23 20.31,9.34 21.18,9.74 22.04,10.14 22.73,10.80 23.43,11.46 23.87,12.30 24.32,13.14 24.47,14.08 24.62,15.03 24.47,15.97 24.31,16.91 23.86,17.75 23.42,18.59 22.72,19.25 22.03,19.90 21.16,20.30 20.29,20.70 19.35,20.80 18.40,20.91 17.47,20.70 16.53,20.49 16.54,20.49 16.54,20.49 12.68,17.39 8.82,14.29 6.78,12.48 4.74,10.67 3.07,9.27 1.40,7.86 -0.97,5.88 -3.36,3.91 -3.78,3.45 -4.20,2.99 -4.49,2.45 -4.79,1.90 -4.95,1.30 -5.11,0.70 -5.12,0.07 -5.13,-0.54 -4.99,-1.14 -4.85,-1.75 -4.57,-2.31 -4.29,-2.86 -3.88,-3.33 -3.48,-3.81 -2.97,-4.17 -2.46,-4.53 -1.88,-4.76 -1.31,-4.99 -0.69,-5.07 -0.07,-5.16 0.53,-5.09 1.15,-5.02 1.74,-4.81 2.32,-4.60 2.84,-4.26 3.36,-3.91 3.36,-3.91 L 3.36,-3.91 Z"></path></g><g transform="translate(324.267578125 296.59963807605516) rotate(0 13.78741455078125 18.3984375)" stroke="none"><path fill="#da77f2" d="M 4.24,-2.72 Q 4.24,-2.72 5.71,-0.47 7.17,1.77 8.82,3.61 10.47,5.45 11.62,7.47 12.77,9.49 15.27,11.10 17.76,12.71 19.06,14.45 20.36,16.19 22.21,18.66 24.07,21.13 25.55,23.07 27.03,25.00 28.36,26.99 29.69,28.99 29.27,29.63 28.84,30.27 29.85,30.65 30.85,31.02 31.69,31.70 32.53,32.37 33.10,33.28 33.68,34.19 33.93,35.23 34.19,36.27 34.10,37.34 34.01,38.41 33.58,39.40 33.15,40.38 32.43,41.18 31.71,41.98 30.78,42.51 29.84,43.03 28.79,43.23 27.73,43.43 26.67,43.28 25.60,43.13 24.64,42.65 23.68,42.17 22.92,41.41 22.17,40.65 21.69,39.69 21.22,38.72 21.07,37.66 20.93,36.59 21.14,35.54 21.34,34.48 21.88,33.55 22.41,32.62 23.21,31.90 24.01,31.19 25.00,30.76 25.99,30.34 27.06,30.26 28.13,30.18 29.17,30.44 30.21,30.70 31.12,31.28 32.02,31.86 32.69,32.70 33.36,33.54 33.73,34.55 34.09,35.56 34.12,36.63 34.15,37.71 33.83,38.73 33.51,39.76 32.88,40.63 32.25,41.50 31.38,42.13 30.50,42.75 29.47,43.06 28.45,43.37 27.37,43.34 26.30,43.31 26.30,43.31 26.30,43.31 23.41,40.86 20.53,38.41 19.14,36.30 17.76,34.20 16.51,32.40 15.27,30.61 13.67,28.10 12.08,25.60 10.62,23.47 9.15,21.33 6.92,18.79 4.69,16.25 3.39,14.27 2.08,12.30 0.35,9.78 -1.37,7.26 -2.81,4.99 -4.24,2.72 -4.51,2.18 -4.77,1.63 -4.90,1.03 -5.03,0.44 -5.01,-0.16 -4.98,-0.77 -4.82,-1.36 -4.65,-1.94 -4.35,-2.47 -4.05,-3.00 -3.63,-3.44 -3.22,-3.88 -2.70,-4.21 -2.19,-4.54 -1.61,-4.74 -1.04,-4.94 -0.43,-4.99 0.16,-5.04 0.77,-4.95 1.37,-4.85 1.93,-4.62 2.49,-4.39 2.98,-4.02 3.47,-3.66 3.86,-3.19 4.24,-2.72 4.24,-2.72 L 4.24,-2.72 Z"></path></g><g transform="translate(351.8424072265625 333.39651307605516) rotate(0 13.802093505859375 18.85577392578125)" stroke="none"><path fill="#da77f2" d="M 4.59,-2.57 Q 4.59,-2.57 5.44,-1.22 6.29,0.12 7.89,2.05 9.50,3.98 11.63,6.39 13.77,8.79 16.51,12.10 19.25,15.41 21.69,18.52 24.13,21.64 26.19,24.03 28.25,26.43 29.61,28.47 30.96,30.51 32.46,33.66 33.96,36.80 33.94,37.84 33.91,38.88 33.56,39.86 33.21,40.84 32.56,41.65 31.92,42.46 31.04,43.03 30.17,43.59 29.16,43.85 28.16,44.11 27.12,44.03 26.08,43.95 25.13,43.54 24.17,43.14 23.39,42.45 22.62,41.76 22.10,40.86 21.58,39.96 21.38,38.94 21.18,37.92 21.31,36.89 21.45,35.86 21.90,34.92 22.36,33.99 23.09,33.25 23.82,32.51 24.75,32.04 25.68,31.58 26.71,31.43 27.74,31.28 28.76,31.47 29.78,31.66 30.69,32.17 31.60,32.68 32.29,33.45 32.99,34.22 33.41,35.17 33.82,36.12 33.91,37.16 34.00,38.19 33.76,39.20 33.51,40.21 32.96,41.09 32.40,41.97 31.60,42.63 30.79,43.28 29.82,43.64 28.84,44.01 27.81,44.04 26.77,44.08 25.77,43.78 24.78,43.48 23.93,42.87 23.08,42.27 22.47,41.43 21.86,40.59 21.55,39.60 21.24,38.61 21.24,38.61 21.24,38.61 21.17,38.58 21.10,38.54 19.77,36.24 18.44,33.94 16.47,31.46 14.51,28.97 12.23,25.96 9.95,22.94 7.50,19.90 5.04,16.86 3.46,15.11 1.87,13.36 0.53,11.43 -0.79,9.50 -1.98,7.46 -3.17,5.43 -3.88,4.00 -4.59,2.57 -4.83,1.98 -5.07,1.40 -5.17,0.77 -5.26,0.14 -5.20,-0.48 -5.14,-1.11 -4.93,-1.71 -4.73,-2.31 -4.38,-2.85 -4.03,-3.38 -3.57,-3.81 -3.11,-4.25 -2.55,-4.56 -2.00,-4.87 -1.39,-5.04 -0.77,-5.21 -0.14,-5.22 0.49,-5.24 1.11,-5.11 1.73,-4.97 2.30,-4.69 2.87,-4.41 3.35,-4.00 3.84,-3.60 4.22,-3.08 4.59,-2.57 4.59,-2.57 L 4.59,-2.57 Z"></path></g><g transform="translate(413.5318603515625 418.31838807605516) rotate(0 5.05859375 7.7783203125)" stroke="none"><path fill="#da77f2" d="M 3.95,-3.38 Q 3.95,-3.38 5.25,-1.98 6.54,-0.57 8.24,1.35 9.94,3.27 11.39,5.38 12.84,7.48 14.45,10.92 16.06,14.37 16.09,15.35 16.13,16.33 15.85,17.27 15.56,18.21 15.00,19.01 14.43,19.81 13.64,20.39 12.84,20.97 11.91,21.26 10.97,21.55 9.99,21.54 9.01,21.52 8.09,21.18 7.16,20.85 6.40,20.24 5.63,19.63 5.09,18.81 4.56,17.99 4.31,17.04 4.07,16.09 4.14,15.11 4.22,14.13 4.60,13.22 4.98,12.32 5.63,11.59 6.28,10.85 7.13,10.36 7.98,9.87 8.94,9.68 9.91,9.49 10.88,9.62 11.85,9.74 12.73,10.17 13.62,10.60 14.32,11.29 15.01,11.98 15.46,12.86 15.90,13.73 16.04,14.70 16.18,15.67 16.00,16.64 15.82,17.60 15.34,18.46 14.86,19.32 14.14,19.98 13.41,20.64 12.51,21.03 11.62,21.43 10.64,21.51 9.66,21.60 8.71,21.37 7.75,21.14 6.92,20.62 6.09,20.09 5.47,19.33 4.85,18.57 4.51,17.65 4.16,16.73 4.16,16.74 4.16,16.74 2.71,13.60 1.25,10.46 -0.16,8.42 -1.59,6.37 -2.77,4.87 -3.95,3.38 -4.30,2.85 -4.65,2.33 -4.86,1.74 -5.07,1.15 -5.14,0.53 -5.20,-0.09 -5.11,-0.71 -5.03,-1.33 -4.79,-1.91 -4.56,-2.50 -4.20,-3.01 -3.83,-3.52 -3.35,-3.92 -2.88,-4.33 -2.31,-4.61 -1.75,-4.90 -1.14,-5.03 -0.53,-5.17 0.09,-5.16 0.71,-5.15 1.32,-4.99 1.93,-4.83 2.48,-4.53 3.03,-4.23 3.49,-3.80 3.95,-3.38 3.95,-3.38 L 3.95,-3.38 Z"></path></g><g transform="translate(26.88153076171875 281.9251385643364) rotate(0 185.62173461914062 33.02247619628906)" stroke="none"><path fill="#da77f2" d="M -5.34,0 Q -5.34,0 -5.41,-1.76 -5.48,-3.53 -5.61,-6.14 -5.75,-8.74 -5.91,-11.99 -6.07,-15.24 -6.15,-17.76 -6.23,-20.28 -6.01,-22.47 -5.79,-24.66 -5.41,-27.39 -5.04,-30.13 -4.42,-33.36 -3.80,-36.59 -3.03,-39.09 -2.25,-41.59 -1.25,-44.42 -0.25,-47.26 0.55,-49.57 1.35,-51.88 2.78,-54.65 4.21,-57.43 5.22,-59.71 6.23,-62.00 7.34,-64.66 8.44,-67.33 9.58,-70.66 10.72,-73.99 12.23,-76.01 13.74,-78.03 16.35,-80.93 18.97,-83.82 21.57,-85.30 24.18,-86.78 26.17,-87.63 28.17,-88.48 30.44,-89.27 32.71,-90.06 35.15,-90.54 37.59,-91.02 39.97,-91.70 42.35,-92.38 44.75,-92.82 47.16,-93.27 49.52,-93.89 51.87,-94.50 54.03,-95.20 56.19,-95.89 58.98,-96.41 61.76,-96.93 64.00,-97.31 66.25,-97.69 68.84,-98.20 71.42,-98.70 74.05,-99.23 76.68,-99.75 79.50,-100.13 82.33,-100.50 85.52,-100.73 88.70,-100.96 91.39,-100.99 94.08,-101.02 97.18,-101.05 100.29,-101.08 102.72,-100.78 105.15,-100.48 107.76,-100.17 110.38,-99.85 112.91,-99.78 115.45,-99.71 117.98,-99.69 120.51,-99.67 123.94,-99.40 127.36,-99.12 130.40,-98.73 133.43,-98.35 136.98,-97.36 140.52,-96.37 142.56,-95.53 144.59,-94.70 147.11,-93.88 149.64,-93.07 152.18,-91.83 154.71,-90.59 157.34,-89.15 159.97,-87.71 162.02,-86.74 164.08,-85.78 167.87,-83.84 171.66,-81.90 174.63,-79.69 177.60,-77.49 180.71,-75.21 183.81,-72.93 186.25,-71.41 188.69,-69.88 192.44,-67.86 196.20,-65.84 199.78,-64.00 203.36,-62.17 206.52,-60.36 209.67,-58.56 212.23,-56.53 214.79,-54.50 216.90,-52.56 219.01,-50.63 220.94,-48.82 222.86,-47.01 225.04,-44.34 227.23,-41.66 228.89,-38.98 230.55,-36.29 232.10,-34.42 233.65,-32.55 235.44,-30.01 237.22,-27.47 239.77,-23.92 242.32,-20.37 243.62,-18.33 244.92,-16.29 246.14,-14.30 247.35,-12.31 249.98,-8.45 252.61,-4.59 253.95,-2.74 255.30,-0.89 256.77,0.80 258.25,2.51 259.84,4.44 261.42,6.36 263.10,8.45 264.77,10.54 267.16,14.26 269.54,17.98 271.39,20.19 273.25,22.39 274.81,24.23 276.37,26.06 277.63,27.84 278.90,29.62 280.62,31.39 282.34,33.15 284.63,35.82 286.91,38.49 288.68,40.89 290.46,43.28 292.33,46.44 294.20,49.59 295.49,51.94 296.78,54.28 297.90,56.46 299.02,58.64 300.07,60.75 301.12,62.87 302.25,65.10 303.37,67.34 304.98,69.81 306.59,72.28 307.67,74.12 308.75,75.96 310.80,79.76 312.84,83.55 314.39,86.38 315.94,89.20 317.65,92.01 319.37,94.81 321.46,97.67 323.54,100.53 324.71,102.40 325.88,104.28 327.97,107.44 330.06,110.59 331.68,112.42 333.30,114.26 334.48,116.05 335.65,117.85 337.03,120.12 338.40,122.39 340.13,124.45 341.85,126.50 343.85,129.19 345.85,131.88 347.66,133.69 349.47,135.49 351.59,136.91 353.70,138.33 355.55,139.40 357.40,140.47 359.73,142.14 362.06,143.81 364.78,145.33 367.50,146.86 369.88,148.38 372.26,149.91 375.09,153.31 377.93,156.70 378.29,157.86 378.66,159.02 378.63,160.23 378.60,161.44 378.19,162.58 377.77,163.72 377.02,164.67 376.26,165.61 375.25,166.27 374.23,166.93 373.05,167.23 371.88,167.52 370.67,167.43 369.46,167.34 368.35,166.86 367.23,166.39 366.33,165.58 365.42,164.78 364.82,163.73 364.22,162.67 363.99,161.48 363.75,160.30 363.91,159.09 364.07,157.89 364.60,156.80 365.14,155.72 365.99,154.86 366.84,154.00 367.93,153.45 369.01,152.91 370.21,152.74 371.41,152.57 372.60,152.80 373.79,153.02 374.85,153.61 375.91,154.20 376.72,155.10 377.53,156.00 378.02,157.11 378.50,158.22 378.60,159.43 378.71,160.64 378.42,161.81 378.13,162.99 377.48,164.01 376.83,165.04 375.89,165.80 374.95,166.57 373.82,166.99 372.68,167.41 371.47,167.45 370.26,167.49 369.10,167.14 367.94,166.78 366.95,166.08 365.96,165.38 365.25,164.40 364.54,163.42 364.54,163.42 364.54,163.42 364.04,162.55 363.54,161.69 361.05,160.24 358.55,158.78 356.09,157.34 353.62,155.89 351.86,154.43 350.10,152.97 348.27,151.84 346.44,150.70 344.01,149.23 341.57,147.76 339.50,145.70 337.43,143.65 335.62,141.36 333.80,139.07 332.34,137.22 330.88,135.38 329.57,133.53 328.27,131.67 326.32,128.63 324.37,125.58 322.76,123.32 321.15,121.07 319.41,118.48 317.68,115.90 316.39,114.05 315.11,112.20 313.32,109.27 311.53,106.34 309.80,103.73 308.06,101.11 306.56,98.56 305.06,96.01 303.92,94.14 302.77,92.27 301.33,89.13 299.88,85.98 297.86,82.83 295.83,79.67 294.36,77.63 292.89,75.59 291.75,73.37 290.61,71.15 289.47,68.87 288.34,66.59 287.33,64.25 286.32,61.90 285.36,59.66 284.40,57.42 283.22,55.04 282.05,52.67 280.40,50.00 278.75,47.34 277.50,45.17 276.24,43.00 274.11,40.50 271.98,38.00 270.23,35.21 268.48,32.42 267.11,30.62 265.74,28.83 263.68,26.46 261.63,24.09 258.77,21.02 255.90,17.95 254.16,15.94 252.41,13.93 250.89,12.17 249.38,10.40 247.52,8.36 245.67,6.32 244.12,4.32 242.58,2.32 241.16,0.36 239.75,-1.59 238.25,-3.60 236.76,-5.61 235.57,-7.42 234.39,-9.23 231.97,-12.67 229.56,-16.11 227.04,-19.25 224.53,-22.39 222.91,-24.79 221.29,-27.18 219.82,-29.56 218.34,-31.95 216.92,-34.02 215.50,-36.10 213.91,-37.96 212.32,-39.82 210.52,-41.71 208.71,-43.61 206.81,-45.53 204.91,-47.46 202.82,-49.11 200.73,-50.75 197.77,-52.63 194.81,-54.51 191.00,-56.64 187.20,-58.78 185.25,-59.94 183.31,-61.11 180.82,-62.60 178.32,-64.10 174.77,-65.96 171.23,-67.81 168.46,-69.39 165.69,-70.97 162.34,-72.66 159.00,-74.35 156.72,-75.31 154.43,-76.27 151.80,-77.38 149.17,-78.49 146.00,-79.71 142.84,-80.93 139.98,-82.00 137.12,-83.06 133.11,-84.00 129.11,-84.95 126.15,-85.20 123.19,-85.46 120.61,-85.46 118.03,-85.45 115.31,-85.47 112.58,-85.49 109.54,-85.87 106.49,-86.25 103.76,-86.45 101.04,-86.65 98.74,-86.81 96.44,-86.98 94.13,-86.98 91.81,-86.97 89.46,-86.91 87.10,-86.86 84.43,-86.47 81.75,-86.08 78.97,-85.65 76.18,-85.22 74.05,-84.84 71.91,-84.47 68.97,-83.78 66.04,-83.09 63.31,-82.69 60.58,-82.29 58.24,-81.53 55.89,-80.78 53.21,-80.05 50.53,-79.31 47.17,-78.59 43.81,-77.87 41.15,-77.13 38.49,-76.39 35.92,-75.69 33.34,-75.00 30.74,-73.86 28.13,-72.71 26.56,-70.90 24.98,-69.08 23.84,-66.97 22.70,-64.87 21.63,-62.39 20.55,-59.92 19.42,-57.34 18.30,-54.76 16.74,-51.82 15.18,-48.88 14.05,-46.74 12.91,-44.60 12.18,-42.48 11.45,-40.35 10.42,-37.93 9.38,-35.51 8.75,-33.43 8.11,-31.35 7.66,-28.70 7.20,-26.04 6.72,-23.15 6.23,-20.27 6.15,-17.75 6.07,-15.24 5.91,-11.99 5.75,-8.74 5.61,-6.14 5.48,-3.53 5.41,-1.76 5.34,0 5.26,0.63 5.18,1.27 4.95,1.88 4.73,2.48 4.36,3.01 3.99,3.54 3.51,3.96 3.03,4.39 2.46,4.69 1.89,4.99 1.26,5.14 0.64,5.30 -0.00,5.30 -0.64,5.30 -1.26,5.14 -1.89,4.99 -2.46,4.69 -3.03,4.39 -3.51,3.96 -3.99,3.54 -4.36,3.01 -4.73,2.48 -4.95,1.88 -5.18,1.27 -5.26,0.63 -5.34,-0.00 -5.34,-0.00 L -5.34,0 Z"></path></g><g transform="translate(185.09765625 83.82293519519578) rotate(0 136.1929931640625 12.962249755859375)" stroke="none"><path fill="#da77f2" d="M -3.49,-3.91 Q -3.49,-3.91 -1.72,-5.53 0.04,-7.14 1.69,-8.57 3.35,-9.99 6.65,-12.79 9.95,-15.58 11.82,-16.83 13.69,-18.09 17.00,-20.38 20.31,-22.67 22.13,-23.82 23.95,-24.96 26.96,-26.87 29.97,-28.77 32.50,-30.61 35.04,-32.45 38.59,-34.39 42.14,-36.33 45.83,-37.90 49.53,-39.46 53.79,-40.85 58.05,-42.23 61.67,-43.09 65.30,-43.96 69.29,-44.59 73.29,-45.22 77.06,-45.52 80.82,-45.82 83.17,-45.92 85.51,-46.02 87.77,-46.05 90.02,-46.07 93.94,-46.11 97.85,-46.15 101.56,-46.17 105.27,-46.19 108.85,-46.21 112.43,-46.23 116.69,-45.99 120.96,-45.75 125.30,-45.37 129.65,-44.99 133.86,-44.61 138.07,-44.23 140.24,-43.89 142.41,-43.55 146.55,-43.14 150.70,-42.73 153.02,-42.37 155.34,-42.02 158.00,-41.37 160.66,-40.73 162.86,-40.28 165.05,-39.84 167.50,-39.17 169.95,-38.49 172.12,-37.77 174.30,-37.04 178.31,-35.61 182.31,-34.18 184.31,-33.44 186.32,-32.69 188.68,-31.69 191.05,-30.68 193.29,-29.55 195.53,-28.41 199.71,-26.58 203.89,-24.76 207.57,-23.17 211.25,-21.57 214.40,-20.11 217.56,-18.65 220.11,-17.04 222.65,-15.43 224.94,-13.96 227.22,-12.50 229.19,-11.00 231.16,-9.51 233.28,-7.88 235.41,-6.25 236.96,-4.16 238.51,-2.07 239.93,0.04 241.34,2.16 242.94,3.81 244.54,5.46 246.39,7.28 248.24,9.10 249.89,10.70 251.53,12.29 252.88,14.63 254.24,16.96 256.22,18.82 258.19,20.68 259.84,23.79 261.49,26.91 262.70,29.17 263.92,31.42 265.08,33.72 266.24,36.01 267.54,38.56 268.84,41.12 270.27,43.12 271.69,45.12 273.35,47.13 275.01,49.15 276.07,52.10 277.13,55.05 278.26,58.02 279.38,61.00 279.57,63.37 279.75,65.73 279.58,66.91 279.41,68.09 278.88,69.16 278.34,70.22 277.49,71.06 276.64,71.90 275.56,72.42 274.49,72.94 273.31,73.09 272.13,73.24 270.96,73.01 269.79,72.78 268.75,72.18 267.72,71.59 266.93,70.69 266.14,69.80 265.67,68.70 265.21,67.60 265.12,66.41 265.04,65.22 265.33,64.06 265.63,62.91 266.28,61.91 266.93,60.91 267.87,60.17 268.80,59.43 269.92,59.02 271.05,58.62 272.24,58.60 273.43,58.58 274.57,58.93 275.71,59.29 276.67,60.00 277.64,60.70 278.32,61.67 279.01,62.65 279.35,63.79 279.70,64.94 279.65,66.13 279.61,67.32 279.19,68.44 278.77,69.55 278.02,70.48 277.26,71.40 276.25,72.04 275.24,72.67 274.08,72.95 272.92,73.23 271.73,73.12 270.55,73.02 269.45,72.54 268.36,72.06 267.48,71.25 266.60,70.45 266.02,69.41 265.44,68.36 265.22,67.19 265.01,66.02 265.01,66.02 265.01,66.02 264.31,63.29 263.61,60.56 262.07,57.57 260.54,54.58 258.92,52.05 257.31,49.51 255.90,46.92 254.48,44.33 253.37,42.15 252.27,39.96 251.13,37.81 249.99,35.65 248.84,33.41 247.69,31.16 246.03,28.94 244.38,26.72 242.81,24.42 241.25,22.12 239.76,20.57 238.27,19.03 236.34,17.02 234.41,15.01 232.69,13.10 230.97,11.19 229.07,8.39 227.18,5.59 225.99,3.67 224.80,1.74 222.82,0.21 220.84,-1.31 218.87,-2.64 216.90,-3.97 215.20,-5.33 213.49,-6.70 211.38,-8.01 209.26,-9.31 206.18,-10.85 203.09,-12.39 201.05,-13.27 199.01,-14.16 196.96,-15.09 194.92,-16.01 190.74,-17.90 186.57,-19.78 182.48,-21.37 178.39,-22.96 174.44,-24.40 170.49,-25.84 166.64,-27.02 162.78,-28.21 160.38,-28.66 157.99,-29.11 155.80,-29.58 153.61,-30.05 151.45,-30.34 149.29,-30.64 147.12,-30.87 144.96,-31.09 142.77,-31.26 140.58,-31.43 136.80,-31.97 133.02,-32.50 128.68,-32.82 124.34,-33.13 122.01,-33.22 119.69,-33.30 116.06,-33.49 112.43,-33.67 108.85,-33.69 105.28,-33.70 101.59,-33.72 97.90,-33.73 94.09,-33.71 90.27,-33.70 86.28,-33.54 82.29,-33.38 80.00,-33.10 77.72,-32.83 74.64,-32.69 71.56,-32.55 68.17,-31.81 64.78,-31.08 61.31,-30.26 57.84,-29.45 54.28,-28.00 50.72,-26.56 47.64,-25.22 44.56,-23.89 41.86,-22.19 39.15,-20.49 36.11,-18.57 33.06,-16.65 29.80,-14.80 26.54,-12.94 23.19,-10.78 19.85,-8.61 16.69,-6.57 13.54,-4.53 10.32,-1.87 7.10,0.77 5.29,2.34 3.49,3.91 2.97,4.27 2.45,4.63 1.86,4.86 1.27,5.09 0.64,5.16 0.01,5.24 -0.61,5.17 -1.24,5.09 -1.83,4.87 -2.42,4.65 -2.94,4.29 -3.46,3.93 -3.88,3.46 -4.30,2.99 -4.60,2.43 -4.90,1.87 -5.05,1.26 -5.20,0.64 -5.20,0.01 -5.21,-0.61 -5.06,-1.23 -4.91,-1.84 -4.61,-2.40 -4.32,-2.96 -3.90,-3.44 -3.49,-3.91 -3.49,-3.91 L -3.49,-3.91 Z"></path></g><g transform="translate(219.55401611328125 128.85223207019578) rotate(0 76.9384765625 11.137710571289062)" stroke="none"><path fill="#da77f2" d="M -3.06,-4.24 Q -3.06,-4.24 -0.93,-5.79 1.20,-7.33 3.08,-8.57 4.95,-9.80 8.40,-11.97 11.84,-14.15 15.92,-15.89 20.00,-17.64 24.02,-19.17 28.05,-20.70 31.52,-21.93 35.00,-23.16 37.97,-24.29 40.94,-25.42 44.22,-26.49 47.51,-27.55 50.84,-28.38 54.18,-29.21 58.13,-29.84 62.08,-30.46 65.12,-30.62 68.15,-30.77 70.91,-30.84 73.67,-30.90 76.22,-30.64 78.77,-30.39 81.15,-30.10 83.54,-29.81 86.52,-29.02 89.51,-28.23 92.09,-27.19 94.67,-26.15 96.79,-25.54 98.91,-24.93 101.93,-23.80 104.95,-22.68 106.96,-21.75 108.97,-20.83 111.34,-19.92 113.70,-19.02 116.63,-17.50 119.56,-15.98 121.41,-14.90 123.26,-13.81 125.95,-12.30 128.64,-10.78 131.07,-9.00 133.51,-7.21 135.20,-5.65 136.90,-4.08 138.60,-2.36 140.30,-0.64 141.78,1.47 143.26,3.58 144.42,5.46 145.58,7.34 146.88,9.03 148.19,10.72 150.04,13.30 151.89,15.88 153.49,18.24 155.10,20.60 156.29,22.53 157.48,24.47 158.16,26.60 158.84,28.73 159.62,31.92 160.40,35.11 160.73,37.57 161.07,40.02 161.21,43.34 161.34,46.65 161.15,47.85 160.96,49.04 160.39,50.11 159.83,51.18 158.95,52.01 158.08,52.84 156.98,53.35 155.89,53.86 154.68,54.00 153.48,54.13 152.30,53.87 151.12,53.61 150.08,52.99 149.05,52.37 148.26,51.45 147.48,50.53 147.03,49.41 146.58,48.29 146.51,47.08 146.44,45.88 146.76,44.71 147.08,43.54 147.76,42.54 148.44,41.54 149.40,40.81 150.36,40.07 151.50,39.69 152.65,39.30 153.86,39.30 155.07,39.29 156.21,39.68 157.36,40.06 158.32,40.79 159.29,41.52 159.97,42.52 160.65,43.52 160.97,44.68 161.30,45.85 161.23,47.05 161.17,48.26 160.73,49.38 160.28,50.51 159.50,51.43 158.72,52.35 157.69,52.98 156.65,53.60 155.47,53.87 154.29,54.13 153.09,54.00 151.89,53.87 150.79,53.37 149.69,52.86 148.81,52.03 147.93,51.20 147.36,50.13 146.80,49.07 146.60,47.87 146.40,46.68 146.40,46.68 146.40,46.68 146.41,44.53 146.42,42.38 146.47,39.92 146.51,37.46 145.50,34.30 144.48,31.14 143.38,29.30 142.29,27.47 140.75,25.22 139.22,22.97 137.46,20.52 135.69,18.06 133.85,15.66 132.01,13.26 130.97,11.40 129.94,9.54 127.75,7.38 125.57,5.23 123.82,3.81 122.07,2.40 120.35,1.07 118.62,-0.26 116.33,-1.47 114.04,-2.68 111.72,-4.00 109.40,-5.31 106.78,-6.44 104.16,-7.57 101.39,-8.85 98.62,-10.13 96.14,-10.94 93.66,-11.75 90.72,-12.91 87.79,-14.07 85.39,-15.22 83.00,-16.36 80.36,-16.78 77.73,-17.20 74.48,-17.55 71.23,-17.91 68.48,-17.92 65.72,-17.92 63.06,-17.80 60.40,-17.68 57.17,-16.98 53.93,-16.28 51.01,-15.60 48.10,-14.92 45.02,-13.87 41.94,-12.81 38.54,-11.75 35.14,-10.69 31.53,-9.54 27.92,-8.40 24.10,-6.99 20.27,-5.59 17.15,-4.23 14.04,-2.88 10.69,-0.85 7.34,1.17 5.20,2.70 3.06,4.24 2.51,4.55 1.95,4.85 1.34,5.01 0.74,5.18 0.10,5.19 -0.52,5.20 -1.13,5.07 -1.75,4.93 -2.31,4.65 -2.88,4.37 -3.36,3.96 -3.84,3.55 -4.21,3.04 -4.58,2.52 -4.82,1.94 -5.05,1.35 -5.14,0.73 -5.23,0.10 -5.17,-0.51 -5.10,-1.14 -4.89,-1.74 -4.68,-2.33 -4.33,-2.86 -3.99,-3.38 -3.52,-3.81 -3.06,-4.24 -3.06,-4.24 L -3.06,-4.24 Z"></path></g><g transform="translate(156.37042236328125 240.16082582019578) rotate(0 79.63540649414062 12.843429565429688)" stroke="none"><path fill="#da77f2" d="M -5.00,-1.84 Q -5.00,-1.84 -4.31,-3.86 -3.61,-5.89 -2.74,-8.58 -1.87,-11.27 -0.78,-13.53 0.29,-15.79 1.31,-17.77 2.32,-19.74 3.82,-21.99 5.33,-24.23 8.29,-26.54 11.25,-28.85 13.88,-30.46 16.50,-32.07 20.12,-33.20 23.74,-34.34 26.22,-34.85 28.70,-35.36 31.93,-35.87 35.17,-36.38 37.57,-36.43 39.98,-36.49 43.11,-36.26 46.25,-36.03 48.92,-35.69 51.59,-35.35 54.43,-34.99 57.28,-34.63 60.39,-33.91 63.50,-33.20 66.21,-32.47 68.92,-31.73 71.45,-30.97 73.99,-30.21 76.55,-29.53 79.11,-28.84 82.17,-27.74 85.24,-26.64 87.94,-25.91 90.64,-25.18 93.76,-24.07 96.88,-22.96 99.41,-22.20 101.95,-21.45 104.45,-20.69 106.95,-19.93 109.43,-19.22 111.92,-18.51 114.26,-17.69 116.59,-16.88 119.03,-15.79 121.47,-14.69 123.83,-13.53 126.18,-12.37 128.14,-10.91 130.09,-9.46 131.63,-7.99 133.18,-6.51 135.43,-4.20 137.69,-1.90 139.62,0.63 141.56,3.17 143.22,6.48 144.88,9.78 146.22,12.40 147.56,15.02 148.96,17.60 150.36,20.17 151.47,22.25 152.57,24.34 153.84,26.10 155.11,27.85 156.58,30.31 158.04,32.77 159.20,34.99 160.36,37.21 161.38,39.30 162.40,41.39 163.54,43.95 164.68,46.52 165.69,50.82 166.70,55.11 166.54,56.31 166.39,57.50 165.86,58.58 165.34,59.66 164.49,60.52 163.65,61.38 162.57,61.92 161.50,62.46 160.31,62.63 159.12,62.80 157.94,62.59 156.75,62.37 155.70,61.78 154.65,61.20 153.84,60.31 153.03,59.42 152.55,58.32 152.06,57.22 151.96,56.02 151.85,54.82 152.13,53.65 152.41,52.48 153.05,51.46 153.69,50.44 154.63,49.68 155.56,48.92 156.69,48.50 157.81,48.08 159.01,48.04 160.22,47.99 161.37,48.34 162.52,48.68 163.50,49.38 164.49,50.07 165.20,51.05 165.90,52.02 166.27,53.16 166.63,54.31 166.60,55.52 166.58,56.72 166.17,57.85 165.77,58.98 165.02,59.93 164.27,60.87 163.26,61.52 162.25,62.18 161.09,62.48 159.92,62.78 158.72,62.69 157.52,62.60 156.41,62.13 155.31,61.66 154.40,60.87 153.50,60.07 152.90,59.03 152.30,57.98 152.07,56.80 151.83,55.62 151.83,55.62 151.83,55.63 151.46,54.12 151.08,52.61 149.92,49.87 148.76,47.14 147.80,44.82 146.83,42.50 145.81,40.62 144.78,38.74 143.79,36.84 142.80,34.94 141.35,32.97 139.90,30.99 138.82,28.79 137.75,26.59 136.62,24.38 135.50,22.17 134.30,19.89 133.11,17.61 132.14,15.29 131.16,12.97 129.45,10.51 127.74,8.05 125.47,5.84 123.19,3.63 121.50,1.91 119.82,0.19 117.32,-1.12 114.83,-2.44 112.45,-3.53 110.07,-4.61 107.88,-5.32 105.68,-6.03 103.11,-6.80 100.54,-7.58 97.90,-8.36 95.26,-9.14 92.32,-10.09 89.37,-11.04 86.68,-11.90 83.98,-12.77 80.92,-13.79 77.86,-14.82 75.29,-15.54 72.73,-16.25 70.18,-17.01 67.63,-17.77 65.08,-18.49 62.53,-19.21 60.03,-19.87 57.53,-20.52 55.10,-21.02 52.68,-21.52 49.91,-21.88 47.13,-22.23 43.60,-22.54 40.06,-22.85 36.65,-22.82 33.24,-22.78 31.07,-22.45 28.90,-22.11 26.80,-21.72 24.70,-21.34 22.57,-20.41 20.44,-19.49 17.69,-17.80 14.94,-16.11 13.33,-13.97 11.72,-11.83 10.19,-9.37 8.66,-6.91 7.62,-4.53 6.57,-2.14 5.78,-0.15 5.00,1.84 4.71,2.41 4.41,2.98 3.99,3.47 3.57,3.95 3.05,4.32 2.52,4.69 1.92,4.93 1.32,5.16 0.69,5.24 0.05,5.33 -0.58,5.26 -1.22,5.19 -1.82,4.96 -2.43,4.74 -2.96,4.38 -3.49,4.02 -3.92,3.55 -4.35,3.07 -4.66,2.50 -4.96,1.94 -5.12,1.31 -5.28,0.69 -5.29,0.05 -5.30,-0.59 -5.15,-1.21 -5.00,-1.84 -5.00,-1.84 L -5.00,-1.84 Z"></path></g></svg>