<svg version="1.1" xmlns="http://www.w3.org/2000/svg" viewBox="0 0 452.75538765591875 580.3580474853516" width="452.75538765591875" height="580.3580474853516" class="excalidraw-svg"><!-- svg-source:excalidraw --><metadata></metadata><defs><style class="style-fonts">
      </style></defs><rect x="0" y="0" width="452.75538765591875" height="580.3580474853516" fill="#ffffff"></rect><g stroke-linecap="round"><g transform="translate(43.73584478017568 310.68031503252314) rotate(0 199.50977143787154 0)"><path d="M0 0 C124.5 0, 248.99 0, 399.02 0 M0 0 C98.14 0, 196.28 0, 399.02 0" stroke="#000000" stroke-width="4" fill="none"></path></g><g transform="translate(43.73584478017568 310.68031503252314) rotate(0 199.50977143787154 0)"><path d="M375.53 8.55 C382.86 5.88, 390.19 3.21, 399.02 0 M375.53 8.55 C381.31 6.45, 387.08 4.34, 399.02 0" stroke="#000000" stroke-width="4" fill="none"></path></g><g transform="translate(43.73584478017568 310.68031503252314) rotate(0 199.50977143787154 0)"><path d="M375.53 -8.55 C382.86 -5.88, 390.19 -3.21, 399.02 0 M375.53 -8.55 C381.31 -6.45, 387.08 -4.34, 399.02 0" stroke="#000000" stroke-width="4" fill="none"></path></g></g><mask></mask><g stroke-linecap="round"><g transform="translate(42.91858301927954 310.6672897338867) rotate(270 199.50977143787154 0)"><path d="M0 0 C102.29 0, 204.57 0, 399.02 0 M0 0 C147.09 0, 294.18 0, 399.02 0" stroke="#000000" stroke-width="4" fill="none"></path></g><g transform="translate(42.91858301927954 310.6672897338867) rotate(270 199.50977143787154 0)"><path d="M375.53 8.55 C381.55 6.36, 387.57 4.17, 399.02 0 M375.53 8.55 C384.19 5.4, 392.85 2.25, 399.02 0" stroke="#000000" stroke-width="4" fill="none"></path></g><g transform="translate(42.91858301927954 310.6672897338867) rotate(270 199.50977143787154 0)"><path d="M375.53 -8.55 C381.55 -6.36, 387.57 -4.17, 399.02 0 M375.53 -8.55 C384.19 -5.4, 392.85 -2.25, 399.02 0" stroke="#000000" stroke-width="4" fill="none"></path></g></g><mask></mask><g stroke-linecap="round"><g transform="translate(43.73584478017568 310.6672897338867) rotate(0 199.50977143787154 0)"><path d="M0 0 C144.26 0, 288.52 0, 399.02 0 M0 0 C139.07 0, 278.14 0, 399.02 0" stroke="#000000" stroke-width="4" fill="none"></path></g><g transform="translate(43.73584478017568 310.6672897338867) rotate(0 199.50977143787154 0)"><path d="M375.53 8.55 C384.02 5.46, 392.51 2.37, 399.02 0 M375.53 8.55 C383.72 5.57, 391.9 2.59, 399.02 0" stroke="#000000" stroke-width="4" fill="none"></path></g><g transform="translate(43.73584478017568 310.6672897338867) rotate(0 199.50977143787154 0)"><path d="M375.53 -8.55 C384.02 -5.46, 392.51 -2.37, 399.02 0 M375.53 -8.55 C383.72 -5.57, 391.9 -2.59, 399.02 0" stroke="#000000" stroke-width="4" fill="none"></path></g></g><mask></mask><g stroke-linecap="round"><g transform="translate(240.9897263254691 311.64060974121094) rotate(0 -115.20367541851941 99.76120717783458)"><path d="M0.58 0.65 C-37.82 33.8, -191.61 165.16, -230.19 198.06 M-0.57 -0.06 C-39.13 33.38, -192.43 166.35, -230.99 199.58" stroke="#1e1e1e" stroke-width="2" fill="none"></path></g><g transform="translate(240.9897263254691 311.64060974121094) rotate(0 -115.20367541851941 99.76120717783458)"><path d="M-218.82 177.74 C-221.79 185.27, -226.81 191.04, -230.99 199.58 M-218.82 177.74 C-221.66 184.77, -225.58 190.03, -230.99 199.58" stroke="#1e1e1e" stroke-width="2" fill="none"></path></g><g transform="translate(240.9897263254691 311.64060974121094) rotate(0 -115.20367541851941 99.76120717783458)"><path d="M-207.63 190.68 C-214.09 194.12, -222.68 195.76, -230.99 199.58 M-207.63 190.68 C-213.89 193.78, -221.13 195.2, -230.99 199.58" stroke="#1e1e1e" stroke-width="2" fill="none"></path></g></g><mask></mask><g stroke-linecap="round"><g transform="translate(125.96696021218784 52.666015625) rotate(0 123.54135080497245 96.87104981994258)"><path d="M-1.02 0 C6.85 29.79, 19.9 148.1, 47.25 179.19 C74.6 210.27, 129.62 218.24, 163.07 186.52 C196.53 154.8, 233.73 21.8, 247.99 -11.13 M0.65 -1.05 C8.31 28.36, 18.99 145.97, 46 177.44 C73.01 208.9, 129 219.5, 162.68 187.73 C196.37 155.96, 233.98 20.39, 248.1 -13.19" stroke="#1e1e1e" stroke-width="2" fill="none"></path></g></g><mask></mask><g stroke-linecap="round"><g transform="translate(91.69285132546909 539.9837188720703) rotate(0 146.9804970525857 -103.82065040288627)"><path d="M0.31 -0.27 C11.71 -29.22, 34.48 -140.82, 68.9 -172.57 C103.32 -204.32, 169.21 -217.84, 206.84 -190.79 C244.46 -163.74, 280.01 -40.49, 294.62 -10.26 M-0.98 -1.45 C10.32 -30.26, 33.97 -142.62, 68.58 -174.47 C103.19 -206.33, 168.95 -220.16, 206.67 -192.59 C244.4 -165.02, 280.55 -39.12, 294.95 -9.04" stroke="#1e1e1e" stroke-width="2" fill="none"></path></g></g><mask></mask><g stroke-linecap="round" transform="translate(120.68375708718784 10) rotate(0 122.92315673828125 34.108062744140625)"><path d="M121.24 -0.73 C136.17 -1.29, 153.37 0.31, 167.86 2.11 C182.35 3.9, 196.78 6.94, 208.18 10.01 C219.59 13.09, 230.09 16.6, 236.3 20.57 C242.52 24.55, 245.23 29.52, 245.46 33.86 C245.7 38.21, 243.42 42.52, 237.72 46.64 C232.02 50.76, 222.33 55.61, 211.26 58.59 C200.19 61.58, 185.75 62.87, 171.27 64.57 C156.8 66.27, 139.8 68.73, 124.4 68.79 C109.01 68.84, 93.2 66.7, 78.9 64.92 C64.6 63.15, 49.93 61.14, 38.6 58.16 C27.27 55.17, 17.19 50.85, 10.9 47.01 C4.61 43.18, 1.4 39.48, 0.86 35.16 C0.33 30.84, 2.24 25.32, 7.67 21.08 C13.1 16.84, 22.31 12.88, 33.44 9.72 C44.58 6.55, 58.62 3.88, 74.47 2.1 C90.31 0.32, 118.18 -0.83, 128.51 -0.96 C138.84 -1.09, 136.64 0.64, 136.43 1.32 M171.36 3.94 C185.61 4.72, 199.68 6.37, 210.77 9.03 C221.85 11.69, 232.03 15.69, 237.86 19.9 C243.7 24.11, 246.1 29.47, 245.79 34.29 C245.49 39.12, 242.08 44.9, 236.05 48.86 C230.02 52.81, 220.69 55.34, 209.62 58.03 C198.55 60.71, 184.46 63.24, 169.63 64.95 C154.8 66.66, 136.65 68.45, 120.65 68.31 C104.66 68.17, 87.79 65.61, 73.66 64.11 C59.53 62.61, 46.55 62.26, 35.86 59.3 C25.16 56.34, 15.5 50.46, 9.49 46.33 C3.49 42.21, 0 38.68, -0.16 34.55 C-0.33 30.43, 2.45 25.74, 8.49 21.57 C14.54 17.4, 24.77 12.55, 36.1 9.52 C47.43 6.48, 61.96 4.91, 76.45 3.36 C90.94 1.82, 107.46 0.32, 123.04 0.24 C138.61 0.15, 162.23 2.53, 169.88 2.86 C177.54 3.19, 169.55 1.51, 168.98 2.21" stroke="#e03131" stroke-width="2" fill="none"></path></g><g stroke-linecap="round" transform="translate(89.60630347390659 503.8183135986328) rotate(0 151.12466430664062 33.269866943359375)"><path d="M129.87 0.23 C146.71 -0.91, 168.03 -0.9, 185.51 0.14 C202.98 1.18, 219.87 4.19, 234.73 6.47 C249.59 8.75, 264.18 10.58, 274.69 13.8 C285.19 17.02, 293.5 21.69, 297.76 25.8 C302.01 29.92, 302.41 34.54, 300.21 38.47 C298.01 42.39, 293.33 45.95, 284.55 49.35 C275.77 52.74, 261.66 56.16, 247.53 58.86 C233.39 61.56, 216.84 64.14, 199.75 65.55 C182.65 66.97, 163.06 67.49, 144.96 67.34 C126.86 67.2, 107.73 66.3, 91.14 64.7 C74.54 63.09, 58.42 60.63, 45.38 57.7 C32.34 54.77, 20.45 50.84, 12.89 47.1 C5.34 43.35, 0.91 39.26, 0.07 35.22 C-0.77 31.19, 2.3 26.72, 7.86 22.87 C13.42 19.02, 22.03 15.07, 33.44 12.14 C44.86 9.21, 59.07 7.42, 76.34 5.3 C93.62 3.18, 125.52 0.26, 137.1 -0.59 C148.67 -1.44, 145.49 -0.46, 145.79 0.19 M173.64 -0.63 C191.11 -0.6, 209.26 1.34, 225.11 3.59 C240.97 5.84, 257.02 9.43, 268.76 12.88 C280.51 16.33, 290.12 20.62, 295.58 24.31 C301.04 28, 302.51 31.02, 301.52 35.04 C300.54 39.05, 297.1 44.9, 289.65 48.41 C282.2 51.93, 270.08 53.31, 256.8 56.11 C243.52 58.92, 226.89 63.69, 209.97 65.24 C193.05 66.8, 173.32 65.5, 155.3 65.45 C137.28 65.39, 118.87 66.27, 101.85 64.93 C84.84 63.59, 67.34 60.06, 53.2 57.41 C39.06 54.75, 25.92 52.4, 17.03 48.99 C8.14 45.59, 1.86 41.04, -0.16 36.97 C-2.18 32.9, 0.29 28.29, 4.92 24.56 C9.54 20.82, 17.43 17.64, 27.6 14.57 C37.77 11.49, 51.08 8.49, 65.94 6.12 C80.79 3.75, 98.58 1.34, 116.71 0.32 C134.85 -0.69, 165.28 0.04, 174.74 0.05 C184.21 0.05, 174.26 -0.06, 173.51 0.36" stroke="#e03131" stroke-width="2" fill="none"></path></g></svg>