<svg version="1.1" xmlns="http://www.w3.org/2000/svg" viewBox="0 0 546.8182410829651 309.0529888520484" width="546.8182410829651" height="309.0529888520484" class="excalidraw-svg"><!-- svg-source:excalidraw --><metadata></metadata><defs><style class="style-fonts">
      </style></defs><rect x="0" y="0" width="546.8182410829651" height="309.0529888520484" fill="#ffffff"></rect><g stroke-linecap="round"><g transform="translate(-5.678182156672733 234.3696204461587) rotate(349.0039550877686 256.8236380439112 -61.283387332914)"><path d="M0.53 0.37 C25.36 0.38, 115.68 35.37, 149.96 0.26 C184.24 -34.85, 192.86 -176.59, 206.22 -210.31 C219.58 -244.03, 226.03 -243.16, 230.13 -202.06 C234.23 -160.97, 187.31 -15.33, 230.82 36.25 C274.34 87.83, 445.87 96.13, 491.19 107.4 C536.51 118.67, 500.84 104.74, 502.75 103.88 M-0.65 -0.49 C23.91 -0.87, 114.53 33.13, 148.88 -1.73 C183.23 -36.58, 191.94 -176.43, 205.44 -209.6 C218.95 -242.77, 225.94 -241.72, 229.91 -200.72 C233.88 -159.73, 186.03 -14.9, 229.26 36.38 C272.49 87.65, 443.65 95.82, 489.3 106.94 C534.96 118.06, 501.18 104, 503.19 103.1" stroke="#1e1e1e" stroke-width="2" fill="none"></path></g></g><mask></mask></svg>