<svg version="1.1" xmlns="http://www.w3.org/2000/svg" viewBox="0 0 159.76200158819555 326.8028002927646" width="159.76200158819555" height="326.8028002927646" class="excalidraw-svg"><!-- svg-source:excalidraw --><metadata></metadata><defs><style class="style-fonts">
      </style></defs><rect x="0" y="0" width="159.76200158819555" height="326.8028002927646" fill="#ffffff"></rect><g stroke-linecap="round"><g transform="translate(34.49055303148924 10.823744718619395) rotate(0 57.4777036871761 0.24374174164840667)"><path d="M0.75 0.2 C19.87 0.32, 96.25 1.34, 115.27 1.31 M-0.32 -0.74 C18.59 -0.99, 95.22 -0.61, 114.24 -0.29" stroke="#1e1e1e" stroke-width="2" fill="none"></path></g></g><mask></mask><g stroke-linecap="round"><g transform="translate(28.64741338305174 61.64732259947877) rotate(0 59.654656096175316 1.0864580810722018)"><path d="M-0.3 0.47 C19.76 0.88, 99.46 2.16, 119.6 2.49 M1.75 -0.32 C21.68 -0.25, 98.75 0.69, 118.49 0.85" stroke="#1e1e1e" stroke-width="2" fill="none"></path></g></g><mask></mask><g stroke-linecap="round"><g transform="translate(29.46125615648924 110.46568197447877) rotate(0 53.685919139906765 1.3564099589735257)"><path d="M-0.97 0.46 C17.21 0.87, 90.13 1.31, 108.34 1.5 M0.72 -0.34 C18.79 0.35, 89.49 2.51, 107.27 3.06" stroke="#1e1e1e" stroke-width="2" fill="none"></path></g></g><mask></mask><g stroke-linecap="round"><g transform="translate(21.45997441820799 157.96568197447877) rotate(0 63.262914403313765 -0.6845624522212894)"><path d="M1.16 1.02 C22.1 0.74, 105.72 -0.18, 126.21 -0.63 M0.31 0.52 C21.14 0.4, 104.77 -2.21, 125.8 -2.39" stroke="#1e1e1e" stroke-width="2" fill="none"></path></g></g><mask></mask><g stroke-linecap="round"><g transform="translate(14.125990043207992 196.40318197447877) rotate(0 65.14365619234741 0.3658659774810076)"><path d="M-0.93 -1.14 C21 -1.02, 109.2 1.55, 131.22 1.87 M0.78 0.88 C22.53 1.13, 108.42 -0.16, 129.97 -0.03" stroke="#1e1e1e" stroke-width="2" fill="none"></path></g></g><mask></mask><g stroke-linecap="round"><g transform="translate(10.942396293207992 242.10954183776002) rotate(0 65.11351664848627 1.0349906425923123)"><path d="M-0.94 -0.81 C20.75 -0.41, 109.28 2.41, 131.17 2.88 M0.76 1.38 C22.2 1.36, 108.18 0.67, 130.2 0.95" stroke="#1e1e1e" stroke-width="2" fill="none"></path></g></g><mask></mask><g stroke-linecap="round"><g transform="translate(12.247694144770492 281.3998860760413) rotate(0 62.7922360163182 0.5878160473932894)"><path d="M-0.32 0.83 C20.48 0.9, 104.9 1.47, 125.91 1.4 M1.71 0.22 C22.24 -0.1, 104.35 -0.39, 124.85 -0.13" stroke="#1e1e1e" stroke-width="2" fill="none"></path></g></g><mask></mask><g stroke-linecap="round"><g transform="translate(10.646131644770492 313.5092610760413) rotate(0 63.962529488280424 1.0264739905856572)"><path d="M-0.38 -0.13 C21.18 0.21, 107.03 1.35, 128.3 1.82 M1.63 -1.24 C23.18 -0.69, 107 2.97, 127.8 3.29" stroke="#1e1e1e" stroke-width="2" fill="none"></path></g></g><mask></mask></svg>