<svg version="1.1" xmlns="http://www.w3.org/2000/svg" viewBox="0 0 496.0987172368215 231.40678655824627" width="496.0987172368215" height="231.40678655824627" class="excalidraw-svg"><!-- svg-source:excalidraw --><metadata></metadata><defs><style class="style-fonts">
      </style></defs><rect x="0" y="0" width="496.0987172368215" height="231.40678655824627" fill="#ffffff"></rect><g stroke-linecap="round"><g stroke-opacity="0.9" fill-opacity="0.9" transform="translate(425.5562606717693 131.68451658939944) rotate(0 30.44606952411588 0.09331080139334968)"><path d="M1.19 0.43 C11.23 0.4, 50.74 1.05, 60.54 0.92 M0.35 -0.4 C10.25 -0.23, 50.06 -0.91, 59.88 -0.72" stroke="#000000" stroke-width="2" fill="none"></path></g></g><mask></mask><g stroke-linecap="round"><g stroke-opacity="0.9" fill-opacity="0.9" transform="translate(265.5562606717693 111.68451658939944) rotate(0 46.21852366739973 0.18011282038951215)"><path d="M0.54 0.92 C15.86 0.76, 77.6 -0.32, 93.07 -0.56 M-0.63 0.36 C14.42 0.33, 76.58 0.73, 92.14 0.78" stroke="#000000" stroke-width="2" fill="none"></path></g></g><mask></mask><g stroke-linecap="round"><g stroke-opacity="0.9" fill-opacity="0.9" transform="translate(265.5562606717693 151.68451658939944) rotate(0 46.141493317601636 -0.3895406718827399)"><path d="M0.03 -0.38 C15.56 -0.62, 78.16 -0.65, 93.7 -0.52 M-1.41 -1.62 C13.93 -1.77, 77.27 0.85, 92.9 0.85" stroke="#000000" stroke-width="2" fill="none"></path></g></g><mask></mask><g stroke-linecap="round"><g stroke-opacity="0.9" fill-opacity="0.9" transform="translate(345.5562606717693 91.68451658939944) rotate(0 9.406885018048618 39.55660578737501)"><path d="M0.29 -0.33 C3.59 6.5, 19.7 27.09, 19.83 40.59 C19.96 54.09, 4.44 74.23, 1.08 80.67 M-1.02 -1.55 C2.11 4.96, 18.47 25.41, 18.79 38.78 C19.11 52.15, 4.05 71.82, 0.89 78.67" stroke="#000000" stroke-width="2" fill="none"></path></g></g><mask></mask><g stroke-linecap="round"><g stroke-opacity="0.9" fill-opacity="0.9" transform="translate(345.5562606717693 91.68451658939944) rotate(0 38.99241574627813 19.579879082784977)"><path d="M-0.17 0.59 C6.88 1.43, 29.29 -1.73, 42.6 4.71 C55.91 11.14, 73.43 33.5, 79.7 39.2 M-1.72 -0.14 C5.24 0.38, 28.8 -3.77, 42.22 2.93 C55.64 9.64, 72.39 34.02, 78.78 40.1" stroke="#000000" stroke-width="2" fill="none"></path></g></g><mask></mask><g stroke-linecap="round"><g stroke-opacity="0.9" fill-opacity="0.9" transform="translate(345.5562606717693 171.68451658939944) rotate(0 40.20925800634082 -20.218638084083796)"><path d="M1.08 0.67 C7.65 -0.41, 26.01 1.11, 39.2 -5.85 C52.39 -12.81, 73.33 -35.57, 80.22 -41.1 M0.19 -0.03 C6.59 -1.02, 24.87 1.99, 38.1 -4.73 C51.33 -11.45, 72.41 -34.3, 79.58 -40.36" stroke="#000000" stroke-width="2" fill="none"></path></g></g><mask></mask><g stroke-linecap="round"><g stroke-opacity="0.9" fill-opacity="0.9" transform="translate(171.79571199824102 51.52792648102155) rotate(0 29.789076802879563 0.13888830620908976)"><path d="M-0.5 -0.94 C9.51 -0.95, 50.03 -0.56, 60.08 -0.4 M1.44 1.17 C11.29 1.37, 49.59 0.9, 59.17 0.92" stroke="#000000" stroke-width="2" fill="none"></path></g></g><mask></mask><g stroke-linecap="round"><g stroke-opacity="0.9" fill-opacity="0.9" transform="translate(11.795711998241018 31.527926481021552) rotate(0 39.21815197063145 -0.05549274603836096)"><path d="M0.08 -0.4 C13.46 -0.24, 66.54 0.14, 79.78 0.01 M-1.34 -1.66 C11.9 -1.21, 65.41 1.35, 78.72 1.55" stroke="#000000" stroke-width="2" fill="none"></path></g></g><mask></mask><g stroke-linecap="round"><g stroke-opacity="0.9" fill-opacity="0.9" transform="translate(11.795711998241018 71.52792648102155) rotate(0 38.85612072033342 -0.5859270907938487)"><path d="M-0.22 0.01 C13.02 -0.12, 66.22 -1.02, 79.51 -1.18 M-1.8 -1.03 C11.24 -1.03, 64.92 -0.42, 78.3 -0.26" stroke="#000000" stroke-width="2" fill="none"></path></g></g><mask></mask><g stroke-linecap="round"><g stroke-opacity="0.9" fill-opacity="0.9" transform="translate(91.79571199824102 11.527926481021552) rotate(0 -0.11565665398723013 39.470089355059905)"><path d="M-0.49 -1.18 C-0.54 12, -0.68 65.37, -0.48 79.07 M1.45 0.82 C1.23 14.12, -1.49 67.05, -1.68 80.12" stroke="#000000" stroke-width="2" fill="none"></path></g></g><mask></mask><g stroke-linecap="round"><g stroke-opacity="0.9" fill-opacity="0.9" transform="translate(91.79571199824102 11.527926481021552) rotate(0 20.051034175325185 0.06120564692420771)"><path d="M-0.22 -0.43 C6.54 -0.26, 33.54 0.42, 40.32 0.47 M0.67 0.54 C7.4 0.61, 33.44 -0.23, 40.06 -0.26" stroke="#000000" stroke-width="2" fill="none"></path></g></g><mask></mask><g stroke-linecap="round"><g stroke-opacity="0.9" fill-opacity="0.9" transform="translate(91.79571199824102 91.52792648102155) rotate(0 20.156310899985243 0.17079454332930766)"><path d="M0.32 0.47 C7.11 0.51, 33.92 0, 40.49 -0.14 M-0.18 0.23 C6.6 0.4, 33.74 0.52, 40.31 0.48" stroke="#000000" stroke-width="2" fill="none"></path></g></g><mask></mask><g stroke-linecap="round"><g stroke-opacity="0.9" fill-opacity="0.9" transform="translate(131.79571199824102 11.527926481021552) rotate(0 19.29032299019009 39.66791638289578)"><path d="M1.06 -0.32 C5.67 0.69, 22.32 -0.02, 28.34 7.03 C34.35 14.08, 37.56 31.12, 37.14 41.99 C36.72 52.86, 32.19 65.87, 25.83 72.25 C19.46 78.64, 3.45 79.08, -1.03 80.31 M0.16 -1.53 C5.11 0.13, 24.18 1.22, 30.73 8.13 C37.28 15.03, 40.33 29.1, 39.47 39.92 C38.61 50.74, 32.05 66.23, 25.58 73.05 C19.1 79.88, 4.91 79.97, 0.61 80.86" stroke="#000000" stroke-width="2" fill="none"></path></g></g><mask></mask><g stroke-linecap="round"><g stroke-opacity="0.9" fill-opacity="0.9" transform="translate(175.3216763651837 179.85604742603377) rotate(0 29.621876619011175 0.44941427963393465)"><path d="M-0.66 -0.87 C9.36 -0.93, 49.72 -0.22, 59.9 0.08 M1.2 1.29 C11.07 1.39, 49.12 2.02, 58.9 1.66" stroke="#000000" stroke-width="2" fill="none"></path></g></g><mask></mask><g stroke-linecap="round"><g stroke-opacity="0.9" fill-opacity="0.9" transform="translate(15.321676365183691 159.85604742603377) rotate(0 39.40677290869411 0.04080162183099567)"><path d="M-0.1 0.08 C13.41 0.39, 66.96 1.17, 80.43 0.97 M-1.61 -0.92 C11.84 -0.86, 66.05 -0.74, 79.7 -0.64" stroke="#000000" stroke-width="2" fill="none"></path></g></g><mask></mask><g stroke-linecap="round"><g stroke-opacity="0.9" fill-opacity="0.9" transform="translate(15.321676365183691 199.85604742603377) rotate(0 39.937458066171985 -0.06325968280435035)"><path d="M0.43 0.97 C13.89 0.77, 67.41 -0.94, 80.68 -1.1 M-0.81 0.43 C12.57 0.34, 66.73 -0.28, 80.1 -0.13" stroke="#000000" stroke-width="2" fill="none"></path></g></g><mask></mask><g stroke-linecap="round"><g stroke-opacity="0.9" fill-opacity="0.9" transform="translate(95.32167636518369 139.85604742603377) rotate(0 -0.10748223121083811 40.22758827860002)"><path d="M0.68 -1.1 C0.63 12.08, 0.38 66.47, 0.1 80.01 M-0.41 0.94 C-0.66 14.24, -1.1 68.12, -0.8 81.55" stroke="#000000" stroke-width="2" fill="none"></path></g></g><mask></mask><g stroke-linecap="round"><g stroke-opacity="0.9" fill-opacity="0.9" transform="translate(95.32167636518369 139.85604742603377) rotate(0 19.98135996869067 0.15954866720130623)"><path d="M0.05 0 C6.59 0.1, 32.89 0.12, 39.55 0.06 M-0.6 -0.47 C6.09 -0.24, 33.85 0.71, 40.56 0.79" stroke="#000000" stroke-width="2" fill="none"></path></g></g><mask></mask><g stroke-linecap="round"><g stroke-opacity="0.9" fill-opacity="0.9" transform="translate(95.32167636518369 219.85604742603377) rotate(0 19.784308131504815 -0.13543692031839782)"><path d="M-0.45 0.06 C6.22 -0.01, 33.31 -0.45, 40.02 -0.38 M0.33 -0.39 C6.91 -0.39, 33.09 0.12, 39.59 0.12" stroke="#000000" stroke-width="2" fill="none"></path></g></g><mask></mask><g stroke-linecap="round"><g stroke-opacity="0.9" fill-opacity="0.9" transform="translate(135.3216763651837 139.85604742603377) rotate(0 18.982142066046805 39.82772324124817)"><path d="M0.03 -0.84 C4.95 0.62, 22.35 1.99, 28.52 8.87 C34.7 15.75, 37.31 29.79, 37.08 40.45 C36.84 51.1, 33.4 66.19, 27.11 72.79 C20.83 79.4, 3.91 79.01, -0.63 80.07 M-1.41 1.34 C3.4 2.47, 20.55 0.62, 27.35 7.27 C34.15 13.91, 39.34 30.13, 39.37 41.23 C39.4 52.33, 33.9 67.33, 27.54 73.88 C21.18 80.42, 5.61 79.25, 1.23 80.49" stroke="#000000" stroke-width="2" fill="none"></path></g></g><mask></mask><g stroke-linecap="round"><g transform="translate(232.53048104078044 52.11734640399925) rotate(0 19.680345716327423 30.72952207469381)"><path d="M-1 0.44 C5.85 10.35, 33.53 50.4, 40.37 60.28 M0.67 -0.38 C7.49 9.67, 33.33 51.65, 39.79 61.84" stroke="#e03131" stroke-width="2" fill="none"></path></g><g transform="translate(232.53048104078044 52.11734640399925) rotate(0 19.680345716327423 30.72952207469381)"><path d="M20.1 46.44 C25.6 51.46, 29.63 54.52, 39.79 61.84 M20.1 46.44 C25.76 50.6, 30.22 53.4, 39.79 61.84" stroke="#e03131" stroke-width="2" fill="none"></path></g><g transform="translate(232.53048104078044 52.11734640399925) rotate(0 19.680345716327423 30.72952207469381)"><path d="M34.6 37.38 C36.72 44.43, 37.31 49.64, 39.79 61.84 M34.6 37.38 C36.53 43.9, 37.29 49.01, 39.79 61.84" stroke="#e03131" stroke-width="2" fill="none"></path></g></g><mask></mask><g stroke-linecap="round"><g transform="translate(234.15157479078044 182.23126852313987) rotate(0 17.434667929095447 -17.408980815225515)"><path d="M0.55 -0.29 C6.36 -6.28, 29 -29.76, 34.71 -35.57 M0.16 0.75 C5.91 -5.18, 28.49 -28.73, 34.19 -34.85" stroke="#e03131" stroke-width="2" fill="none"></path></g><g transform="translate(234.15157479078044 182.23126852313987) rotate(0 17.434667929095447 -17.408980815225515)"><path d="M24.27 -11.98 C26.31 -18.42, 29.56 -24.42, 34.19 -34.85 M24.27 -11.98 C27.81 -20.84, 31.66 -29.36, 34.19 -34.85" stroke="#e03131" stroke-width="2" fill="none"></path></g><g transform="translate(234.15157479078044 182.23126852313987) rotate(0 17.434667929095447 -17.408980815225515)"><path d="M11.89 -23.7 C17.26 -27.08, 23.81 -29.97, 34.19 -34.85 M11.89 -23.7 C20.21 -28.07, 28.84 -32.06, 34.19 -34.85" stroke="#e03131" stroke-width="2" fill="none"></path></g></g><mask></mask></svg>