<svg version="1.1" xmlns="http://www.w3.org/2000/svg" viewBox="0 0 778.1514597630066 104.2027619243367" width="778.1514597630066" height="104.2027619243367" class="excalidraw-svg"><!-- svg-source:excalidraw --><metadata></metadata><defs><style class="style-fonts">
      </style></defs><rect x="0" y="0" width="778.1514597630066" height="104.2027619243367" fill="#ffffff"></rect><g stroke-linecap="round"><g stroke-opacity="0.9" fill-opacity="0.9" transform="translate(275.25093037231204 52.457247026809526) rotate(0 30.128188009648575 0.28948923043999275)"><path d="M0.61 0.86 C10.71 0.69, 50.91 -0.35, 60.79 -0.4 M-0.53 0.27 C9.47 0.21, 50.32 1.22, 60.26 0.93" stroke="#000000" stroke-width="2" fill="none"></path></g></g><mask></mask><g stroke-linecap="round"><g stroke-opacity="0.9" fill-opacity="0.9" transform="translate(115.25093037231204 32.457247026809526) rotate(0 46.339181563761976 -0.7466576710924393)"><path d="M0.79 -0.4 C16.18 -0.49, 77.41 0.25, 92.93 0.35 M-0.25 -1.66 C14.91 -2.18, 76.28 -1.44, 91.93 -1.49" stroke="#000000" stroke-width="2" fill="none"></path></g></g><mask></mask><g stroke-linecap="round"><g stroke-opacity="0.9" fill-opacity="0.9" transform="translate(115.25093037231204 72.45724702680953) rotate(0 46.348432896216764 -0.6060540487350519)"><path d="M-0.11 0.53 C15.48 0.63, 78.8 0.13, 94.32 0.18 M-1.62 -0.23 C13.82 -0.47, 78.24 -1.63, 93.85 -1.76" stroke="#000000" stroke-width="2" fill="none"></path></g></g><mask></mask><g stroke-linecap="round"><g stroke-opacity="0.9" fill-opacity="0.9" transform="translate(195.25093037231204 12.457247026809533) rotate(0 9.352942028183401 40.623818147899584)"><path d="M0.91 0.36 C4.2 7.1, 19.78 27.69, 19.61 41.01 C19.45 54.33, 3.1 73.9, -0.09 80.28 M-0.07 -0.5 C3.04 5.88, 18.6 25.71, 18.46 39.41 C18.32 53.12, 2.02 74.98, -0.91 81.75" stroke="#000000" stroke-width="2" fill="none"></path></g></g><mask></mask><g stroke-linecap="round"><g stroke-opacity="0.9" fill-opacity="0.9" transform="translate(195.25093037231204 12.457247026809533) rotate(0 40.01730522587895 19.557145755070945)"><path d="M-0.39 1.01 C6.36 1.67, 27.95 -2.06, 41.42 4.32 C54.89 10.7, 73.94 33.29, 80.42 39.27 M1.61 0.49 C8.12 0.74, 27.38 -4.27, 40.42 2.35 C53.47 8.97, 73.17 33.7, 79.88 40.21" stroke="#000000" stroke-width="2" fill="none"></path></g></g><mask></mask><g stroke-linecap="round"><g stroke-opacity="0.9" fill-opacity="0.9" transform="translate(195.25093037231204 92.45724702680953) rotate(0 39.34050093898084 -19.760049445182084)"><path d="M-0.09 0.28 C6.62 -0.85, 26.52 0.9, 39.92 -5.78 C53.31 -12.46, 73.59 -34, 80.28 -39.8 M-1.6 -0.62 C5.03 -1.09, 25.64 1.67, 39.19 -4.62 C52.73 -10.91, 72.8 -32.52, 79.67 -38.38" stroke="#000000" stroke-width="2" fill="none"></path></g></g><mask></mask><g stroke-linecap="round"><g stroke-opacity="0.9" fill-opacity="0.9" transform="translate(17.609619709959787 31.489605506677165) rotate(0 18.43862438849162 -0.265933549369219)"><path d="M-0.29 -0.15 C5.8 -0.17, 29.97 -0.37, 36.12 -0.35 M0.56 -0.7 C6.86 -0.64, 31.21 -0.05, 37.17 0.17" stroke="#000000" stroke-width="2" fill="none"></path></g></g><mask></mask><g stroke-linecap="round"><g stroke-opacity="0.9" fill-opacity="0.9" transform="translate(54.073685712102645 13.257572505605744) rotate(0 0.06295536467271745 18.40422739813791)"><path d="M-0.35 -0.35 C-0.28 5.75, 0.05 30.27, 0.12 36.46 M0.47 0.66 C0.51 6.87, -0.13 31.28, -0.25 37.16" stroke="#000000" stroke-width="2" fill="none"></path></g></g><mask></mask><g stroke-linecap="round"><g stroke-opacity="0.9" fill-opacity="0.9" transform="translate(54.073685712102645 13.257572505605744) rotate(0 17.80900566575454 8.963513419706663)"><path d="M0.27 -0.01 C6.51 3.28, 30.84 15.95, 36.67 18.98 M-1.05 -1.06 C5.11 1.96, 29.4 13.83, 35.83 17.26" stroke="#000000" stroke-width="2" fill="none"></path></g></g><mask></mask><g stroke-linecap="round"><g stroke-opacity="0.9" fill-opacity="0.9" transform="translate(54.25348517009013 49.768042333103736) rotate(0 18.10209050244523 -8.762089836689933)"><path d="M0.2 0.75 C6.04 -2.29, 29.03 -15.23, 35.27 -18.28 M-1.15 0.1 C5.01 -2.74, 30.91 -13.49, 37.35 -16.76" stroke="#000000" stroke-width="2" fill="none"></path></g></g><mask></mask><g stroke-linecap="round"><g stroke-opacity="0.9" fill-opacity="0.9" transform="translate(90.53775171424547 31.489605506677165) rotate(0 13.671270396419771 -0.14092236027171268)"><path d="M-0.55 -0.02 C4.08 -0.03, 23.27 0.39, 27.89 0.31 M0.17 -0.51 C4.77 -0.7, 23.31 -0.55, 27.74 -0.5" stroke="#000000" stroke-width="2" fill="none"></path></g></g><mask></mask><g stroke-linecap="round"><g stroke-opacity="0.9" fill-opacity="0.9" transform="translate(10.277543316688394 69.88382111670438) rotate(0 19.617533169126048 0.10109825884459056)"><path d="M-0.28 -0.39 C6.27 -0.24, 32.75 0.4, 39.51 0.42 M0.58 0.59 C7.02 0.64, 32.35 -0.26, 38.96 -0.34" stroke="#000000" stroke-width="2" fill="none"></path></g></g><mask></mask><g stroke-linecap="round"><g stroke-opacity="0.9" fill-opacity="0.9" transform="translate(50.025886303275655 50.00964962341075) rotate(0 0.22487022344243712 20.0626397908995)"><path d="M-0.24 0.42 C-0.1 7.05, 0.5 32.9, 0.54 39.43 M0.64 0.15 C0.78 6.89, 0.56 33.31, 0.38 39.97" stroke="#000000" stroke-width="2" fill="none"></path></g></g><mask></mask><g stroke-linecap="round"><g stroke-opacity="0.9" fill-opacity="0.9" transform="translate(50.025886303275655 50.00964962341075) rotate(0 20.00486449393715 10.101098021374973)"><path d="M1.17 -0.69 C7.87 2.42, 33.38 15.96, 39.68 19.53 M0.33 1.57 C6.91 4.76, 31.84 18.01, 38.69 20.89" stroke="#000000" stroke-width="2" fill="none"></path></g></g><mask></mask><g stroke-linecap="round"><g stroke-opacity="0.9" fill-opacity="0.9" transform="translate(50.22188009410715 89.80857597516629) rotate(0 19.85158993941537 -10.508647637203293)"><path d="M-0.07 -0.34 C6.23 -3.4, 32.42 -15.84, 38.97 -19.01 M-1.57 -1.57 C5.01 -4.89, 34.64 -17.36, 41.27 -20.68" stroke="#000000" stroke-width="2" fill="none"></path></g></g><mask></mask><g stroke-linecap="round"><g stroke-opacity="0.9" fill-opacity="0.9" transform="translate(89.77422928986292 69.88382111670438) rotate(0 14.606212078010131 -0.1030608126071133)"><path d="M-0.36 0.4 C4.58 0.46, 24.61 0.31, 29.57 0.23 M0.46 0.13 C5.3 0.04, 24.01 -0.67, 29.02 -0.62" stroke="#000000" stroke-width="2" fill="none"></path></g></g><mask></mask><g stroke-linecap="round"><g transform="translate(372.7581273341908 51.21629893558531) rotate(0 58.15708317467477 1.5483350037809387)"><path d="M0.85 1.09 C20.21 1.66, 97.22 2.2, 116.47 2.48 M-0.16 0.62 C19.06 0.91, 96.48 0.57, 115.81 0.62" stroke="#e03131" stroke-width="2" fill="none"></path></g><g transform="translate(372.7581273341908 51.21629893558531) rotate(0 58.15708317467477 1.5483350037809387)"><path d="M92.33 9.2 C101.92 7.14, 108.64 4.14, 115.81 0.62 M92.33 9.2 C100.07 6.98, 108.73 1.99, 115.81 0.62" stroke="#e03131" stroke-width="2" fill="none"></path></g><g transform="translate(372.7581273341908 51.21629893558531) rotate(0 58.15708317467477 1.5483350037809387)"><path d="M92.31 -7.9 C101.77 -4.36, 108.49 -1.74, 115.81 0.62 M92.31 -7.9 C100.07 -3.82, 108.74 -2.52, 115.81 0.62" stroke="#e03131" stroke-width="2" fill="none"></path></g></g><mask></mask><g stroke-linecap="round"><g stroke-opacity="0.9" fill-opacity="0.9" transform="translate(727.9024519056611 50.79084983321337) rotate(0 19.944141026882676 -0.1814831535204947)"><path d="M-0.36 0.4 C6.27 0.51, 33.38 0.17, 40.25 0.12 M0.46 0.14 C6.97 0.11, 33.05 -0.88, 39.76 -0.78" stroke="#000000" stroke-width="2" fill="none"></path></g></g><mask></mask><g stroke-linecap="round"><g stroke-opacity="0.9" fill-opacity="0.9" transform="translate(548.2697725732748 30.79084983321337) rotate(0 40.371557409316296 -0.7536019867798309)"><path d="M-0.26 0.27 C13.37 0.16, 67.73 0.2, 81 0.23 M1.81 -0.64 C15.44 -1.21, 67.84 -1.6, 80.58 -1.77" stroke="#000000" stroke-width="2" fill="none"></path></g></g><mask></mask><g stroke-linecap="round"><g stroke-opacity="0.9" fill-opacity="0.9" transform="translate(548.2697725732748 70.79084983321337) rotate(0 40.890581816015754 -0.5374966662640546)"><path d="M1 0.23 C14.27 0.25, 66.24 0.53, 79.35 0.43 M0.07 -0.7 C13.75 -1.06, 68.61 -1.71, 81.71 -1.47" stroke="#000000" stroke-width="2" fill="none"></path></g></g><mask></mask><g stroke-linecap="round"><g stroke-opacity="0.9" fill-opacity="0.9" transform="translate(628.2697725732748 10.790849833213372) rotate(0 -0.14178133470005605 40.27319269326515)"><path d="M-0.65 0.43 C-0.88 13.66, -0.37 66.24, -0.35 79.61 M1.2 -0.4 C0.7 12.98, -1.02 67.77, -1.49 80.94" stroke="#000000" stroke-width="2" fill="none"></path></g></g><mask></mask><g stroke-linecap="round"><g stroke-opacity="0.9" fill-opacity="0.9" transform="translate(628.2697725732748 10.790849833213372) rotate(0 19.799045172426844 -0.24651824465236416)"><path d="M-0.16 -0.18 C6.52 -0.16, 33.09 0.18, 39.76 0.3 M0.76 -0.75 C7.37 -0.9, 32.76 -0.6, 39.21 -0.51" stroke="#000000" stroke-width="2" fill="none"></path></g></g><mask></mask><g stroke-linecap="round"><g stroke-opacity="0.9" fill-opacity="0.9" transform="translate(628.2697725732748 90.79084983321337) rotate(0 19.803826606366783 0.1838408729329224)"><path d="M-0.24 0.3 C6.43 0.42, 33.1 0.51, 39.85 0.53 M0.64 -0.02 C7.23 -0.03, 32.78 -0.09, 39.34 -0.16" stroke="#000000" stroke-width="2" fill="none"></path></g></g><mask></mask><g stroke-linecap="round"><g stroke-opacity="0.9" fill-opacity="0.9" transform="translate(668.2697725732748 10.790849833213372) rotate(0 18.729920441147016 40.17881237012334)"><path d="M-0.33 1.16 C4.66 2.51, 22.98 2.13, 29.46 8.79 C35.93 15.46, 38.77 30.5, 38.51 41.15 C38.25 51.8, 34.27 66.32, 27.9 72.71 C21.52 79.1, 4.79 78.34, 0.26 79.51 M1.69 0.72 C6.62 1.69, 22.74 0.22, 28.77 7.15 C34.81 14.08, 38.52 31.2, 37.9 42.3 C37.28 53.4, 31.57 67.52, 25.07 73.75 C18.58 79.97, 3.3 78.85, -1.07 79.64" stroke="#000000" stroke-width="2" fill="none"></path></g></g><mask></mask><g stroke-opacity="0.9" fill-opacity="0.9" stroke-linecap="round" transform="translate(707.9024519056611 40.79084983321337) rotate(0 10 10)"><path d="M10.56 0.13 C12.59 0.1, 15.14 1.58, 16.68 3.05 C18.22 4.52, 19.53 6.93, 19.8 8.97 C20.08 11.01, 19.42 13.48, 18.34 15.28 C17.26 17.08, 15.35 19.07, 13.33 19.75 C11.31 20.42, 8.32 20.21, 6.21 19.35 C4.1 18.5, 1.65 16.53, 0.67 14.61 C-0.32 12.7, -0.18 10.03, 0.3 7.88 C0.78 5.73, 1.71 3.04, 3.55 1.71 C5.4 0.37, 9.99 0.02, 11.36 -0.14 C12.72 -0.29, 11.77 0.56, 11.73 0.78 M8.83 0.11 C10.68 -0.2, 13.63 0.89, 15.33 2 C17.03 3.12, 18.34 4.68, 19.03 6.8 C19.72 8.91, 20.37 12.65, 19.47 14.68 C18.57 16.71, 15.72 18.13, 13.64 18.96 C11.55 19.8, 8.84 20.21, 6.95 19.69 C5.07 19.17, 3.36 17.69, 2.32 15.84 C1.28 13.99, 0.5 10.63, 0.73 8.59 C0.95 6.55, 2.31 4.92, 3.66 3.61 C5 2.3, 7.87 1.31, 8.79 0.73 C9.72 0.16, 9.2 0.2, 9.19 0.17" stroke="#000000" stroke-width="2" fill="none"></path></g></svg>