<svg version="1.1" xmlns="http://www.w3.org/2000/svg" viewBox="0 0 514.0234069824219 237.36325073242188" width="514.0234069824219" height="237.36325073242188" class="excalidraw-svg"><!-- svg-source:excalidraw --><metadata></metadata><defs><style class="style-fonts">
      </style></defs><rect x="0" y="0" width="514.0234069824219" height="237.36325073242188" fill="#ffffff"></rect><g transform="translate(14.192703247070312 10) rotate(0 242.81900024414062 108.68162536621094)" stroke="none"><path fill="#1e1e1e" d="M 1.71,0 Q 1.71,0 1.66,2.38 1.60,4.77 1.30,6.35 1.00,7.94 0.81,10.95 0.62,13.97 0.54,15.98 0.45,17.99 0.52,19.25 0.59,20.50 0.05,23.00 -0.48,25.50 -0.71,27.86 -0.94,30.23 -1.06,33.09 -1.18,35.95 -1.64,39.12 -2.11,42.29 -2.31,45.53 -2.50,48.77 -2.59,51.61 -2.69,54.45 -2.73,57.77 -2.77,61.10 -2.79,63.97 -2.81,66.84 -2.83,69.92 -2.84,72.99 -2.84,75.63 -2.85,78.26 -2.85,80.84 -2.86,83.42 -2.86,86.63 -2.86,89.85 -2.86,92.27 -2.87,94.70 -2.48,97.50 -2.09,100.30 -1.91,103.30 -1.74,106.31 -1.67,108.51 -1.59,110.71 -1.56,113.42 -1.53,116.14 -1.13,118.70 -0.73,121.25 -0.55,123.42 -0.37,125.59 -0.29,128.18 -0.21,130.77 0.19,132.81 0.61,134.85 0.82,136.96 1.03,139.07 1.22,140.55 1.40,142.04 1.52,143.55 1.64,145.06 1.96,146.50 2.28,147.94 2.45,149.66 2.62,151.38 2.70,153.06 2.78,154.74 2.84,156.34 2.89,157.95 2.80,160.22 2.72,162.50 3.04,164.79 3.36,167.08 3.49,169.52 3.62,171.96 3.70,173.91 3.79,175.87 3.86,177.64 3.93,179.41 3.95,181.32 3.96,183.24 4.05,184.60 4.14,185.97 4.20,187.44 4.25,188.91 4.33,190.02 4.41,191.13 4.68,192.33 4.94,193.52 5.12,194.71 5.29,195.89 5.63,197.12 5.96,198.36 6.20,199.40 6.44,200.45 6.93,201.76 7.42,203.07 8.01,204.85 8.60,206.63 9.00,207.79 9.41,208.96 9.87,210.29 10.34,211.61 10.78,212.91 11.23,214.21 11.33,212.96 11.42,211.71 12.52,210.66 13.61,209.62 15.49,208.40 17.37,207.17 18.49,206.19 19.61,205.20 21.77,202.60 23.93,200.00 25.24,198.24 26.55,196.48 28.48,194.38 30.40,192.29 31.97,190.28 33.53,188.27 38.42,181.89 43.31,175.51 45.75,172.19 48.19,168.87 49.55,166.44 50.91,164.01 52.14,162.23 53.37,160.44 54.13,158.76 54.88,157.07 56.00,155.15 57.11,153.22 57.83,151.54 58.56,149.85 59.24,148.34 59.92,146.83 60.81,145.14 61.70,143.45 62.87,141.22 64.05,138.99 64.41,137.70 64.77,136.41 65.30,134.85 65.82,133.30 66.80,131.55 67.79,129.81 68.34,128.51 68.90,127.21 69.34,126.06 69.79,124.91 70.31,122.52 70.83,120.13 71.23,119.04 71.62,117.95 72.06,116.18 72.50,114.41 72.95,112.69 73.40,110.96 73.75,109.84 74.09,108.72 74.57,106.55 75.05,104.38 75.57,103.08 76.10,101.77 76.27,99.85 76.45,97.92 76.88,96.38 77.31,94.84 77.76,92.80 78.20,90.75 78.62,88.89 79.04,87.03 79.48,85.13 79.91,83.24 80.47,80.74 81.02,78.24 81.57,76.15 82.12,74.06 82.50,73.07 82.89,72.07 83.01,70.79 83.14,69.51 83.47,68.41 83.80,67.31 83.87,66.15 83.93,64.99 84.34,63.93 84.75,62.87 85.56,61.05 86.38,59.22 87.63,58.15 88.88,57.08 90.42,57.25 91.97,57.43 92.80,58.25 93.63,59.07 94.24,60.08 94.86,61.09 95.35,62.47 95.83,63.85 96.28,66.03 96.74,68.21 97.14,69.61 97.54,71.02 98.04,72.75 98.54,74.49 99.04,76.53 99.53,78.57 99.61,80.74 99.70,82.91 99.70,84.95 99.70,86.99 99.62,88.55 99.54,90.11 99.75,91.50 99.96,92.89 100.12,94.22 100.27,95.55 100.35,96.70 100.43,97.85 100.65,98.99 100.88,100.12 101.02,101.37 101.16,102.61 101.18,104.17 101.20,105.73 101.30,107.22 101.39,108.71 101.48,110.11 101.56,111.51 101.29,113.40 101.01,115.29 100.95,116.48 100.89,117.67 100.47,118.74 100.05,119.82 99.66,121.11 99.28,122.40 98.91,124.02 98.54,125.65 96.96,126.05 95.38,126.46 95.99,124.74 96.60,123.02 97.22,121.98 97.83,120.94 98.95,119.57 100.08,118.20 101.34,116.74 102.61,115.27 104.40,113.58 106.18,111.89 107.67,110.52 109.16,109.16 109.97,107.97 110.78,106.79 113.34,104.29 115.90,101.78 117.63,100.13 119.37,98.48 120.72,96.86 122.07,95.23 124.40,92.50 126.73,89.77 128.16,88.49 129.60,87.20 130.76,86.05 131.92,84.90 133.06,83.73 134.20,82.57 134.90,81.55 135.59,80.54 136.62,79.56 137.64,78.58 139.14,76.79 140.63,74.99 141.73,73.72 142.83,72.44 143.92,70.34 145.00,68.24 145.70,67.33 146.40,66.42 147.80,64.62 149.21,62.83 149.94,62.00 150.68,61.17 152.13,60.04 153.58,58.92 154.98,59.38 156.38,59.85 157.16,60.72 157.95,61.58 158.50,62.97 159.05,64.36 159.29,65.49 159.52,66.62 159.93,68.20 160.35,69.78 160.59,70.84 160.83,71.90 161.18,73.28 161.53,74.66 161.96,75.80 162.38,76.94 163.01,78.75 163.64,80.56 164.06,81.89 164.48,83.22 164.98,84.71 165.48,86.20 165.81,87.64 166.13,89.08 166.53,90.17 166.93,91.26 167.07,92.76 167.20,94.27 167.24,95.56 167.27,96.84 167.29,98.00 167.31,99.15 167.34,100.58 167.37,102.01 167.40,103.28 167.42,104.54 167.72,105.75 168.02,106.95 168.44,108.16 168.86,109.37 167.34,108.77 165.82,108.16 166.26,106.70 166.69,105.24 168.33,103.49 169.97,101.74 172.14,99.51 174.31,97.28 175.30,96.34 176.28,95.41 177.62,93.88 178.96,92.36 180.11,91.07 181.27,89.78 182.21,88.68 183.14,87.58 184.67,86.32 186.19,85.07 187.18,84.12 188.16,83.16 188.35,84.70 188.55,86.24 187.83,85.34 187.11,84.44 187.43,83.10 187.75,81.76 188.91,80.29 190.08,78.82 191.53,77.71 192.98,76.59 194.07,75.54 195.15,74.49 197.53,75.30 199.91,76.12 200.64,77.30 201.36,78.48 201.80,79.67 202.23,80.86 202.47,82.64 202.70,84.41 202.96,85.46 203.22,86.50 203.56,87.98 203.90,89.46 204.32,90.49 204.73,91.52 205.22,92.50 205.71,93.48 206.24,94.49 206.77,95.50 207.74,97.17 208.70,98.84 209.46,100.11 210.22,101.37 210.73,102.36 211.24,103.35 210.24,102.94 209.25,102.54 210.01,101.57 210.77,100.60 211.52,99.81 212.27,99.02 213.07,98.21 213.87,97.40 214.86,96.47 215.85,95.55 216.61,94.71 217.37,93.88 218.58,92.62 219.80,91.37 220.75,90.44 221.70,89.51 222.50,88.63 223.31,87.75 224.13,86.94 224.95,86.14 226.37,84.67 227.78,83.21 228.97,82.41 230.16,81.61 231.11,81.10 232.07,80.59 233.47,80.65 234.88,80.70 236.03,81.28 237.18,81.86 237.64,82.87 238.10,83.88 238.57,85.23 239.05,86.58 239.33,87.64 239.62,88.70 240.09,89.70 240.55,90.70 241.00,91.99 241.46,93.27 242.30,95.01 243.14,96.75 243.98,98.41 244.82,100.08 243.26,99.25 241.71,98.42 242.19,97.14 242.67,95.86 243.58,94.93 244.50,94.00 246.12,92.76 247.74,91.51 249.71,90.13 251.68,88.74 254.71,87.86 257.75,86.99 259.10,88.49 260.44,90.00 260.91,90.97 261.37,91.94 261.86,92.92 262.34,93.90 262.83,95.03 263.31,96.15 264.04,97.97 264.76,99.79 265.32,100.93 265.88,102.06 264.19,101.74 262.51,101.42 263.08,100.29 263.65,99.16 265.42,97.15 267.18,95.14 268.74,94.24 270.30,93.35 272.19,93.10 274.09,92.86 275.20,93.44 276.31,94.02 276.78,95.38 277.26,96.74 277.80,97.90 278.34,99.05 278.61,100.26 278.88,101.48 279.35,102.60 279.82,103.71 280.37,104.86 280.93,106.00 281.46,107.04 281.99,108.09 282.48,109.11 282.97,110.13 283.71,111.05 284.45,111.97 282.82,112.91 281.19,113.84 281.09,112.70 280.98,111.57 281.82,109.89 282.65,108.22 283.71,106.95 284.76,105.68 286.28,103.98 287.80,102.28 288.93,101.08 290.05,99.89 291.26,99.04 292.46,98.19 292.81,97.67 293.15,97.15 293.53,97.04 293.91,96.92 294.30,96.90 294.70,96.88 295.09,96.96 295.48,97.03 295.84,97.20 296.20,97.36 296.51,97.61 296.82,97.86 297.06,98.17 297.30,98.49 297.46,98.85 297.62,99.21 297.68,99.61 297.75,100.00 297.72,100.39 297.70,100.79 297.57,101.16 297.45,101.54 297.24,101.88 297.03,102.21 296.75,102.49 296.47,102.77 296.13,102.97 295.79,103.17 296.56,100.88 297.34,98.58 297.95,100.24 298.55,101.91 299.05,103.22 299.54,104.53 299.87,105.83 300.19,107.13 299.08,107.20 297.97,107.28 298.85,105.71 299.72,104.15 300.53,103.16 301.33,102.18 303.41,101.03 305.48,99.88 306.60,99.98 307.71,100.08 308.99,101.63 310.27,103.18 310.74,104.28 311.22,105.38 311.90,106.40 312.57,107.43 311.41,106.77 310.26,106.11 311.84,105.69 313.43,105.28 314.63,105.34 315.82,105.39 317.93,105.91 320.05,106.43 320.79,107.29 321.54,108.15 321.98,108.25 322.41,108.35 322.82,108.52 323.23,108.69 323.59,108.95 323.95,109.21 324.23,109.55 324.52,109.89 324.71,110.29 324.91,110.69 325.00,111.12 325.09,111.56 325.08,112.00 325.07,112.44 324.95,112.87 324.83,113.30 324.61,113.68 324.40,114.07 324.09,114.39 323.79,114.71 323.42,114.96 323.04,115.20 322.63,115.34 322.21,115.49 321.77,115.53 321.32,115.57 320.89,115.50 320.45,115.44 319.87,112.22 319.29,109.01 320.72,108.19 322.15,107.37 324.05,106.74 325.95,106.10 327.40,105.67 328.85,105.24 330.47,105.22 332.09,105.20 333.74,105.22 335.38,105.24 337.06,105.27 338.75,105.29 339.86,105.33 340.97,105.37 343.27,105.45 345.58,105.52 347.84,105.75 350.11,105.98 351.93,106.09 353.76,106.20 356.00,106.37 358.24,106.53 359.59,106.50 360.94,106.47 362.96,106.88 364.97,107.29 368.19,107.53 371.40,107.77 373.98,108.33 376.56,108.89 378.58,109.14 380.60,109.39 382.78,109.51 384.97,109.64 387.49,110.01 390.01,110.38 392.26,110.54 394.50,110.70 397.20,111.19 399.89,111.67 401.57,111.79 403.24,111.91 404.81,111.92 406.38,111.93 408.50,112.02 410.62,112.10 412.32,112.07 414.03,112.03 416.39,112.43 418.76,112.82 420.17,112.88 421.58,112.93 422.89,112.91 424.19,112.89 425.90,112.77 427.61,112.65 429.02,112.51 430.42,112.37 431.67,112.61 432.91,112.85 435.21,113.08 437.50,113.31 439.73,113.48 441.95,113.65 443.84,113.95 445.72,114.26 448.93,114.75 452.14,115.25 454.88,115.49 457.63,115.73 459.40,115.78 461.17,115.82 464.42,115.91 467.67,116.00 471.01,116.39 474.36,116.78 476.72,116.96 479.07,117.13 480.55,117.10 482.04,117.07 483.14,117.00 484.24,116.93 486.43,116.14 488.62,115.35 488.97,115.21 489.31,115.07 489.68,115.04 490.05,115.02 490.41,115.12 490.77,115.21 491.08,115.42 491.39,115.63 491.62,115.92 491.85,116.21 491.97,116.56 492.09,116.92 492.10,117.29 492.10,117.66 491.98,118.01 491.87,118.37 491.65,118.67 491.42,118.96 491.12,119.18 490.81,119.39 490.45,119.49 490.10,119.59 489.72,119.58 489.35,119.56 489.00,119.43 488.66,119.29 488.37,119.05 488.09,118.81 487.89,118.50 487.70,118.18 487.61,117.82 487.53,117.45 487.57,117.08 487.60,116.71 487.76,116.37 487.91,116.04 488.16,115.76 488.42,115.49 488.74,115.31 489.07,115.14 489.44,115.07 489.80,115.01 490.17,115.07 490.54,115.12 490.87,115.29 491.20,115.47 491.46,115.73 491.72,116.00 491.88,116.34 492.04,116.67 492.08,117.04 492.12,117.41 492.05,117.78 491.97,118.14 491.78,118.46 491.59,118.78 491.31,119.03 491.03,119.27 491.03,119.27 491.03,119.27 489.19,119.75 487.35,120.24 485.75,120.44 484.15,120.64 483.03,120.51 481.90,120.39 480.39,120.23 478.89,120.08 476.46,119.96 474.04,119.84 470.84,119.54 467.63,119.24 464.33,119.26 461.03,119.28 459.22,119.18 457.42,119.08 454.55,118.97 451.69,118.86 448.39,118.53 445.09,118.21 443.48,117.95 441.87,117.69 439.59,117.77 437.32,117.85 434.47,117.87 431.62,117.89 430.12,117.56 428.62,117.22 427.38,117.07 426.15,116.92 425.08,116.82 424.01,116.71 422.63,116.56 421.24,116.42 419.76,116.19 418.29,115.96 416.14,115.68 414.00,115.40 412.28,115.34 410.56,115.27 408.39,115.29 406.21,115.30 404.55,115.15 402.89,114.99 401.15,114.72 399.41,114.45 396.87,114.03 394.32,113.60 391.97,113.48 389.61,113.36 387.23,113.07 384.85,112.79 382.57,112.75 380.29,112.71 378.10,112.57 375.90,112.42 373.57,112.07 371.24,111.71 367.72,111.67 364.20,111.63 362.56,111.39 360.93,111.14 359.58,111.11 358.24,111.08 356.00,111.25 353.76,111.41 351.93,111.52 350.11,111.63 347.84,111.86 345.58,112.09 343.27,112.17 340.97,112.25 339.86,112.28 338.75,112.32 337.07,112.35 335.40,112.38 333.78,112.41 332.17,112.44 330.61,112.46 329.06,112.48 327.75,112.72 326.45,112.96 325.18,113.68 323.91,114.41 323.16,111.38 322.41,108.35 322.82,108.52 323.23,108.69 323.59,108.95 323.95,109.21 324.23,109.55 324.52,109.89 324.71,110.29 324.91,110.69 325.00,111.12 325.09,111.56 325.08,112.00 325.07,112.44 324.95,112.87 324.83,113.30 324.61,113.68 324.40,114.07 324.09,114.39 323.79,114.71 323.42,114.96 323.05,115.20 322.63,115.34 322.21,115.49 321.77,115.53 321.33,115.57 320.89,115.50 320.45,115.44 320.01,114.97 319.57,114.51 318.58,114.12 317.59,113.73 316.66,113.21 315.72,112.70 314.41,112.61 313.10,112.52 312.07,112.08 311.03,111.65 312.17,111.73 313.30,111.81 312.03,112.28 310.75,112.75 308.92,111.94 307.09,111.13 306.27,110.12 305.44,109.11 304.95,107.67 304.46,106.23 305.92,106.01 307.38,105.78 306.49,106.82 305.60,107.87 304.34,108.95 303.09,110.04 302.42,111.10 301.74,112.17 300.44,112.65 299.15,113.12 297.30,112.20 295.46,111.28 294.68,110.08 293.90,108.88 293.56,107.56 293.22,106.25 292.52,104.18 291.83,102.11 292.49,99.63 293.15,97.15 293.53,97.04 293.91,96.92 294.30,96.90 294.70,96.88 295.09,96.96 295.48,97.03 295.84,97.20 296.20,97.36 296.51,97.61 296.82,97.86 297.06,98.17 297.30,98.49 297.46,98.85 297.62,99.21 297.68,99.61 297.75,100.00 297.72,100.39 297.70,100.79 297.57,101.16 297.45,101.54 297.24,101.88 297.03,102.21 296.75,102.49 296.47,102.77 296.13,102.97 295.79,103.17 295.92,103.05 296.06,102.92 295.26,103.65 294.47,104.38 293.42,105.45 292.37,106.52 291.64,107.34 290.91,108.16 289.68,109.72 288.45,111.29 287.56,112.81 286.66,114.34 285.98,115.94 285.30,117.53 283.81,117.96 282.32,118.39 280.41,116.48 278.51,114.58 277.49,112.79 276.48,111.01 275.92,110.00 275.36,108.99 274.65,107.77 273.94,106.55 272.93,104.26 271.92,101.98 271.35,100.11 270.79,98.25 272.20,98.76 273.60,99.26 272.35,99.91 271.09,100.56 270.47,101.71 269.84,102.86 268.96,104.07 268.07,105.27 266.63,106.65 265.19,108.04 262.82,106.94 260.45,105.84 259.74,104.98 259.03,104.13 258.55,102.96 258.06,101.80 257.57,100.85 257.07,99.91 256.63,98.90 256.19,97.88 255.67,96.76 255.14,95.65 254.62,93.82 254.09,91.99 256.12,91.86 258.15,91.72 257.05,92.85 255.96,93.97 254.84,94.87 253.71,95.77 252.58,96.58 251.45,97.40 250.48,98.30 249.50,99.21 248.43,100.28 247.37,101.34 246.12,102.98 244.86,104.61 243.78,105.07 242.70,105.54 241.67,105.20 240.63,104.85 238.97,102.76 237.30,100.68 236.41,98.87 235.53,97.05 234.96,95.77 234.39,94.49 234.15,93.44 233.90,92.39 233.30,91.07 232.69,89.75 232.19,88.10 231.68,86.45 232.91,87.16 234.14,87.87 232.93,88.25 231.72,88.64 230.84,89.47 229.95,90.31 229.09,91.17 228.22,92.04 226.99,93.22 225.77,94.40 224.98,95.24 224.20,96.09 223.28,97.38 222.35,98.67 221.37,99.70 220.39,100.72 219.56,101.48 218.74,102.24 217.86,103.09 216.97,103.94 215.97,104.84 214.97,105.73 213.85,106.49 212.72,107.24 211.60,107.75 210.48,108.26 209.30,108.29 208.12,108.32 207.30,107.60 206.49,106.89 205.46,105.48 204.42,104.08 203.88,102.80 203.33,101.51 202.44,99.90 201.56,98.28 200.99,97.23 200.43,96.19 199.82,95.02 199.21,93.86 198.61,92.50 198.01,91.13 197.52,89.69 197.03,88.25 196.44,85.85 195.84,83.44 195.35,82.40 194.86,81.35 194.68,80.28 194.50,79.20 196.11,80.06 197.73,80.91 196.56,82.03 195.40,83.16 194.19,84.19 192.98,85.22 192.98,83.96 192.98,82.70 192.38,85.23 191.79,87.75 190.65,89.00 189.52,90.25 188.57,91.03 187.63,91.80 186.62,92.86 185.62,93.92 184.48,95.07 183.34,96.22 181.86,97.87 180.37,99.52 179.43,100.50 178.49,101.48 177.43,102.78 176.37,104.08 174.77,106.17 173.18,108.26 172.60,109.32 172.01,110.38 171.03,112.01 170.04,113.64 169.11,114.27 168.18,114.90 167.00,114.91 165.83,114.92 164.58,114.25 163.32,113.58 162.58,112.22 161.83,110.85 161.44,109.53 161.04,108.22 160.77,106.38 160.49,104.54 160.52,103.28 160.54,102.01 160.57,100.59 160.60,99.16 160.63,97.49 160.65,95.83 160.73,94.30 160.82,92.76 160.40,91.71 159.98,90.66 159.91,89.53 159.84,88.40 159.36,86.75 158.88,85.10 158.47,83.97 158.06,82.83 157.46,80.99 156.85,79.15 156.28,77.80 155.70,76.45 155.17,74.97 154.64,73.48 154.22,71.75 153.80,70.03 153.43,68.43 153.06,66.84 152.39,65.12 151.71,63.41 152.91,64.42 154.11,65.42 153.36,66.20 152.60,66.98 151.91,68.20 151.23,69.43 150.24,70.28 149.26,71.14 148.62,72.03 147.98,72.91 147.24,74.39 146.50,75.87 145.24,77.02 143.97,78.16 143.04,79.10 142.11,80.03 140.40,81.50 138.68,82.98 137.71,84.08 136.75,85.19 135.52,86.32 134.30,87.45 133.01,88.57 131.73,89.70 130.43,90.74 129.14,91.78 126.91,94.53 124.69,97.29 123.31,99.14 121.94,100.99 120.33,102.75 118.73,104.52 116.56,106.91 114.39,109.31 113.35,110.78 112.31,112.25 111.03,113.70 109.74,115.15 108.43,116.83 107.12,118.52 106.08,120.26 105.05,121.99 104.33,123.03 103.62,124.07 103.02,125.30 102.41,126.53 101.82,127.63 101.24,128.73 100.14,129.95 99.04,131.16 97.65,131.72 96.26,132.27 94.94,131.83 93.61,131.38 92.94,130.34 92.26,129.29 92.03,127.85 91.79,126.41 91.92,125.23 92.06,124.05 92.48,122.78 92.90,121.50 93.37,119.89 93.84,118.28 94.30,116.62 94.75,114.96 95.12,113.24 95.50,111.52 95.57,110.16 95.64,108.80 95.68,107.36 95.71,105.91 95.55,103.57 95.39,101.23 95.03,98.72 94.68,96.20 94.55,95.10 94.42,94.00 93.97,92.07 93.52,90.14 93.43,88.58 93.35,87.02 93.31,85.04 93.28,83.06 93.22,81.90 93.15,80.75 93.01,79.50 92.87,78.24 92.34,76.40 91.82,74.56 91.31,72.94 90.79,71.31 90.41,69.72 90.02,68.13 89.56,66.54 89.09,64.96 88.34,63.53 87.58,62.11 89.08,62.40 90.58,62.70 91.51,62.04 92.44,61.39 91.63,62.90 90.83,64.40 90.45,65.45 90.07,66.50 89.78,67.90 89.49,69.31 89.16,70.50 88.82,71.70 88.56,72.93 88.30,74.15 87.60,75.66 86.90,77.17 86.70,78.42 86.50,79.68 86.21,80.97 85.91,82.27 85.44,84.36 84.98,86.45 84.49,88.37 84.01,90.29 83.52,92.10 83.03,93.92 82.51,96.16 81.99,98.39 81.88,99.54 81.76,100.69 81.48,102.26 81.20,103.82 80.78,104.83 80.36,105.84 80.05,107.04 79.74,108.24 79.21,110.11 78.69,111.97 78.40,113.17 78.12,114.37 77.37,115.84 76.62,117.31 76.33,118.52 76.04,119.73 75.15,121.64 74.27,123.56 73.93,125.08 73.58,126.59 72.99,127.74 72.40,128.88 71.68,130.24 70.96,131.61 70.11,133.09 69.26,134.57 68.66,136.08 68.06,137.59 67.46,138.99 66.85,140.40 65.75,142.71 64.64,145.01 63.75,146.67 62.86,148.33 62.08,149.71 61.30,151.09 60.45,152.87 59.61,154.64 58.59,156.48 57.57,158.33 56.67,160.20 55.76,162.07 54.63,163.75 53.50,165.43 52.09,168.05 50.68,170.67 48.29,174.06 45.89,177.46 41.11,183.89 36.33,190.31 34.80,192.53 33.27,194.75 31.66,196.76 30.06,198.77 28.89,200.81 27.73,202.85 25.57,205.99 23.41,209.12 22.14,210.45 20.88,211.77 19.60,212.95 18.33,214.12 16.86,215.89 15.38,217.65 14.45,218.73 13.52,219.80 12.25,220.27 10.98,220.73 9.49,220.52 8.00,220.32 6.67,218.83 5.34,217.34 4.92,216.34 4.49,215.34 4.14,213.90 3.78,212.47 3.59,211.37 3.41,210.27 3.11,208.26 2.82,206.24 2.42,205.24 2.01,204.23 1.64,202.23 1.28,200.24 0.98,199.20 0.68,198.16 0.65,196.23 0.63,194.29 0.40,192.72 0.18,191.15 0.25,190.03 0.32,188.92 0.38,187.45 0.43,185.98 0.51,184.62 0.59,183.26 0.57,181.36 0.56,179.47 0.57,177.73 0.58,175.99 0.52,174.09 0.46,172.19 0.25,169.91 0.04,167.63 -0.44,165.08 -0.92,162.52 -1.02,160.26 -1.12,158.00 -1.12,156.43 -1.11,154.86 -1.13,153.26 -1.16,151.66 -1.23,150.13 -1.31,148.59 -1.56,146.87 -1.81,145.14 -1.76,143.67 -1.71,142.20 -1.68,140.76 -1.65,139.31 -1.80,137.34 -1.96,135.36 -2.40,133.11 -2.84,130.85 -2.91,128.33 -2.99,125.80 -3.16,123.73 -3.33,121.66 -3.74,118.91 -4.16,116.17 -4.20,113.48 -4.23,110.80 -4.30,108.63 -4.37,106.46 -4.53,103.56 -4.70,100.66 -5.10,97.68 -5.51,94.70 -5.51,92.27 -5.51,89.85 -5.51,86.63 -5.51,83.41 -5.52,80.84 -5.52,78.26 -5.52,75.62 -5.52,72.99 -5.52,69.91 -5.52,66.83 -5.51,63.95 -5.50,61.07 -5.48,57.72 -5.46,54.37 -5.39,51.49 -5.33,48.61 -5.16,45.25 -4.99,41.89 -4.59,38.88 -4.19,35.87 -4.14,32.92 -4.09,29.98 -3.93,27.42 -3.77,24.86 -3.39,22.64 -3.01,20.41 -2.89,19.15 -2.76,17.89 -2.72,15.85 -2.67,13.81 -2.55,10.43 -2.44,7.05 -2.02,5.90 -1.60,4.74 -1.66,2.37 -1.71,0 -1.69,-0.20 -1.66,-0.41 -1.59,-0.60 -1.51,-0.79 -1.40,-0.96 -1.28,-1.13 -1.12,-1.27 -0.97,-1.41 -0.79,-1.50 -0.60,-1.60 -0.40,-1.65 -0.20,-1.70 0.00,-1.70 0.20,-1.70 0.40,-1.65 0.60,-1.60 0.79,-1.50 0.97,-1.41 1.13,-1.27 1.28,-1.13 1.40,-0.96 1.51,-0.79 1.59,-0.60 1.66,-0.41 1.69,-0.20 1.71,0.00 1.71,0.00 L 1.71,0 Z"></path></g></svg>