<?xml version="1.0" encoding="UTF-8"?>
<svg viewBox="0 0 560 520" xmlns="http://www.w3.org/2000/svg">
  <defs>
    <marker id="arrow" markerWidth="8" markerHeight="6" refX="8" refY="3" orient="auto">
      <path d="M0,0 L8,3 L0,6 Z" fill="#333"/>
    </marker>
  </defs>

  <!-- Background -->
  <rect width="560" height="520" fill="#fafafa" rx="8"/>

  <!-- Grid lines -->
  <g stroke="#e5e5e5" stroke-width="0.5">
    <line x1="104" y1="440" x2="104" y2="66"/><line x1="138" y1="440" x2="138" y2="66"/><line x1="172" y1="440" x2="172" y2="66"/><line x1="206" y1="440" x2="206" y2="66"/><line x1="240" y1="440" x2="240" y2="66"/><line x1="274" y1="440" x2="274" y2="66"/><line x1="308" y1="440" x2="308" y2="66"/><line x1="342" y1="440" x2="342" y2="66"/><line x1="376" y1="440" x2="376" y2="66"/><line x1="410" y1="440" x2="410" y2="66"/><line x1="444" y1="440" x2="444" y2="66"/>
    <line x1="70" y1="406" x2="444" y2="406"/><line x1="70" y1="372" x2="444" y2="372"/><line x1="70" y1="338" x2="444" y2="338"/><line x1="70" y1="304" x2="444" y2="304"/><line x1="70" y1="270" x2="444" y2="270"/><line x1="70" y1="236" x2="444" y2="236"/><line x1="70" y1="202" x2="444" y2="202"/><line x1="70" y1="168" x2="444" y2="168"/><line x1="70" y1="134" x2="444" y2="134"/><line x1="70" y1="100" x2="444" y2="100"/><line x1="70" y1="66" x2="444" y2="66"/>
  </g>

  <!-- Axes -->
  <g stroke="#333" stroke-width="1.5">
    <line x1="70" y1="440" x2="457.6" y2="440" marker-end="url(#arrow)"/>
    <line x1="70" y1="440" x2="70" y2="52.39999999999998" marker-end="url(#arrow)"/>
  </g>

  <!-- Axis labels -->
  <g font-family="serif" font-size="14" font-style="italic" fill="#333">
    <text x="469.5" y="445">x</text>
    <text x="54" y="40.5">y</text>
  </g>

  <!-- Tick marks and numbers -->
  <g font-family="sans-serif" font-size="11" fill="#555" text-anchor="middle">
    <line x1="104" y1="440" x2="104" y2="445" stroke="#333" stroke-width="1"/><text x="104" y="458">2</text><line x1="138" y1="440" x2="138" y2="445" stroke="#333" stroke-width="1"/><text x="138" y="458">4</text><line x1="172" y1="440" x2="172" y2="445" stroke="#333" stroke-width="1"/><text x="172" y="458">6</text><line x1="206" y1="440" x2="206" y2="445" stroke="#333" stroke-width="1"/><text x="206" y="458">8</text><line x1="240" y1="440" x2="240" y2="445" stroke="#333" stroke-width="1"/><text x="240" y="458">10</text><line x1="274" y1="440" x2="274" y2="445" stroke="#333" stroke-width="1"/><text x="274" y="458">12</text><line x1="308" y1="440" x2="308" y2="445" stroke="#333" stroke-width="1"/><text x="308" y="458">14</text><line x1="342" y1="440" x2="342" y2="445" stroke="#333" stroke-width="1"/><text x="342" y="458">16</text><line x1="376" y1="440" x2="376" y2="445" stroke="#333" stroke-width="1"/><text x="376" y="458">18</text><line x1="410" y1="440" x2="410" y2="445" stroke="#333" stroke-width="1"/><text x="410" y="458">20</text><line x1="444" y1="440" x2="444" y2="445" stroke="#333" stroke-width="1"/><text x="444" y="458">22</text>
  </g>
  <g font-family="sans-serif" font-size="11" fill="#555" text-anchor="end">
    <line x1="70" y1="406" x2="65" y2="406" stroke="#333" stroke-width="1"/><text x="62" y="410">2</text><line x1="70" y1="372" x2="65" y2="372" stroke="#333" stroke-width="1"/><text x="62" y="376">4</text><line x1="70" y1="338" x2="65" y2="338" stroke="#333" stroke-width="1"/><text x="62" y="342">6</text><line x1="70" y1="304" x2="65" y2="304" stroke="#333" stroke-width="1"/><text x="62" y="308">8</text><line x1="70" y1="270" x2="65" y2="270" stroke="#333" stroke-width="1"/><text x="62" y="274">10</text><line x1="70" y1="236" x2="65" y2="236" stroke="#333" stroke-width="1"/><text x="62" y="240">12</text><line x1="70" y1="202" x2="65" y2="202" stroke="#333" stroke-width="1"/><text x="62" y="206">14</text><line x1="70" y1="168" x2="65" y2="168" stroke="#333" stroke-width="1"/><text x="62" y="172">16</text><line x1="70" y1="134" x2="65" y2="134" stroke="#333" stroke-width="1"/><text x="62" y="138">18</text><line x1="70" y1="100" x2="65" y2="100" stroke="#333" stroke-width="1"/><text x="62" y="104">20</text><line x1="70" y1="66" x2="65" y2="66" stroke="#333" stroke-width="1"/><text x="62" y="70">22</text>
  </g>

  <!-- Constraint line x+y=20 -->
  <line x1="70" y1="100" x2="444" y2="474" stroke="#e74c3c" stroke-width="2.5" stroke-dasharray="8,3"/>
  <text x="112.5" y="117" font-family="serif" font-size="13" fill="#e74c3c" transform="rotate(-45,112.5,117)">x + y = 20</text>

  <!-- Hyperbolas -->
  <polyline points="112.5,32.0 118.0,78.9 123.5,116.2 129.1,146.5 134.6,171.6 140.1,192.7 145.7,210.8 151.2,226.4 156.7,240.0 162.2,252.0 167.8,262.6 173.3,272.1 178.8,280.6 184.3,288.3 189.8,295.3 195.4,301.7 200.9,307.5 206.4,312.9 211.9,317.8 217.5,322.4 223.0,326.7 228.5,330.6 234.1,334.3 239.6,337.7 245.1,341.0 250.6,344.0 256.1,346.8 261.7,349.5 267.2,352.1 272.7,354.5 278.2,356.7 283.8,358.9 289.3,360.9 294.8,362.9 300.4,364.7 305.9,366.5 311.4,368.2 316.9,369.8 322.4,371.3 328.0,372.8 333.5,374.2 339.0,375.5 344.5,376.8 350.1,378.1 355.6,379.3 361.1,380.4 366.6,381.5 372.2,382.6 377.7,383.6 383.2,384.6 388.8,385.6 394.3,386.5 399.8,387.4 405.3,388.3 410.9,389.1 416.4,389.9 421.9,390.7 427.4,391.5 433.0,392.2 438.5,392.9 444.0,393.6" fill="none" stroke="#e74c3c" stroke-width="1.8" opacity="0.75"/><polyline points="126.7,32.0 132.0,66.8 137.2,96.2 142.5,121.2 147.8,142.9 153.1,161.8 158.4,178.5 163.7,193.2 169.0,206.4 174.3,218.3 179.6,229.0 184.8,238.7 190.1,247.5 195.4,255.7 200.7,263.1 206.0,270.0 211.3,276.4 216.6,282.3 221.9,287.8 227.2,292.9 232.4,297.7 237.7,302.2 243.0,306.4 248.3,310.3 253.6,314.1 258.9,317.6 264.2,320.9 269.5,324.1 274.8,327.1 280.0,329.9 285.3,332.6 290.6,335.2 295.9,337.7 301.2,340.0 306.5,342.2 311.8,344.4 317.1,346.4 322.4,348.4 327.6,350.3 332.9,352.1 338.2,353.8 343.5,355.5 348.8,357.1 354.1,358.6 359.4,360.1 364.7,361.5 370.0,362.9 375.2,364.3 380.5,365.5 385.8,366.8 391.1,368.0 396.4,369.2 401.7,370.3 407.0,371.4 412.3,372.5 417.6,373.5 422.8,374.5 428.1,375.4 433.4,376.4 438.7,377.3 444.0,378.2" fill="none" stroke="#f39c12" stroke-width="1.8" opacity="0.75"/><polyline points="140.8,32.0 145.9,59.2 150.9,82.9 156.0,103.9 161.0,122.6 166.1,139.3 171.2,154.3 176.2,167.9 181.3,180.2 186.3,191.5 191.4,201.9 196.4,211.4 201.5,220.2 206.5,228.3 211.6,235.9 216.6,242.9 221.7,249.5 226.7,255.6 231.8,261.4 236.8,266.8 241.9,271.9 246.9,276.7 252.0,281.2 257.0,285.5 262.1,289.6 267.2,293.4 272.2,297.1 277.3,300.6 282.3,303.9 287.4,307.0 292.4,310.1 297.5,312.9 302.5,315.7 307.6,318.4 312.6,320.9 317.7,323.3 322.7,325.7 327.8,327.9 332.8,330.0 337.9,332.1 342.9,334.1 348.0,336.0 353.0,337.9 358.1,339.7 363.2,341.4 368.2,343.1 373.3,344.7 378.3,346.3 383.4,347.8 388.4,349.2 393.5,350.7 398.5,352.0 403.6,353.4 408.6,354.7 413.7,355.9 418.7,357.1 423.8,358.3 428.8,359.5 433.9,360.6 438.9,361.7 444.0,362.7" fill="none" stroke="#2ecc71" stroke-width="1.8" opacity="0.75"/><polyline points="155.0,32.0 159.8,53.9 164.6,73.5 169.4,91.3 174.3,107.4 179.1,122.1 183.9,135.5 188.7,147.9 193.5,159.3 198.3,169.8 203.2,179.6 208.0,188.7 212.8,197.1 217.6,205.1 222.4,212.5 227.2,219.5 232.1,226.0 236.9,232.2 241.7,238.0 246.5,243.5 251.3,248.8 256.1,253.7 261.0,258.4 265.8,262.9 270.6,267.1 275.4,271.2 280.2,275.0 285.1,278.7 289.9,282.3 294.7,285.6 299.5,288.9 304.3,292.0 309.1,295.0 313.9,297.8 318.8,300.6 323.6,303.2 328.4,305.8 333.2,308.2 338.0,310.6 342.9,312.9 347.7,315.1 352.5,317.2 357.3,319.3 362.1,321.3 366.9,323.2 371.8,325.1 376.6,326.9 381.4,328.6 386.2,330.3 391.0,332.0 395.8,333.6 400.6,335.1 405.5,336.6 410.3,338.1 415.1,339.5 419.9,340.9 424.7,342.2 429.5,343.5 434.4,344.8 439.2,346.1 444.0,347.3" fill="none" stroke="#3498db" stroke-width="1.8" opacity="0.75"/><polyline points="169.2,32.0 173.7,50.0 178.3,66.5 182.9,81.7 187.5,95.6 192.1,108.5 196.6,120.5 201.2,131.7 205.8,142.1 210.4,151.8 215.0,160.9 219.6,169.5 224.1,177.5 228.7,185.1 233.3,192.2 237.9,199.0 242.5,205.4 247.0,211.5 251.6,217.2 256.2,222.7 260.8,227.9 265.4,232.9 269.9,237.6 274.5,242.2 279.1,246.5 283.7,250.7 288.3,254.6 292.8,258.4 297.4,262.1 302.0,265.6 306.6,269.0 311.2,272.2 315.7,275.4 320.3,278.4 324.9,281.3 329.5,284.1 334.1,286.8 338.6,289.4 343.2,291.9 347.8,294.4 352.4,296.7 357.0,299.0 361.5,301.2 366.1,303.4 370.7,305.5 375.3,307.5 379.9,309.4 384.5,311.3 389.0,313.2 393.6,315.0 398.2,316.7 402.8,318.4 407.4,320.1 411.9,321.7 416.5,323.2 421.1,324.8 425.7,326.2 430.3,327.7 434.8,329.1 439.4,330.5 444.0,331.8" fill="none" stroke="#9b59b6" stroke-width="1.8" opacity="0.75"/>

  <!-- Tangent hyperbola xy=100 (highlighted) -->
  <polyline points="140.8,32.0 145.9,59.2 150.9,82.9 156.0,103.9 161.0,122.6 166.1,139.3 171.2,154.3 176.2,167.9 181.3,180.2 186.3,191.5 191.4,201.9 196.4,211.4 201.5,220.2 206.5,228.3 211.6,235.9 216.6,242.9 221.7,249.5 226.7,255.6 231.8,261.4 236.8,266.8 241.9,271.9 246.9,276.7 252.0,281.2 257.0,285.5 262.1,289.6 267.2,293.4 272.2,297.1 277.3,300.6 282.3,303.9 287.4,307.0 292.4,310.1 297.5,312.9 302.5,315.7 307.6,318.4 312.6,320.9 317.7,323.3 322.7,325.7 327.8,327.9 332.8,330.0 337.9,332.1 342.9,334.1 348.0,336.0 353.0,337.9 358.1,339.7 363.2,341.4 368.2,343.1 373.3,344.7 378.3,346.3 383.4,347.8 388.4,349.2 393.5,350.7 398.5,352.0 403.6,353.4 408.6,354.7 413.7,355.9 418.7,357.1 423.8,358.3 428.8,359.5 433.9,360.6 438.9,361.7 444.0,362.7" fill="none" stroke="#2ecc71" stroke-width="2.8"/>

  <!-- Tangency point -->
  <circle cx="240" cy="270" r="5.5" fill="#2ecc71" stroke="#fff" stroke-width="2"/>
  <text x="250" y="260" font-family="sans-serif" font-size="13" fill="#2ecc71" font-weight="bold">P(10,10)</text>

  <!-- Contour labels at bottom-right -->
  <g font-family="serif" font-size="12" font-style="italic">
    <text x="452.5" y="363.5" fill="#e74c3c" text-anchor="start">xy = 60</text><text x="452.5" y="346.5" fill="#f39c12" text-anchor="start">xy = 80</text><text x="452.5" y="329.5" fill="#2ecc71" text-anchor="start">xy = 100</text><text x="452.5" y="312.5" fill="#3498db" text-anchor="start">xy = 120</text><text x="452.5" y="295.5" fill="#9b59b6" text-anchor="start">xy = 140</text>
  </g>

  <!-- Annotation block: right-center -->
  <g font-family="sans-serif" font-size="12" fill="#333" text-anchor="end">
    <text x="444" y="168" font-weight="bold">切点：</text>
    <text x="444" y="181.60000000000002">∇f = (y,x) = (10,10)</text>
    <text x="444" y="195.2">∇g = (1,1)</text>
    <text x="444" y="208.8">∇f = 10 ∇g</text>
  </g>

  <!-- Title -->
  <text x="280.0" y="28" font-family="sans-serif" font-size="16" fill="#333" text-anchor="middle" font-weight="bold">Lagrange 乘数法几何意义</text>
  <text x="280.0" y="46" font-family="serif" font-size="12" fill="#666" text-anchor="middle" font-style="italic">f(x,y) = xy 在约束 x + y = 20 下的条件极值</text>
</svg>